<mxfile host="app.diagrams.net" modified="2022-03-09T15:38:13.379Z" agent="5.0 (Windows NT 10.0; Win64; x64) AppleWebKit/537.36 (KHTML, like Gecko) Chrome/99.0.4844.51 Safari/537.36" etag="WegNvCpVmdpyr6wrIfWi" version="17.0.0" type="github">
  <diagram name="Page-1" id="9f46799a-70d6-7492-0946-bef42562c5a5">
    <mxGraphModel dx="3103" dy="1521" grid="1" gridSize="10" guides="1" tooltips="1" connect="1" arrows="1" fold="1" page="1" pageScale="1" pageWidth="1100" pageHeight="850" background="#000000" math="0" shadow="0">
      <root>
        <mxCell id="0" />
        <mxCell id="1" parent="0" />
        <mxCell id="rVYhPN8Pk0DGESedEaqS-12" style="edgeStyle=orthogonalEdgeStyle;rounded=1;orthogonalLoop=1;jettySize=auto;html=1;entryX=0.5;entryY=0;entryDx=0;entryDy=0;shadow=0;fontSize=14;strokeWidth=4;strokeColor=#FFFFFF;" edge="1" parent="1">
          <mxGeometry relative="1" as="geometry">
            <mxPoint x="1695.01" y="245.00000000000006" as="sourcePoint" />
            <mxPoint x="1417.5" y="820" as="targetPoint" />
          </mxGeometry>
        </mxCell>
        <mxCell id="rVYhPN8Pk0DGESedEaqS-11" style="edgeStyle=orthogonalEdgeStyle;sketch=0;jumpStyle=arc;jumpSize=6;orthogonalLoop=1;jettySize=auto;html=1;entryX=0.5;entryY=0;entryDx=0;entryDy=0;entryPerimeter=0;shadow=0;fontSize=10;fontColor=#FFFFFF;startArrow=none;startFill=0;strokeWidth=4;rounded=1;strokeColor=#FFFFFF;" edge="1" parent="1">
          <mxGeometry relative="1" as="geometry">
            <mxPoint x="1417.3916279069767" y="1089.9985835095135" as="sourcePoint" />
            <mxPoint x="1417.3849999999998" y="1120.01" as="targetPoint" />
          </mxGeometry>
        </mxCell>
        <mxCell id="rVYhPN8Pk0DGESedEaqS-10" style="edgeStyle=orthogonalEdgeStyle;orthogonalLoop=1;jettySize=auto;html=1;fontSize=30;strokeWidth=4;rounded=1;shadow=0;exitX=0.5;exitY=1;exitDx=0;exitDy=0;exitPerimeter=0;entryX=0.5;entryY=0;entryDx=0;entryDy=0;strokeColor=#FFFFFF;" edge="1" parent="1" source="TdoV821Zneaegla7UpCI-48" target="TdoV821Zneaegla7UpCI-50">
          <mxGeometry relative="1" as="geometry">
            <mxPoint x="1427.5581395348836" y="1260" as="sourcePoint" />
            <mxPoint x="1835" y="1340" as="targetPoint" />
          </mxGeometry>
        </mxCell>
        <mxCell id="rVYhPN8Pk0DGESedEaqS-9" style="edgeStyle=orthogonalEdgeStyle;orthogonalLoop=1;jettySize=auto;html=1;fontSize=30;strokeWidth=4;rounded=1;shadow=0;exitX=0.5;exitY=1;exitDx=0;exitDy=0;exitPerimeter=0;strokeColor=#FFFFFF;" edge="1" parent="1" source="TdoV821Zneaegla7UpCI-70">
          <mxGeometry relative="1" as="geometry">
            <mxPoint x="1835.0576923076922" y="1260" as="sourcePoint" />
            <mxPoint x="1825" y="1330" as="targetPoint" />
          </mxGeometry>
        </mxCell>
        <mxCell id="rVYhPN8Pk0DGESedEaqS-8" style="edgeStyle=orthogonalEdgeStyle;rounded=1;sketch=0;jumpStyle=arc;jumpSize=6;orthogonalLoop=1;jettySize=auto;html=1;entryX=0.5;entryY=0;entryDx=0;entryDy=0;entryPerimeter=0;shadow=0;fontSize=16;fontColor=#FFFFFF;startArrow=none;startFill=0;strokeWidth=4;exitX=0.5;exitY=1;exitDx=0;exitDy=0;strokeColor=#FFFFFF;" edge="1" parent="1">
          <mxGeometry relative="1" as="geometry">
            <mxPoint x="1824.9000000000003" y="1090" as="sourcePoint" />
            <mxPoint x="1824.9050000000004" y="1120" as="targetPoint" />
          </mxGeometry>
        </mxCell>
        <mxCell id="rVYhPN8Pk0DGESedEaqS-7" style="edgeStyle=orthogonalEdgeStyle;rounded=1;orthogonalLoop=1;jettySize=auto;html=1;entryX=1;entryY=0.5;entryDx=0;entryDy=0;shadow=0;fontSize=16;strokeWidth=3;exitX=0;exitY=0.5;exitDx=0;exitDy=0;exitPerimeter=0;strokeColor=#FFFFFF;" edge="1" parent="1" source="jxMsPqHITxnM18n-LVxt-3" target="TdoV821Zneaegla7UpCI-229">
          <mxGeometry relative="1" as="geometry">
            <mxPoint x="2080" y="1060" as="sourcePoint" />
            <mxPoint x="1971.47" y="965" as="targetPoint" />
          </mxGeometry>
        </mxCell>
        <mxCell id="rVYhPN8Pk0DGESedEaqS-6" style="edgeStyle=orthogonalEdgeStyle;rounded=1;sketch=0;jumpStyle=arc;jumpSize=6;orthogonalLoop=1;jettySize=auto;html=1;exitX=0;exitY=0.5;exitDx=0;exitDy=0;exitPerimeter=0;entryX=1;entryY=0.5;entryDx=0;entryDy=0;shadow=0;fontSize=10;fontColor=#FFFFFF;startArrow=none;startFill=0;strokeWidth=3;strokeColor=#FFFFFF;" edge="1" parent="1" source="TdoV821Zneaegla7UpCI-225" target="TdoV821Zneaegla7UpCI-229">
          <mxGeometry relative="1" as="geometry">
            <mxPoint x="2080" y="870" as="sourcePoint" />
            <mxPoint x="1971.47" y="965" as="targetPoint" />
          </mxGeometry>
        </mxCell>
        <mxCell id="rVYhPN8Pk0DGESedEaqS-5" style="edgeStyle=orthogonalEdgeStyle;rounded=1;sketch=0;jumpStyle=arc;jumpSize=6;orthogonalLoop=1;jettySize=auto;html=1;exitX=0.5;exitY=1;exitDx=0;exitDy=0;exitPerimeter=0;entryX=0.5;entryY=0;entryDx=0;entryDy=0;shadow=0;fontSize=10;fontColor=#FFFFFF;startArrow=none;startFill=0;strokeWidth=4;strokeColor=#FFFFFF;" edge="1" parent="1">
          <mxGeometry relative="1" as="geometry">
            <mxPoint x="1824.9350000000002" y="780" as="sourcePoint" />
            <mxPoint x="1824.9300000000003" y="820" as="targetPoint" />
          </mxGeometry>
        </mxCell>
        <mxCell id="rVYhPN8Pk0DGESedEaqS-4" style="edgeStyle=orthogonalEdgeStyle;rounded=0;orthogonalLoop=1;jettySize=auto;html=1;exitX=0.5;exitY=1;exitDx=0;exitDy=0;entryX=0.5;entryY=0;entryDx=0;entryDy=0;entryPerimeter=0;fontSize=14;fontColor=#FFFFFF;strokeWidth=4;shadow=0;strokeColor=#FFFFFF;" edge="1" parent="1">
          <mxGeometry relative="1" as="geometry">
            <mxPoint x="1824.9500000000003" y="620" as="sourcePoint" />
            <mxPoint x="1824.9450000000002" y="650" as="targetPoint" />
          </mxGeometry>
        </mxCell>
        <mxCell id="rVYhPN8Pk0DGESedEaqS-3" style="edgeStyle=orthogonalEdgeStyle;rounded=0;orthogonalLoop=1;jettySize=auto;html=1;entryX=1;entryY=0.5;entryDx=0;entryDy=0;strokeWidth=3;shadow=0;strokeColor=#FFFFFF;" edge="1" parent="1">
          <mxGeometry relative="1" as="geometry">
            <mxPoint x="2070" y="494.93" as="sourcePoint" />
            <mxPoint x="1955.0100000000002" y="494.93" as="targetPoint" />
          </mxGeometry>
        </mxCell>
        <mxCell id="rVYhPN8Pk0DGESedEaqS-2" style="edgeStyle=orthogonalEdgeStyle;rounded=1;orthogonalLoop=1;jettySize=auto;html=1;entryX=0.5;entryY=0;entryDx=0;entryDy=0;strokeWidth=4;exitX=0.5;exitY=1;exitDx=0;exitDy=0;exitPerimeter=0;strokeColor=#FFFFFF;" edge="1" parent="1" source="jxMsPqHITxnM18n-LVxt-1" target="TdoV821Zneaegla7UpCI-38">
          <mxGeometry relative="1" as="geometry">
            <mxPoint x="1916.4525139664804" y="320" as="sourcePoint" />
            <mxPoint x="1835.0100000000002" y="379.99999999999994" as="targetPoint" />
          </mxGeometry>
        </mxCell>
        <mxCell id="rVYhPN8Pk0DGESedEaqS-1" style="edgeStyle=orthogonalEdgeStyle;rounded=1;orthogonalLoop=1;jettySize=auto;html=1;entryX=0.5;entryY=0;entryDx=0;entryDy=0;shadow=0;strokeWidth=4;strokeColor=#FFFFFF;exitX=0.5;exitY=1;exitDx=0;exitDy=0;exitPerimeter=0;endArrow=classicThin;endFill=1;endSize=3;jumpSize=6;sketch=0;" edge="1" parent="1" source="3hBX2z78ImlHnici2h0N-1" target="TdoV821Zneaegla7UpCI-38">
          <mxGeometry relative="1" as="geometry">
            <mxPoint x="1739.9966666666667" y="340" as="sourcePoint" />
            <mxPoint x="1821.3400000000001" y="400" as="targetPoint" />
            <Array as="points">
              <mxPoint x="1744" y="340" />
              <mxPoint x="1825" y="340" />
            </Array>
          </mxGeometry>
        </mxCell>
        <mxCell id="TdoV821Zneaegla7UpCI-41" style="edgeStyle=orthogonalEdgeStyle;rounded=0;orthogonalLoop=1;jettySize=auto;html=1;exitX=0.5;exitY=1;exitDx=0;exitDy=0;entryX=0.5;entryY=0;entryDx=0;entryDy=0;entryPerimeter=0;fontSize=14;fontColor=#FFFFFF;strokeWidth=3;shadow=0;" parent="1" source="TdoV821Zneaegla7UpCI-38" target="TdoV821Zneaegla7UpCI-40" edge="1">
          <mxGeometry relative="1" as="geometry" />
        </mxCell>
        <mxCell id="TdoV821Zneaegla7UpCI-38" value="&lt;p style=&quot;line-height: 200%&quot;&gt;&lt;b&gt;&lt;font style=&quot;font-size: 18px&quot;&gt;Convert ICY data to R readable&lt;/font&gt;&lt;/b&gt;&lt;br&gt;&lt;font style=&quot;font-size: 18px&quot;&gt;using python script&lt;/font&gt;&lt;/p&gt;" style="rhombus;whiteSpace=wrap;html=1;shadow=1;fillColor=#fff2cc;strokeColor=#994C00;" parent="1" vertex="1">
          <mxGeometry x="1695.0100000000002" y="370" width="260" height="250" as="geometry" />
        </mxCell>
        <mxCell id="TdoV821Zneaegla7UpCI-231" style="edgeStyle=orthogonalEdgeStyle;rounded=1;sketch=0;jumpStyle=arc;jumpSize=6;orthogonalLoop=1;jettySize=auto;html=1;exitX=0.5;exitY=1;exitDx=0;exitDy=0;exitPerimeter=0;entryX=0.5;entryY=0;entryDx=0;entryDy=0;shadow=0;fontSize=10;fontColor=#FFFFFF;startArrow=none;startFill=0;strokeWidth=3;" parent="1" source="TdoV821Zneaegla7UpCI-40" target="TdoV821Zneaegla7UpCI-229" edge="1">
          <mxGeometry relative="1" as="geometry" />
        </mxCell>
        <mxCell id="TdoV821Zneaegla7UpCI-40" value="&lt;font style=&quot;font-size: 14px&quot;&gt;Condition_ measurement&lt;br&gt;.csv&lt;/font&gt;" style="shape=note;whiteSpace=wrap;html=1;backgroundOutline=1;darkOpacity=0.05;rounded=1;shadow=1;glass=0;sketch=1;fontSize=17;strokeColor=#82b366;gradientColor=#ffffff;fillColor=#D5E8D4;" parent="1" vertex="1">
          <mxGeometry x="1776.38" y="650" width="97.25" height="130" as="geometry" />
        </mxCell>
        <mxCell id="GacyLn4TmJQCc22O2fjG-3" style="edgeStyle=orthogonalEdgeStyle;orthogonalLoop=1;jettySize=auto;html=1;fontSize=30;strokeWidth=3;rounded=1;shadow=0;" parent="1" source="TdoV821Zneaegla7UpCI-48" target="TdoV821Zneaegla7UpCI-50" edge="1">
          <mxGeometry relative="1" as="geometry" />
        </mxCell>
        <mxCell id="TdoV821Zneaegla7UpCI-48" value="&lt;font style=&quot;font-size: 14px&quot;&gt;Condition_ measurement&lt;br&gt;.xlsx&lt;/font&gt;" style="shape=note;whiteSpace=wrap;html=1;backgroundOutline=1;darkOpacity=0.05;rounded=1;shadow=1;glass=0;sketch=1;fontSize=17;strokeColor=#82b366;fillColor=#d5e8d4;gradientColor=#ffffff;" parent="1" vertex="1">
          <mxGeometry x="1368.8799999999999" y="1120" width="97.25" height="130" as="geometry" />
        </mxCell>
        <mxCell id="TdoV821Zneaegla7UpCI-50" value="GraphPad Prism 8.2.0" style="swimlane;startSize=40;horizontal=1;containerType=tree;shadow=1;sketch=1;strokeColor=#6c8ebf;fontSize=30;swimlaneFillColor=#ffffff;glass=0;rounded=1;perimeterSpacing=0;swimlaneLine=1;labelBorderColor=none;fillColor=#FFFFFF;gradientColor=#E6E6E6;" parent="1" vertex="1">
          <mxGeometry x="1210" y="1330" width="1230" height="890" as="geometry">
            <mxRectangle x="192.49" y="950" width="170" height="20" as="alternateBounds" />
          </mxGeometry>
        </mxCell>
        <mxCell id="TdoV821Zneaegla7UpCI-69" value="" style="shape=image;imageAspect=0;aspect=fixed;verticalLabelPosition=bottom;verticalAlign=top;rounded=1;shadow=0;glass=0;sketch=0;fontSize=16;fontColor=#FFFFFF;strokeColor=#000000;strokeWidth=1;fillColor=#FFFFFF;gradientColor=#E6E6E6;html=1;image=data:image/png,iVBORw0KGgoAAAANSUhEUgAAA/4AAAK7CAYAAABLflSmAAAAAXNSR0IArs4c6QAAAARnQU1BAACxjwv8YQUAAAAJcEhZcwAADsMAAA7DAcdvqGQAAP+lSURBVHhe7P0NzG3Xed8HXn5/6IMSRUkUJcuUzCsLtOJQMqswnGtKbAqLkWuR1xYqpUpERncUSqOqZOsLkBHhoR2FojvuVLZAgbCMho6IhkEmAnsrDAhlinJSTYaoyxkiKQYKEWBopzNXgTAzREBPlTrj7Hn/7znPfZ+zzrP2Xv/z7nXOXmf/f8BD3nftvdfZz7Of9fHfnyc6IYQQQgghhBBC7C0S/kIIIYQQQgghxB4j4S+EEEIIIYQQQuwxEv5CCCGEEEIIIcQeI+EvhBBCCCGEEELsMRL+QgghhBBCCCHEHiPhL4QQQgghhBBC7DES/kIIIYQQQgghxB4j4S+EEEIIIYQQQuwxEv5CCCGEEEIIIcQeI+EvhBBCCCGEEELsMRL+QgghhBBCCCHEHiPhL4QQQgghhBBC7DES/kIIIYQQQgghxB4j4S+EEEIIIYQQQuwxEv5CCCGEEEIIIcQeI+EvhBBCCCGEEELsMRL+QgghhBBCCCHEHiPhL4QQQgghhBBC7DES/kIIIYQQQgghxB4j4S+EEEIIIYQQQuwxEv5CCCGEEEIIIcQeI+EvhBBCCCGEEELsMRL+QgghhBBCCCHEHiPhL4QQQgghhBBC7DES/kIIIYQQQgghxB4j4S+EEEIIIYQQQuwxEv5CCCGEEEIIIcQeI+EvhBBCCCGEEELsMRL+QgghhBBCCCHEHiPhL4QQQgghhBBC7DES/kIIIYQQQgghxB4j4S+EEEIIIYQQQuwxEv5CCCGEEEIIIcQeI+EvhBBCCCGEEELsMRL+QgghhBBCCCHEHiPhL4QQQgghhBBC7DES/kIIIYQQQgghxB4j4S+EEEIIIYQQQuwxEv5CCCGEEEIIIcQeI+EvhBBCCCGEEELsMRL+QgghhBBCCCHEHiPhL4QQQgghhBBC7DES/mInvPbaa90TTzzRnTp1qjtx4sShnTx5sjt79mx3/vz55VqbYfWdPn16WcKB7awOsUAxWcfi4fNMcZon6M/Qd9mxh6F/qwn6SfutM2fOLEuP6NuXl19++cKyxx577LDM/vb5jO2s/MUXX1yW5ulb//nnn++efvrp5V/Tx/zIGcauc+fOLdfePoiv7Ys/vlbmj+M+gBzv8wvtwbdBHB/k3K6w9ol5zVj49rUptv0Y+RHN46xupm14v3KW7q/l/ybxzbWdHOZfSR8oxNTR7FRsHUw60VlbxxvZcSZUVsemAxu2szrEAsVkHYuHzzPFaZ5A0NpxNyuZUB4X+6108usntrC0L0T/astMHEXr+gl5yaQ3t76VbyMmY2F+DJmdONk2OfFiZekxbxmfV5FfEKC5OcWuTs5YG8PJiLHwcdgU2/64+eFPHuYMghnHZgjvV87S/cXfKN+kT8m1nRzWv495EkeIXaHZqdgqfQN0apte+bft92nis2tskIWJBcozYfiJa8lEdyzsKmj6u9FE2uOvjPb1s76eTYU/O8meCrbPJbbNY27MQfjDx+hqcorPOwhSHA/fNnaBtbEx73Lxfm6KbX+c/PB3Gw1ZyYkP71fO/P763N9knsj2ScgnW3+Xd5EIMQaaxYut4jv49FY8/NufFEivpGB5OgnAoJJ2/LYsHdjQeeP3/W9gcoCJggfb2XLD7zcGDaNk8uX9wv/tCoSvE+ul+5EDfviJOwxxSa9spPuGCYjfj9yExMfIjlEUkxy545ROjn2d8N3/PbS+v2Lp/fY+wqL8APg9PzGE4W9/bI003pYz9jf2y4ji5I8zYoO8tr8Rp9LfRJn97X8zYhuxSvM19dPvP/YnXd/APvl8sZxL8T5hP/0+4d/pvqcxhOXqBqXxSPH1e/PgGPv9xe8gXim2HL76PMnFDvts63i/0vYH83lmy7Efhq3nc8sf0zRP8Xu+Hqybru//9ubLfU4adhxQv2HrY//w2/5Yob6ITY8psG18PAzklj+eURtOwe+m+Yi/UVcK6vPHEL+V/gb+tuXefytL99sfL7Pc7+fAb5bksT+++N2SPi/F++ctOh52jOGP4bf3bWNT0Abx21YnfModA2CxtrZr66X5i/9bG/Bxw3p9feym+PpTfP3Y/9Rnw+cA1vPxjfJ8KMdYv6x+/HZKLs99u0+PW+p3lJ9WJ3wXomU27z2E2AA/CYsGA3TOWAcTNr/ci5fUsL7HytOBLR0MvPkBNhro/MDgB4XcwG9lOfO/4W1ogMTyPj/8JNrvW87SSXc6YEfWhxciqWG/vX+5GJhhfU9ufZt09O27P774d7SOmZ8gDMUb5vNsKHdyVvKbvsz/ZsS2YuXXZf0EffuR5mbOJzPfDyCGvq9Jjcl772NEtA3M6Ou78LueaB2YbzeeqP/Bur4sXQ6szP++lfnc8tv7fq/PJzOsn8sJlNvxSSfSPuf8cbKynKUnio9zTIGtG7U15LEXP0NgfVs3tbRf7Iutj8fQ2OP3m+mXczB5nDvu3tK+IMX753MiPR5pvnty5Sz+9735Ptn/ht8nw/7OWa5/88fGx3VTbPs0jrn24vtR4H3ryx20D9Tp+40crF+2btrm+3LUjw8+t3LmT2aAMWIvxBRQBoutYh1n2mEPYYOPn2D4gcoPLlbmBzY/IGASlJb5yacfgA3f6fvf8gOIH/itDGa/l06+bBLn/UgHmxS/zzZ59ZNK73M6uA357dfHgI56MainE4I+7Djh/zYh8L9nPgMf59zv5da3PLAY+H03P1GfTcx8XKx+P2nx++iPoz/u2A7r+3phvm6/j4avA2b54/20fQY+T0p+M2LsWMFsez8JtrpBzs/UH8Pvh/kJ8/tudQBfjn21fPFxsX30x9N89OvmJoFD8cjhfffgN63c9hn4K6A+36wMZrlvPuWw9W0/0YdYGba1uNly769vX1bm/fV+2bHwPvlyf5x9uf8976uvG3UauXIrg1m+pO3C4ut/c9NjatsPmY9hDt+OLC6+zOeolfk24de1mOTiamXeR6ZfjvD7VZLH/hjC+nzOgW0sBsC2S49dLg7AylGPge2t3GNlaR3An+Sx/fa/m25nbdDvq1/X6sD/fbkdBx8nPyfwcd0U297vm+/T7fimeQcDvn8pyf0S0nyJzPD7mv6+5bk/3t4Hy8P02FmMfbkfI4BfZvUI0SKb9x5CkPiOMxpcS8BghE7aTzjSjtjK/MBmgz0GNQ8GdNRlExkQTQz8wOR/K+eTlfnBI508GZvGBQMgJg5+f73Pvl4v8EG0vo+pj4ffb1gffj0MyjZpi/D7nfs9v3+59YEN7unxxT7YNtG+IEaIuU0YYP4YoD6U9U0Ccvto+Nzxk10/gfG/aXWU/mbEWLHy9WAf07o83s90QhbFxU+m/bHxx99P4HwdiJ3hJ8+IEfD7gt/x66dsmjse/3ueaN+MKLds3fTY95HG1rdjkO6b/9vHxcpQn+HXtf3vm/j7fbH1fd6iPgO5ZOW+HotLrs/qaxdW/xjH1NbrM/jb1yYMWx/HxsDvY/+QI7Yvuf3zsYpEio+rlfnjaGUw/MaQ7ylsHvu8KenzSrDtvF8gFwcQbeNz1GNl0X7ZMt8fAe+n387KfZmt5+OE42DlPldzPvnf2xTb3sfE1+vz2e8fDPh101zYFF9nzgzfRnK/j/3umyf6+KbH1G/j+8fj5K4QU2Lz3kMIktxgVgIGIy8UUvMDgJVFE5900hARTQxyg13OJytLf8/K/QSQjQsmUpg82Dbe/O/11Ws++vUjv42+ZZ7oGKWTW4P9vdL1c2bHDfuRTgi8lRxHEC2L9jGXO8DKj/ObEdF+GH5Zzmw//YTfDLmH+KWCp89Pv8wmU/Z35Ivto58k53zyeW6/6ydp3jDJS/eNiUcO75/Ht4cUv43F0v6OYpIjrcf6BhPOaXxy+2Rl/rejYxqVGdEy//tY7jHRaPuK/bd1/ckAYOVRbGyZ1TPGMY22yVnat3n6/E/x8cuZ1ZGr18p8nPwxN8v1yxG5nAF+ny2PfVkaZyv3+1yCbZce/774Rtv43PBYWVpHX/25ZfYb3ndbL91/Ky+ZE+DfVr4ptn1JTEC6zO+D9w/4db2l66X4OnNm+HXTMQh/R7luZvvh42sn0gy/LN1vK/fHRIjW2Lz3EIIEEwzrONOzrEPYBBGGjh2TQi/efAdtZX5gi8pyRINgbrDzg4QfDKws/b1o3VwdEf5qmwkwL3L87/XVaz769SO/jb5lHhxjv25q/gw6+3ul6+fMjpvPG5v8+qsIJccRRMuifUR9VuZzB1j5cX4zItoPwy/Lmd9PH6/UvDjr8zNaZn9HvkT7n/MJ9Vm5/11/TFPz/Q8bjwjvnye3z4CNSQ7fJ/g6/bHxy9MTA4at43872seozIiW4f9WhuUef2IJfUf6t8fKo9iky3zcc5bue4qtF/0e9s37iv3O0ed/iq8zZ1ZHrl4r8/vN9MsRftsUv88W06jMsHK/zyXYdunx6Iuvlefau8fK0jr66h86Bh4rS/ffyv32uXrxbyvfFNve70ff8U2X+X3zfQzw63rDNn0wfvWtWzpP9D6k+9a3zMr9MQFYD2XoB9KTEUJMjc17DyE2wCadsHRiB1CGzhudqHWgviP2Eyw/APgO2sr8wBaV5YgGwdxv+X3zg4GVpb8XrZurI8L2DXH08bPt/e/11Wv1+PWtDJbStywCE0kMuH4ghnmxUfJ78NMoWR//H8Lq8PvCHkcQLYv2EfVZmc8dYOXH+c2IaD8MWzZUhwdtEW3P15vW3+enX2bt2v6O9sN+p+T4+2OX/i7aCCZ/ONa2jpmJHas32o9SvH8e/7spbExywEfbzvevfgJq++HbYypWrdz/dnRMS4+zLfPHB8s92EdbhuNk++fbpmHrRbGxZSbwxjimfb9nlKzT53+Kj98QuXqtLNqnkn45gs1jX5bmiJUPxSLFtkv98vmf1hmVY3sr90Trgr7jFy2zMsTYY+ul+59uD3K/iX9b+abY9n4/cjEB6bK0v/HzEL+utzQHUhi/cuv6mA3NE/266ckLvyzdbyv3xyQ6MZ5uJ8SU2Lz3EGIDfCeMgdHfZoV/+wmJTeJyHXF0JhdYWTSweSEB8BuwoSvR0eAB0qtthpX5fQDRut4/Xx5h++br9QOxL++rN6rH++hFg68fxoLtTZD437N9gPmYAiv3E1K/fgqOoS3zE5EIW8/HJHcc7TfTvPGxzflk+Ljm/Cz5Tb+P/jcjov0wmFjliISA99P7A6L1fZnfD59v1geAnE/+WKTxTcGEMF13jHh43z3R7xnW1/njbOsOHd8Ua19mae74/TDL5aL/7Sh38X8r67viF62f5gWwOPi+P60X2DKYP07ou63cJvxjHFPbPjoWqNPH1OdpRG49+IyYWH8Lv21dPzZG5OJqZUM5BB8sb4bWZfM4yhvDyqNc6MO2i/bV/PDx9fHxsfQ56rGyaL9sWXr8/BzEtrNYYZnH1kv3P90e5I4t/m3lm2Lb+/3w9ZaM/b594finuYo26etMcyCF8Su3rz5m/veieaJft++Y+vqBlWMfAJZbGbaz3IpyVIipsHnvIcQG+MnGkFmn6ztpE4K+DOY7eivzna+fUFmn7evwkxbrvGFGug/wA/vnJ6tWL7CydACI1vV1+/IIv28YXLEffhD2v9dXr9Xj1/cTaPgF/9L6YTn8IGgxisoN70vu97wA8OuneF+xPeqBRZNSWw9lWKfvOKaT+2h9H8NoH1GflWE/PVbe95ug7zcjxoqVtVX8H/sAsO6QnzDzNSeQ/IkMvx++bh+vnE/eH1sf9aVlwE/q7GSf334oHjm87x7EzMpRn8XQ74c/9lY2dHxTvL8wH2fg27ZZipX7387lrpX5cn+cfbn/bfgNEF/D981mEX65Hae0XVh8xzimtn2JRScqPP74WFx8bO14YR+tzOeL3z7ysS+HsL6VlfTLEX7dkjzO5Q2I1i/Btovaho+PjYvwyco8UT/i4x7tl6/LjrWPv9/O1k3FsK2X7n+6PcgdW/zbyvusD1vH70c69iMeMB9XmOHzocQsX3J4v4bw44bPLR8zy+f0GNn6aTn6rrQ87SN8jGx96/N8v4a/oxwVYioMtzIhRgYdqAmKnKUTKT+5i8yvb2Vp59tXB3NFIGd+gLay4wzyEX7Qi8wPVn31mo/p/vmJXM768AN4ZDj2ho9zZOm++fUj0kmKN398h3y0SbgxlHt+P6N99DGxiYdh5f74YPIQ/aYvS/cxZaxYpROk1Hy7Gzr2MPjm6duPtA/I+eT30eJrE7CcpfErjUcO73sK/PD1eUv3w8p9TpWQ/ka0z355VH+0LJe7Q/0QzK+fLkvz3S9LY2L4dSLzdYLjHtNou8hKjtWQUPLCqC9fTGAAn/fedyvLHcfIfL+cg8njXN4AK0+P1xC2XRTvvvbe149g32C+bzXh7vfPiz5vfjv7Hfs7FbtWnu6/lfvfyx1bH9c+68PWSfcj115srtYnhHOG+JTklvdrCP+76bGNxk1vtr6Pb87SvPXbmE84xqjT1rV1cn2YEFNguJUJUQEM1OjsfUeNgQUdZjRQoIP1Z92xHspsez+I2TrpwGa/6U86oM60g/cTAw/2yy/DPvgJsB+grSzdh2hdP6D48hw4y+wHYww8fj/SQSiq1/xI9w9gXdsO8UXduZhEpOvDEOf0uPp10thigovj5SnZB+z70PFFvV78o16s48v8b+PfflJkvtjf2N6I9tHHM90XK0+PD34zzXeU5dZPGStWAL76fYGh/lQ8eT+xLI1ZOhE2kL++H7CcS8n55PPc778dN+8j6s7FrjQeEd73CNTjY4jfifbDlvucKsHnI8znr+F/v/S3vV9pLHCMLF7mT259vy4snbD7fYuOPbDllnv+t+0KXAr2x/8uc0xtm5yZz1GsI5D/vk3A8HfULuBf2ibSmMEPW479MKwszSHU6dsQDPFI++U+SvM4lwfAyqPt+rDtcm3D2rutV9KP2HqIrd9nlKXHBXGyY2J++2OAf2MbW55i66X7b+U+Hrlj6/exz/qwdaI4+jHQcsPiFa2PmKPtpTHFtmm+9uH9KsHatD8RBhB/n5/Wvuy4mQ8+vqjD+41105wFQ/vo++CoTQsxFcpamRBCjIyfLIgyLF5+MjgV/MQomjgJkcNP1nPY8kiACFGKjTtj4AXkvvZ5Fq8ptTs7wQORvi0sDvjtFC/6mRNpQuwCzbiFEDvBBlKYOMLHxV/R8MI6d1V0l0j4i01ALlveRJNqw9aZkgAR7WF5xPRRtg3M+l5c7fYnrErv/Jgivu9G+zJf/ImN9Or6LvFCextxx2/Y76Vjr0S/aA3NuIUQO0HCP8YLoci2eZWDQcJfMOBWYJ/XsL5bZG0dCX+xKV6kMSdP/a3gkU1JFG+CPaLQZ1O7fd3mD8wjBZtifVX6CAdOCNhjBzgJhDHQTIipohm3EGInSPjnwaTUxwdmz5VO9cqShL9g8CIMJ7OGhJitK+EvNsVfuWWvzqJ/S/tk5O02hOc2QDwgXk3Imtlz8lPD7kbYxonw3EkGe6t/ZEJMFWWnEEIIIYQQQhSCEwF2hT81IaaKhL8QQgghhBBCCLHHSPgLIYQQQgghhBB7jIS/EEIIIYQQQgixx0j4CyGEEEIIIYQQe4yEvxBCCCGEEEIIscdI+AshhBBCCCGEEHuMhL8QQgghhBBCCLHHSPgLIYQQQgghhBB7jIS/EEIIIYQQQgixx0j4CyGEEEIIIYQQe4yEvxBCCCGEEEIIscdI+AshhBBCCCGEEHuMhL8QQgghhBBCCLHHSPgLIYQQQgghhBB7jIS/EEIIIYQQQgixx0j4CyGEEEIIIYQQe4yEvxBCCCGEEEIIscdI+AshhBBCCCGEEHuMhL8QQgghhBBCCLHHSPgLIYQQQgghhJgV58+f755++unuiSee6M6dO9e99tpryyVH+HVefPHFZWmbTEL4v/zyy93Zs2e706dPd2fOnDkMfMrzzz9/uAzrIPDRgRFCCCGEEEIIIfqAiD9x4sSaQegb0Kjp8scee2y5tD12LvyjgMIg7g2cCEiX4wSAEEIIIYQQQgjBAC0JTXnq1KlD3Xny5MnDv3Ex2rAyXHyG4Dcd6k8OtMTOhT8CbUHHmRcfVMP+xm0WuPJvf+OkgRBCCCGEEEIIUYoJf7t93zQpRD6AuDfNaeCkAP6GJm2RyQh/u23CbrvAGRZgdwTY38BODvi7AoQQQgghhBBCiCH8xWf8267u4yIzME3q7zK3bfxdAS2xc+Hvz6bYmReYPeffF3Q7IyOEEEIIIYQQQpQC0W/aE+YFfZ8G9WUtsXPhD+y2CTMcBLuNnwm6r6PPhBBCCCGEEELsB5Hm85Zid5BDT/or/vg3kPCvgA8gAmx/2639Ev5CCCGEEEIIIXJEms9bipXbl+JMc5ZoUN3qvyEIJgKI4Br4G4ar/n1Bt/cCGLbdkAkhhBBCCCGE2A8izectxcpT4W/r+i/PGXq53zEx4W8BRPAtyHj+378DwA6MbRN97z+H1QETQgghhBBCCLEfsFrPbu1PX+7n3yHny/yX5/Q5vw2xq/cwE/QwHATDyhF8/xIGOxFQgm0DE0IIIYQQQgixH7Baz1/RN4PW9KI+Wie947wlJqGC/RkUmH+5H4DA94IfxlztB35bIYQQQgghhBD7wSZaDxoTd53jQjS0ZXRRGScCbB3/aHqLTEYFI6gIphf8KViGdZgr/cYmySCEEEIIIYQQYtpI6w0zm8goGYQQQgghhBBi/5DWG0bCXwghhBBCCCFEs0jrDSPhL4QQQgghhBCiWaT1hpHwF0IIIYQQQgjRLNJ6w0j4CyGEEEIIIYRoFmm9YfY6Mj4BvAkhhBBCCCGE2A+k+YaR8BdCCCGEEEII0SzSfMNI+AshhBBCCCGEaBZpvmFmExElgRBCCCGEEELsH9J6w0j4CyGEEEIIIYRoFmm9YST8hRBCCCGEEEI0i7TeMBL+QgghhBBCCCGaRVpvGAl/IYQQQgghhBDNIq03jIS/EEIIIYQQQohmkdYbRsJfCCGEEEIIIUSzSOsNI+EvhBBCCCGEEKJZpPWGkfAXQgghhBBCCNEs0nrD7HVkfAJ4E0IIIYQQQgixH0jzDSPhL4QQQgghhBCiWaT5hpHwF0IIIYQQQgjRLNJ8w8wmIkoCIYQQQgghhNg/pPWGkfAXQgghhBBihrz44ovd2bNnu9OnTx/aY4891p0/f365tJyXX375cHv8v4Rz584dri/G4/nnnz+M6xikdbVwvKT1hpHwF0IIIYQQYsc891zX3Xln173xjZi3dt373991Dz7Yda++ulxhRF577bVDIYd58dNPP314AgBi78yZM4dlrIDE9tgO/y8BJxdK1xXDWPyfeOKJZcnmRHW1cLywz2YiRsJfCCGEEEKIHQFhj4upb3rTQvB7u/TSrnvrW3EFdrnySJjoxwmAFBP/zJV/E4sS87uhtvBvAeyzmYiZTWSUDEIIIYQQYmrcdlvXXXbZkdiP7Npru+6FF5YbHBMTdrmr+hD8EP9exKMMjwHghAEMjwf45VZnuo09RoD6cEeBkd46jn+n+5Nbx8phuFsB2N0KKINgjU5oeLAc66X1ePA7Vmf6CIQ92gB/rZ7URwPrWD2IR/o4hI8t1svFwcfT14P/nzp16jD+J0+ePFwOUCf8srpNyMN3lKMM5n8zV5ftgwd++f3xxx7gd2Hef/w9dGw2BftsJmJmExklgxBCCCGEmBLf/nbXvfnNRwK/zw50WPfjHy83PAYQX5gPeyHbB8Qg1od4g4gzIefrQBn+NvEHAey3gXDE3yawIULxt4F/mzA1onVgVifqwt8QlBCr+E37HQjRHNhnrGPbwPBv1GuY+EV93l8T2+YvxDH2E3/jN1Hmxb/F2tYxn6yeXJz8/ts22CfbH9s/+GJC3rbDcoC4WJnFButiWxjK/D7Z8qguW8fI+YU6DPt9/B+/Zb7it2uAus1EzGwio2QQQgghhBBT4j3vwRy1zK65puuefXa54TEwQVYKRGkk1lAHBB+A+MPfJhQhiL2QBl48pkLS12VE66T7gb9R7q8imyjNAUGL/fPb2P5DkJv4Nl8MxA3bAVs/3Wfvt51gsJMdBuqxdbA+/vZY3RDKwOLg9yetO9qf6DibqPe+A6xr+xHV5Y+F/Xbqu62D5cB+3/+WxdZOfIwJ6jUTMbOJjJJBCCGEEELsikcfxXx0XLvxxmXlBJEg7AMiza4sQxRCvPkrvsDEIv6P9fFvE66GbY//eyEJfF1GyTpesBrpdilYhv1Pwb7BT4hyE/geE83wz/vr8fuTE9n4DWxndfir5AbK7ap/zh+UWTysLh+fKDb4bRPd2AbHyOq3daO6/D6YXybwDTvudjIi+n2rG/8fG9RrJmJmExklgxBCCCGE2BVTEf4QlMx8GIIOAs7m0fi3ib9UeOL/JeLOC0ng6zJK1onEZbpdSlSPJ6oTlPjotx3aD6sDdy3YdmYoH6oHZeaH1eX9sro8OAlhx99+AydBbB9AVJffh9z+AL9d9Pu5uI0B6jUTMbOJjJJBCCGEEELsiqkI/9yt7B5c9fZXbqP1UWYizws6/+8cqXj0dRkl60TiMt0uJarHE9UJ7Bn1Ph/9tkP7YXUgzlanN7syn6sHZeYH1vd/g8gPq8uOreHXjery++D/7cFJBb9d9PtWN/4/NqjXTMTsdWR8AngTQgghhBBi1+Bb/Zialhg+94dv/R8XE2jpM/hGKvzw7/TWeNzm7dfxgs6WpeLS7hzA/1Px6Osy0jsTonUicZnWneKfw/egHv8YQ3qLvpWDnID1+5N7nh3lWCcXJ+BPvOT8QZnFIz0ewO+Lgb+j9zX4dw1Edfl9sBMg6aMc/sQIiH4/F7cxQL2piVX2OiJRAsCEEEIIIYTYNdBO0ff7I7vlluVGI2CiFILOC1yIVJRDHFq5/W2gHMLUtgepoDPRDhFp2DbY3gtJkL7kzvbDr4N/ezEKInGZ1p1ivnvhCpGNMuy/CV97xh7Y/tgJkJyATffH/LJY4v/eV4uJPzlgJxisLOcPynw87G/7rXRfgD8GhtXv103rSvcBPvgcwf/xt8+T6PdzcRsD1JuaWGWvIxIlAEwIIYQQQogpAG105ZWYt+bt7W/vuh/8YLnBSED4QsBhbgyBBtGGf0PwemFoV3JNsNo6WN+EXSrosL2JTKyDbWE5MWvb22/g/7a9gX9jOw/WtX0w0rojbB0Tq/g3TggYFhvbHyz3dz3kBGy6P/DX6rd68H8vmO0kCcqjfcn5gzIfD9sW+wzSfQE4qYHl9nvmXxrrtK50H+AXtrN67P8+b/A3zJOL2xig3tTEKrOJiJJACCGEEEJMDXyb/8tf7rprr8V8ddWuvnrxyb+XXlquXAGIQQgxmBduHpSn69h2wJan29s6/oo28Nt6UGbl6Tr4N8o8qLe07hTvUw5bnvqV8zfaH4AyrJ/uv9G3L32xSuvzdeT2Bdh6tn3kj68rtw99fkW/n4vbGEjrDTObyCgZhBBCCCHEVMEV/S9+cXFL/3XXdd2dd3bdk08uFwohepHWG0bCXwghhBBCCCFEs0jrDSPhL4QQQgghhBCiWaT1hpHwF0IIIYQQQgjRLNJ6w0j4CyGEEEIIIYRoFmm9YST8hRBCCCGEEEI0i7TeMBL+QgghhBBCCCGaRVpvGAn/CfGFL3TdRz+6bjfeGJdjfSGEEEIIIYSYMy1ovV2z15HxCeBtquD7rc8/v27Y5agc6wshhBBCCCHEnGlJ8+0KCf8GaHCXhRBCCCGEEGIr7IPmq42EfwM0uMtCCCGEEEIIsRX2QfPVZjYRaTkJlLdCCCGEEEIIEdOy1tsWEv4NoPwVQgghhBBCiJiWtd62kPCvyKuvdt2jj67bQw8tLFqGbVKUv0IIIYQQQggRswut1xoS/hV56aVY3H/kIwuLlmGbFOWvEEIIIYQYkxdffLE7e/Zsd/r06UN77LHHDsta4OWXXz7cZ/wfYN9h2+S11167ELtW4rbP7ELrtYaE/w4wkV+K8lcIIYQQYs/A1R5M8hj75CeXGx8PiGTMiZ944olD0QrDv1GGkwFTB/uLfTXBjRMAdhJgW5w7d+5wH06dOtVEzPYdHAszETObyEwpGST8hRBCCCFmzvPPd92b3rSY6JXaLbcsN96c8+fPH1R14lC4ppiY3baIZkmF/y6A4D9z5syFEya4A0DsDhwDMxEzm8hMKRkk/IUQQgghZs6OhL+J5ufx+wkQr1huItZuoce6ELm4rR1C14tcu+0e29mt7zi5AFBmjxPg/5FQ9+vA8Hu2vYF17Pdtf+CD1Wf7aWA9nMSAWb1PP/30cukRUb3499CJDyzH76N+O5GS1t8XF/wfv4cy/H50EqYkLuIIHAMzETObyEwpGST8hRBCCCFmzo6EvwnVkydPhoLTA8Fp60IUw3ClG2biHwLV5thYbicG7Eo4/o917G//m/i3X8fqx+8Z6TpWDwx/AxPHhi23kw0Q5fjbnxxI68Uy287qzYF6sZ7FIN1ngDqsPh8X/BtlEPxYx/YDdRolcRGrWKxhImY2kZlSMkj4CyGEEELMnAMxtwvhD0xYmkE0Q2SmV5RN+Psr4HbiAOsDE7j+ine6joG/UW6CGf/2YhxYffg/1ovWsXqwDoiEv/8bmFgHuXohxn29EbZtJNT9duZHeicAxHu6b7YuBD7Av/viItZBbMxEzF5HxieAt10j4S+EEEIIMTMw+cOkbky78cZl5TwQsBCsJnbNvOBMBbWBMlyBBpEgNWGenkjwt8gDbIP9wHr4N0SyF992ddzXDaweK0/3E8tyJx0Atovqzf2eJxL50cmA6DeszPz3+O2xXl9cxDqITWpilb2OSJQAsF0j4S+EEEIIMTMmJvxTIHohnjFXNmGaCmrD1gMmZr0gNZFt23tDuYly/CaugKMM/4e4xYkHq8/qicSuL7e6Df8bhhf+uXrxd+73DJzwwDreJxjKYBDsIKrLylBHtD3+D4biItZBbFITq+x1RKIEgO0aCX8hhBBCiJkxEeEPAZneRm7YlWsToCZKU1AGQQoigeuFdWS4km2/BRHs7wzActvWns3Hvz22rZWn+4llfcI/V6//7Qi70wDxwzre7E4Au7UfZWldVoZ1bDtvqL8kLmIdxCY1scpsIjKlJJDwF0IIIYSYOc/v5hl/u3JsV6ZTsMxuOfcC32NXoUEkSE0E+3cDAAhZ1Il1bTtc3fb4W+nTRwOM9JZ8Vvjn6vW/HWHvCcjFDnHpOyEC/1FmJwc8iKedEMA6fXER6yA2ZiJmNpGZUjJI+AshhBBCzJwdCf/cFWVgJwWsHGIaf3uBnF4tjwQufgMCGL9hIhn/txMJ+Le/em7gd7Hc12fb2D5hW9SbrsMIf4D10/1LfzsFy+yER4T9BraHRXVhe5T7kyIWd5SVxkWsgtiYiZjZRGZKySDhL4QQQggxc3Yk/AHEJYQv5sUQv/ZviEsvSFGOMhjWM8HtTwTkBK7/DV+Pr9+Est8HKzPhbicMrB7/f/tN/A0z/PaG1WtE9doV/Uhc2xV373sKBLrVk4sLftd+B78bxbQkLmIVxMZMxMwmMlNKBgl/IYQQQoiZs0Phb0CEQpjC7Iq6B6ITBmy9FKsD/49AvVjuBb/Hlvu6sW66vq2H/6e/ma5v63ls+xRsZ3Xh/9AK6bYgt30K1vH15eJiy3N12u/55VFcxIIpab2pMpvITCkZJPyFEEIIIWbOD37QdZddtpjoldrnPrfceDt44b9PQDzDr1R04zb8ffR3DkxJ602V2URmSskg4S+EEEIIIabOvgp/YM/V+9vp8f/cFXoxbaak9aaKhP8OkPAXQgghhBBTZ99vLfe320e394t2mJLWmyoS/jtAwl8IIYQQQgghxmFKWm+qSPjvAAl/IYQQQgghhBiHKWm9qSLhT4IXsJpw93b//XH517++3NBhy0o5bv7++Mddd/31i3pK7cEHlxsLIYQQQgghxIQZS+vtM3sdGZ8A3o7Ds8+uCnuzG2/sunvvXS9//PGF8PbYslKiXX711cVJiNS++924HJbyyiuL/RZCCCGEEEKIVhlb8+0jEv4j8dGPxuI6YgzhjxMQ+M3Ubrih626+OV4Goe+R8BdCCCGEEEK0zrY0X8tI+I8EhPU2hX+O++7ruqeeWv4xgIS/EEIIIYQQonW2pflaZjYRqZ0EEv5CCCGEEEIIsX1qa719QMJ/JCT8hRBCCCGEEGL71NZ6+4CE/0hI+AshhBBCCCHE9qmt9fYBCf+RkPAXQgghhBBCiO1TW+vtAxL+IyHhL4QQQgghhBDbp7bW2wck/EdCwl8IIYQQQgghtk9trbcPSPiPhIS/EEIIIYQQQmyf2lpvH5DwHwkJfyGEEEIIIYTYPrW13j4g4T8SEv5CCCGEEEIIsX1qa719YK8j4xPAWw0k/IUQQgghhBBi+2xL87WMhP9ISPgLIYQQQgghxPbZluZrGQn/kZDwF0IIIYQQQojtsy3N1zKziUjtJJDwF0IIIYQQQojtU1vr7QMS/iMh4S+EEEIIIYQQ26e21tsHJPxHQsJfCCGEEEIIIbZPba23D0j4j4SEvxBCCCGEEEJsn9pabx+Q8B8JCX8hhBBCCCGE2D61td4+IOE/EhL+QgghhBBCCLF9amu9fUDCfyQk/IUQQgghhBBi+9TWevuAhP9ISPgLIYQQQgghxPaprfX2AQn/kZDwF0IIIYQQQojtU1vr7QMS/iMh4S+EEEIIIYQQ26e21tsH9joyPgG81UDCXwghhBBCCCG2z7Y0X8tI+I+EhL8QQgghhBBCbJ9tab6WkfAfCQl/IYQQQgghhNg+29J8LTObiNROAgl/IYQQQgghhNg+tbXePiDhPxIS/kIIIYQQQgixfWprvX1Awn8kJPyFEEIIIYQQYvvU1nr7gIT/SEj4CyGEEEIIIcT2qa319gEJ/5GQ8BdCCCGEEEKI7VNb6+0DEv4jIeEvhBBCCCGEENunttbbByT8R0LCXwghhBBCCCG2T22ttw9I+I+EhL8QQgghhBCiGW65ZSE0Su2ee5YbTo/aWm8fmE1kaieDhL8QQgghhBBiVDBhh8hI7bvfjctfemm54TFoUDzX1nr7wF5HxieAtxrsk/B/9tmjffT2mc903SOPrJc//njX/fjHy42FEEIIIYQQ44DJNoRGaldf3XW3375ePsZV+Up6qSbb0nwtI+E/Emhn+yL84Yfto7c3vanrHnhgvfzrX19uKIQQQgghhKgPJvGYzNegkl6qybY0X8tI+I/EPgn/HDX7FyGEEEIIIZrk1VcXQiC13O34sOMi4b/CtjRfy8wmIrWTQMJfCCGEEEJU5YUX1gUkLCcwf/jD5YZ7yoMPLibKpXb99XWeT8Vzsnarvbcbbui6m2+Olx13Ur1t4Q8f03gO2RjvGyikttbbB2YTmdrJgPaL/rUECX8hhBBCCEGBq8p33bUuID/0oa679tr1ctiTTy43nhlTmbTmJuYQxOlJGljuBE7ky7aFfw5W2FSittbbByT8RwJ9K9plCRL+QgghhBDi8Ip8KvJgOQGIK/4pKMdEVBwxdeGPF/D5EzQwvKgPL+xLy2GRcJDwX6G21tsHJPxHAm0S/W4JEv5CCCGEEOLwinwq8mC4go8r+Wk5rvjjyr9n6sIfb4HGZLbUrrzy+I8oTF34R0xpYo7jUIqEfzNMKjIvvvjioeV4+eWXD5e/9tpry5JyaicD+lsJfyGEEEIIcWyYiWWrV/yZSStLNGnF3RKIU2q33LKwaFl0hwXDtifm+Dvy48Mfzr9rAM/upzDio2HhD0352GOPdadPn+7OnDlzqDVTnj9oX1iGdZ544omNdOhUmITwR0D9wTp16tRKUPFvlPl1zp07t1xaht+2Bmg3Ev5CCCGEEOLYMBNLCf91okkrXuqHWKV2770Li5Yd90WAu5iYR3489NDibpFoWXoHCWDER07Y4E4PW+bt/vvjcuzLMWC1HvSl38bs/PnzyzW6Q72ZLscJgFbZufBHcC2QXtyfPXt2uUZ3GGCUnTx5cmUd5oyLbQOrgYS/EEIIIYQYRfBsW/izV8NvuqnrzpxZ94XxcdvCP4ftYw2mMjHHPmBfSmHERxQ/nDB5/PGjZWYPPNB1b3rTejksuvOAgNV60JpYF1fzcUe56U3cAWBYfU8//fRBCh9dqI7uDGiBnQt/BBcBxK0TAIG0WymAPxtjQt8ODHPV3+qA1QB9YGn/bPldCrPLEv5CCCGEEDtiLMHDTCzHEP7M1fDvfa/rPv/5rnvkkVU/WB8l/FfZJ+Gfg/WRgNV6tq7pS1yM9o+cQ5NiOS48G6lubY2dC38T8QguLH3GH39jOdYzEGyU+TMyQ2B9sxpI+AshhBBCiBB20jWG8Meb4zGJLDVc2U+pKeqiSSvqgC+psc+oM5NWdmLOIOG/CutjRObk2t882GdG62E93EmOC8nQmekz/n0aFOu2CHFU62DC3/5vB8EC3xd0XwZs+yGrAfodCX8hhBBCCLEGO+liJpY54Z+DmVgyk1bWx9ykFf6kxj6jzkxacz5+4QtHJxe8oe6oHOunSPivwvqYI3ic5reXOi9nKdE6MLsIzWjQVqijggm84Pf/hvgHEv5c25PwF0IIIcTseOmlxYSJsdJnilG3ExgX7EtfWr/dHYarkelL4dhJFzOxxHpYvxT4Xor5VALrIzNpZYUrM2nN+fiDHxydXPCG+EXlWD9Fwn8V1keCGw/2OdJ9ZilWDl0JvYmr+Pjb9KWEfwUQOAQQL0wA/pl+e9YiF/T0NgvbbshqIOEvhBBCCDEx2ElXBCZ4Vo833Bp/993xsvQqNDvpkvBfZRfCP0eLE3MJ/+VaR6TlpjmtrE+DMo+bTwniqNbBzq4guIYFHWUW9OO+WMHqhNVAwl8IIYQQYmKwky6GmpMuCf9VWOHKTFrZHGlxYs7Gb9s5glv38ZulduWVXffDHy43XuCFfwn2pTh7vNze2m+a03957jgvmJ8SZZGpiH0fEcGHyMfnEizIhv19nE8p2DawGkj4CyGEEGJr4DZ1m1B4y31OrXRysG+Y/zWoOemS8F+FFa7MpJXNkRYn5mz8GswRVvj7b/SboIf5C8tWfpxPyk8J4qjWwwfSDCLf8AfGzN92UYLftgYS/kIIIYTYGhjsbULhDZOGqBxX1OaI+Z+Se377u9+Ny7f9/LaE/ypYjxGuzKSV8RG0ODFn49dgjrDCH9hd5GbpY+QQ+KlObfVqPyCOaj0QVJxdgZhHwO15fw/KsAzrYF32TIs/YDWQ8BdCCCHECk8+uZggpPa+93Xd7bevl+Ot5dEbyhkqzXOaJTfpyr2x/dJL4/Jtv7EdvynhfwQrXJlJK+MjaHFizsavwRzZRPgDe6cc/p/DPjnf6pV+Yzajg4T/OjX7FyGEEKIXPJ+JgTO13BXXF15YbtgQOR/xUjhcgU/Lx/AxmjTUfON9TcbIkVYnXRL+q7DClZm0tpojjI9s/BrMkU2F/5yYTWQk/Nep2b/kGOOTqEIIIfaA3NXwa6/tug99aL18jKvhUwH+lE4aWJhJAzshicAJgvRYwW6+ues+/OHVslOnFgP+Aw8c/TYM32i/997VMtgv/uLiJImvA8bkiNVVylQmXfBHwv8IVrgyk9ZWc4TxkY1fgzki4T/MbCIj4b9Ozf4lxxifRBVCCLHHMANqDgxW6YACy10pxhXxbTKGjzmYSQM7IYmA0E7jCYMIh6D3Zd/7Xtd9/vNHv2sG0Y9JRloOi47NHCZdjI9YD+uXUitHKoo6Wrgyk9ZWc4TxkY1fgzki4T/MbCIj4b9Ozf6FRW1UCCHEIWOIYgyyqCe1q6+On62/557lhlsCv3lcH3MwAyo7IWFgJiSscGXi1+qki/GRjV+tHKko6g7Xw/qlMJPWVnOE8ZGNX4M5IuE/zGwiI+G/Ts3+hUVtVAghJghu40YHzdhxr54zAypLzYGMIfIRV85tguAtdxs8LIoTjkEpVk8NmAkJK1znMOlifGTjVytHKoq6w/WwfilMW281Rxgf2fg1mCMS/sPMJjIS/uvU7F9Y1EaFEKIhmMGGJRpQx3o5XTSQ5W5Vzz0WADsukY8//nHXPf740STBjL0NHr6XYvXUgMkRxIIRrnOYdDE+svGrlSMVRd3heli/FGbS2mqOMD6y8WswRyT8h9nryHix760GcxiDmP6FpdJhEUIIkYLb2jFoebvjjq5773vXy2HRgMUMNiz4zdIBlZ3MRgNZ7uV0N9yweEFdtOy4gyHqaE3UsTA5wvrIxK/VSVeLOcL6yMRvjLaeo9UcYXxk49dgjnjhX1PztcxeRyQ9+GY1mMMYxPQvLJUOixBCtAnEOTrGUsObz0vBVWIMWN6eeabrrr9+vRwWdfzMYMPCDKjsZJYZyHI+ItbRMchZ9P6AFkUdC5MjrI9zmHS1mCOsj0z8arb1VnOE8ZGNX4M5IuE/zF5HJD34ZjWYwxjE9C8slQ6LEEJMBwwSkeVuKY8+XRd1xGPcBl9xMkbDDKjsZJYZyGoOqFMXdWOc3GDix/o4h0nX1HMkomY/UrOtt5ojjI9s/BrMEQn/YWYTkdpJMIcxiOlfWNQ2hRB7DTpPDBSp4VZy3FIeLSt9Rj0HM9GrOBmjge+lAyo7mWXiV3NAZXycg6hjfWTi1+qkSzmySs223mqOMD6y8WswR/SM/zCziYyE/zo1+xcWtVEhRHN8/euLzqvUrryy6374w+XGS2pOZpm6x5iM4Q4FfLsdA6I3fD7vfe9bL4c9+eRyYwfKSwfUmvGrOaAyPs5B1LE+MvFrddKlHFmlZltvNUcYH9n4NZgjEv7DzCYyEv7r1OxfWNRGhRA7J/dW9Uce6brPfGa9HBZdlWcGhJqTWabusSZjL7yw8N0bTpDg1vG0HJaeCAFTiV/NAVWibhXWRyZ+jI9gKpMu5cgqNdt6qznC+MjGr8EckfAfZjaRkfBfp2b/wqI2KoSoAoQ5OhjG7r//qKOG9X1OLer4mQGh5mSWqbviZIwWJVOJX80BlfGRjR9yuBTL4xJazRHGR8DETzmySs0cqdnWW80Rxkc2fg3miIT/MLOJjIT/OmP0L7iz0/zx9tBDi7lytCyKk9qoEGKrWIdUAjupZgaEmpNZpu6Kk7Fm41dzQGV8ZOPHDKhMO2g1RxgfwVQmXcqRVWq29VZzhPGRjV+DOSLhP8xsIiPhv84Y/Uvuzti7717c2ZmWw/AC6hS1USHEVrEOqYSaoqTmZJapu+JkrNn41RxQGR/Z+DEDKtMOWs0RxkcwlUmXcmSVmm291RxhfGTj12COSPgPM5vISPiv02r/IoRoAHQW6BRTy326LjojWBOmI8b+1RIlbGdZqyOuOBlrNn6Mj2z8GB/Z+DEDKtMOWs0RxkcwlUmXcmSVmm291RxhfGTj12COSPgPM5vISPiv02r/IoRoAHRy6BhTu/rqxVve0/LoO+A1YTrimqKE7SxrdcQVJ2PNxo/xkY0f4yMbP2ZAZdpBqznC+AimMulSjqxSs623miOMj2z8GswRCf9hZhMZCf91Wu1fhBANw3QkNWE64pqihO0sa3XEFSdjzcaP8ZGNH+MjGz9mQGXaQas5wvgIpjLpUo6sUrOtt5ojjI9s/BrMEQn/YfY6Ml7se6vBHMagqfQvQoiGYTqSmjAdcU1RwnaWtTriipOxZuPH+MjGj/GRjR8zoDLtoNUcYXwEU5l0KUdWqdnWW80Rxkc2fg3miBf+NTVfy+x1RNKDb1aDOYxBU+lfhBANw3QkNWE64pqihO0sa3XEFSdjzcaP8ZGNH+MjGz9mQGXaQas5wvgIpjLpUo6sUrOtt5ojjI9s/BrMEQn/YfY6IunBN6vBHMagqfQvQoiGYTqSmjAdcU1RwnaWtTriipOxZuPH+MjGj/GRjR8zoDLtoNUcYXwEU5l0KUdWqdnWW80Rxkc2fg3miIT/MLOJSO0kmMMYNJX+RQjRMExHkgPfCkWnUWrRiwOZjrimKGE7y1odccXJWLPxY3xk48f4yMYPOV8K0w5azRHGR8DETzmySs0cqdnWW80Rxkc2fg3miJ7xH2Y2kZHwX6fV/kUIsQN+/OOuu/76RWMttQcfXG7sYDoSFvxmKUxHXFOUsJ1lrY644mSs2fgxPrLxY3xk41erHbSaI4yPgImfcmSVmjlSs623miOMj2z8GswRCf9hZhMZCf91Wu1fhBATgp1wRh3Jq68edYzeHnqo6x54IF4WdUZMR2L1lMD6yAwIbGdZqyNmBwRmsGk1foyPbPwYH9n41WoHreYI4yOYyqRLObJKzbbeao4wPrLxazBHJPyHmU1kJPzXabV/EUJMCHbCGXUk+Ns6Rm933724rT9a9tJLy40dTEdi9ZTA+sgMCGxnWasjZgcEZrBpNX6Mj2z8GB/Z+NVqB63mCOMjmMqkSzmySs223mqOMD6y8WswRyT8h5lNZCT812m1fxFCjAQaKjqv1D7wga47dWq9HM/K4+q8h51wtjhRYX3EuqUDAutjrfhVnIw1Gz/GRzZ+jI9s/Gq1g1ZzhPERTGXSpRxZpWZbbzVHGB/Z+DWYIxL+w8wmMhL+67TavwghRgINGh1XarjK/vWvx8tSUMZMOFucqLA+MgMC62Ot+LEDAjPYtBo/xkc2foyPbPxqtYNWc4TxEUxl0qUcWaVmW281Rxgf2fg1mCMS/sPMJjIS/uu02r8IISpTc8LZ4kSF9ZGJH+tjrfhVnIw1Gz/GRzZ+jI9s/Gq1g1ZzhPERTGXSpRxZpWZbbzVHGB/Z+DWYIxL+w8wmMhL+67TavwghKlNzwtniRIX1kYkf62Ot+FWcjDUbP8ZHNn6Mj2z8arWDVnOE8RFMZdKlHFmlZltvNUcYH9n4NZgjEv7DzCYyEv7rtNq/CCEqU3PC2eJEhfWRiR/rY634VZyMNRs/xkc2foyPbPxqtYNWc4TxEUxl0qUcWaVmW281Rxgf2fg1mCMS/sPsdWS82PdWgzmMQVPpX4QQlak54WxxosL6yMSP9bFW/CpOxpqNH+MjGz/GRzZ+tdpBqznC+AimMulSjqxSs623miOMj2z8GswRL/xrar6W2euIpAffrAZzGIOm0r8IISpTc8LZ4kSF9ZGJH+tjrfhVnIw1Gz/GRzZ+jI9s/Gq1g1ZzhPERTGXSpRxZpWZbbzVHGB/Z+DWYIxL+w+x1RNKDb1aDOYxBU+lfhBCVqTnhbHGiwvrIxI/1sVb8Kk7Gmo0f4yMbP8ZHNn612kGrOcL4CKYy6VKOrFKzrbeaI4yPbPwazBEJ/2FmE5HaSTCHMWgq/YsQojI1J5wtTlRYH5n4sT7Wil/FyViz8WN8ZOPH+MjGr1Y7aDVHGB/BVCZdypFVarb1VnOE8ZGNX4M5omf8h5lNZCT812m1fxFC9IBGis6o1KJGXXPC2eJEhfWRiR/rY634oc5Kk7Fm48f4yMaP8ZGNX6120GqOMD6CqUy6lCOr1GzrreYI4yMbvwZzRMJ/mNlERsJ/nVb7FyFED2h46JBSu/LKuDxqqCivNeFscaLC+sjEj/WxVvwqTsaajR/jIxs/xkc2frXaQas5wvgIpjLpUo6sUrOtt5ojjI9s/BrMEQn/YWYTmRaF/0svdd2TTy7a3te/3nUvvLBc0ENJ+3juua675ZaFDkDd113XdR//eNf94AfLFTJMpX8RQmwA08hqTjhbnKiwPjLxY32sFb+Kk7Fm48f4yMaP8ZGNX6120GqOMD4CJn7KkVVq5kjNtt5qjjA+svFrMEck/IfZKDLPH3Qwjz32WHf69OkLATZDGZZhnSnh97EGY45Br77aHcSx6665puuuvnrR9q64ouve9Kauu+22rvvhD5crBvS1jx//eFEv6kGdqV17bdd97WvLlQOm0r8IMTnQMO66a9EReEODxVm2tByGM3Al4AxgtP2tty4sWoZtUphGhjpqTThbnKiwPjLxY32sFb+Kk7Fm48f4yMaP8ZGNX6120GqOMD4CJn7KkVVq5kjNtt5qjjA+svFrMEck/Icpjsxrr73WPfHEExcCWmInT5483Abb7hq/XzUYawzCVfc3v7nrLrts0eYie8tb4nk96GsfEP2XXhrXafbGN3bdt7613CBhKv2LEJMDZ9XQAaT20EOLEwLRsr4zeB6cCYy2v/fehUXLsE0K08hqTjhbnKiwPjLxY32sFb+Kk7Fm48f4yMaP8ZGNX6120GqOMD4CJn7KkVVq5kjNtt5qjjA+svFrMEck/IcpjowX/WfOnOmefvrp7sUXX1wuPQJlWIZ1bH1su2tsX2A1GGsMwsVB7OKQvfvdC62Rkmsf2Lfclf7Urr8+1iRT6V+EaAa2ITAwAy1gGlnNCWeLExXWRyZ+rI+14ldxMtZs/Bgf2fgxPrLxq9UOWs0RxkfAxE85skrNHKnZ1lvNEcZHNn4N5oiE/zDFkYGYh4A/f/78smQYu0sA2+6aFoQ/8vr1r1+0tSHD8/m4mJiSax+44ziqJzLcFfD448sNHVPpX4RoBrYhMDADLWAaWc0JZ4sTFdZHJn6sj7XiV3Ey1mz8GB/Z+DE+svGr1Q5azRHGR8DETzmySs0cqdnWW80Rxkc2fg3miIT/MLOJTAvC/5OfXLSzUsPdASm59nHVVXEdObvzzuWGjqn0L0JsBbxRM20YfYazcemtMmxDYGAGWoB9LKXmhLPFiQrrIxM/1sda8as4GWs2foyPbPwYH9n41WoHreYI4yNg4qccWaVmjtRs663mCOMjG78Gc0TCf5jZRKYF4Y+362P3Sg1X5lOi9gEtYi8JLLUbblhu7JhK/yIaA8+k4BYSS3yzRx7pui99ab0clnuJxRRgGjvbEBgsVqUwjazmhLPFiQrrY80cqRW/ipOxZuPH+MjGj/GRjV+tdtBqjjA+AiZ+ypFVauZIzbbeao4wPrLxazBHJPyHGT0yuLUfFj3/v2282PdWgzHGoPe8Z9HOSg1X8VNy7YM9qYC7D1Km0r+IxsCL5izpvd199+K2lWhZaWPaBUxjZxsCg8WqFKaR1ZxwtjhRYX2smSO14ldxMtZs/Bgf2fgxPrLxq9UOWs0RxkfAxE85skrNHKnZ1lvNEcZHNn4N5ogX/jU1X8uMHhEL9NRe6OetBmOMQV/84qKdlVp0O36ufeA7/VEdkeHugCefXG7omEr/IvYENknGAHcSoKGWWvR2fKax1/SRGWgB08hqTjhbnKiwPtbMkVrxqzgZazZ+jI9s/Bgf2fjVaget5gjjI2DipxxZpWaO1GzrreYI4yMbvwZzRMJ/mNEjoiv+w+TaB7YvffP+xRd33a/92nJDxyc+0XW/9VvLPxyf+1xcT2QnT8ZfDJhK/yL2BDZJjgtEPBpqavgWPm6JiZbhOf8UlJc29pyPePQh/S3YzTd33R13rJejjrRRMgMtYBoZfrPWhLPFiQrrIxM/1sda8as4GWs2foyPbPwYH9n41WoHreYI4yNg4qccWaVmjtRs663mCOMjG78Gc0TCf5jZRKR2Eow1Bn3mM113ySWL9jZkeJfYs88unuHHFX0883/55YtyfI//y19eaJ177om3j+wtb+m6F15Y7kzCVPoXsSewSVKLmhPOnI8/+MGijtTwLc1nnlkvjxolM9ACppHVnHC2OFFhfRwjR3LUil/FyViz8WN8ZOPH+MjGr1Y7aDVHGB8BEz/lyCo1c6RmW281Rxgf2fg1mCN6xn+Y4sicO3euO336dK899thjk7jSH9GK8IdQv+aaRXuLDKIeV/t9We6N/VdcsTgR4MvwSPW1166WeXvwweWOBEylfxF7ApskEUhIa1DeHnhg8b3LaFl6+37NCSfr41QmKjUnnC1OVFrNEaZu1FlpMtZs/Bgf2fgxPrLxq9UOWs0RxkfAxE85skrNHKnZ1lvNEcZHNn4N5oiE/zDFkcHt+1489xlOEkwNv381GGsMwoU97KLZ6163+D9OBuCKPrbDxcL3v391vRIzUY87BFDPn//zixMDf/bPHq0TfSLQmEr/IvYENkki8My+NShvH/nIwqJlaRLXnHCyPk5lolJzwtniRKXVHGHqRp2VJmPNxo/xkY0f4yMbv1rtoNUcYXwETPyUI6vUzJGabb3VHGF8ZOPXYI5I+A9THJnz588fXs3vszNnzlwI+GuvvbbcchrYftVKhrHGIAhv7CIMuQ6Rj3+nXzf7F/+C+zb/hz+83NBhbQ8XQHEnga2LxwciptK/iD2BTRIGZhCqOeFkfWQaGeMjYBpZzQlnixOVVnOEqdsGhFJQL+ovodX4MT6y8WN8ZONXqx20miOMj4CJn3JklZo5UrOtt5ojjI9s/BrMEQn/YUaPzMmTJw8DPrWr/pYItZJhjDEIghu7B4MQx5V5EO0yfqv0RYAw1Je+G8y3PdwNYOvmrvpPpX8Rlcg9d54zS9BNySWJP/tVYniJRQozCMGXWhNOtiEwjYzxESBWpdSccLY4UWk1R5i6/YBQAupF/SW0Gj/GRzZ+jI9s/Gq1g1ZzhPERMPFTjqxSM0dqtvVWc4TxkY1fgzki4T/M6JHBs/4I+BQ+5+exRKiVDMcdgyDK8V4v7B7MP2sf7TJeNo5n+G39IcOjAuldA77tQcP5q/7Ru8Sm0r+ICiABIaCRyN5uv33xpsi0HPbww8uNN2Qqg1DNCSfrI9PIGB8BEz/GRzZ+LU5UWs0Rpm4/IJSAelF/Ca3Gj/GRjR/jIxu/Wu2g1RxhfARM/JQjq9TMkZptvdUcYXxk49dgjkj4DzN6ZCT8h4naB4Q8dg2GEwD+6ny0y+w3/yH801v407aHtmXrRxdRp9K/iC3CdtAMUxmEak44WR+ZRsb4CJj41ZxwTqUjmUOOMHWzbR31ov4SWo0f4yMbP8ZHNn612kGrOcL4CJj4KUdWqZkjNdt6qznC+MjGr8EckfAfZvTInDp16jDgTz/99LJkGlgi1EqG44xBuNrur/annw6Pdhlf/MKFWNtmyK6+ev3O7LTt4Y4Av016h8BU+hexRXId9BjfoZ/KIFRzwsn6yDQyxkfAxI/xkY3fVDqSOeQIU3euredAvai/hFbjx/jIxo/xkY1frXbQao4wPgImfsqRVWrmSM223mqOMD6y8WswRyT8hxk1Mniu3wL+8ssvL0unge1XrWQ4zhiUPl+f6qNol9FumGf8b7hhuaEjanv+m/9f+MKycMlU+hdRyHPPLRIzNSTZbbetl9911/oBznXQY3yHfiqDEPYP/peCdbFNCayPTCNjfARM/Bgf2fhNpSOZQ44wdefaeg7Ui/pLaDV+jI9s/Bgf2fjVaget5gjjI2DipxxZpWaO1GzrreYI4yMbvwZzRMJ/mOLIDH3H3670w/D3FLD9Sa0Gm45B6bP10Rv1c7v85S+vbpsznCCABkyJ2p7/nKB/wSCYSv8iCsHBQ1KmBoGPb9xHy9KzTnMYhOB3rQkn6yMTP8ZHwMSv5oRTObJKzRxh6mbbOupF/SW0Gj/GRzZ+jI9s/Gq1g1ZzhPERMPFTjqxSM0dqtvVWc4TxkY1fgznihX9NzdcyxREp/Y4/RP9UPuUX7R+sBpuOQf4KOy7CRuR2GRrtfe/rF/94tv/Tn15ukJBre/6l6v4lg9vuX/CoAeKa2q23Lixalj6eIAI0CK1Sc8LJ+sjEj/ERMPFjfGTjpxxZpWaOMHWzbR31ov4SWo0f4yMbP8ZHNn612kGrOcL4CJj4KUdWqZkjNdt6qznC+MjGr8EckfAfpjgiJd/xnxrpwTerQUn/jFx/8snFY9AnT3bd2bOLdmWWE619uwzxjyv/eN7/0kuP6sIz/W95S9d961vLFQNybc9/VhB3C9hF4G33L6++uohpavfeu7BoGbYRA2gQWgWJU2vCyfrIxI/xETDxqznhVI6sUjNHmLrZto56UX8JrcaP8ZGNH+MjG79a7aDVHGF8BEz8lCOr1MyRmm291RxhfGTj12COSPgPM5uI1E6Cof4Z7QEiGoIcuwC7+OKjf//SLy1XDCjZZTxyjfet4RFrXA3HCYb0ZX4pfW3PX/W3lw222L+IAA1Cq9SccLI+MvFjGwITv5oTTuXIKjVzhKmbbeuoF/WX0Gr8GB/Z+DE+svGr1Q5azRHGR8DETzmySs0cqdnWW80Rxkc2fg3miJ7xH2Y2kdml8P/4x7vuda9btKHILrqo6z74weXKAVinlLH6l+jzgi32LyJAg9AqNSecrI9M/NiGwMSv5oRTObJKzRxh6mbbOupF/SW0Gj/GRzZ+jI9s/Gq1g1ZzhPERMPFTjqxSM0dqtvVWc4TxkY1fgzki4T/M6JGxgOs7/gu+/e2ue/ObF+2nz3BiINdmsLyUsfoXCH3/icHf/M3FowN4Ybvd+t/HVPqXvQMHDYlWatGAoEFoFcSp1oST9ZGJH9sQmPjVnHAqR1apmSNM3WxbR72ov4RW48f4yMaP8ZGNX6120GqOMD4CJn7KkVVq5kjNtt5qjjA+svFrMEck/IcZPTIWcAn/Bcy39iH+o2fUsayUMfsXf9X/kksWdybYuwTw4Ya+5+mn0r/sHQgqki01vOExKo8OwphJktLiIFRzwsn6yMSPbQhM/Bgf2fgpR1apmSNM3WxbR72ov4RW48f4yMaP8ZGNX6120GqOMD4CJn7KkVVq5kjNtt5qjjA+svFrMEck/IeZTWR2Ifzxsj68VR8/WWJYl/mcX8RY/Quu6uMrA+k+ml12Wde99a35FxJOpX+ZDUwANQitUnPCyfrIxI9tCEz8ak44lSOr1MwRpm62raNe1F9Cq/FjfGTjx/jIxq9WO2g1RxgfwVTGU+XIKmO0dUxuEavU+t4aHd3mGsUvV3fuE8r4fnYKG7/Ixxxs/BrMEQn/YapFZiqf9DN2IfxxWzxzxR9X0vGCvhQsK2WsMehXf7XrXv/69X1M7d3vjvvEqfQvs4EJ4FhJEtHiIISGW2vCyfrIxI9tCEz8ak44lSOr1MwRpm62raNe1F9Cq/FjfGTjx/jIxq9WO2g1RxgfwVTG08hHvMkZV16wj6X2uc8tN3agvJSp5Eiurd9557rPQ4YrbXjjthnumoT5MisvnZh//vOLN3indVx++Xo5fh9v+H7PexZv0zbDZ7+wvi8zwye8Upj+LBe/HJGPOSaSIxL+w4wamZdffrl77LHHupMnT+pW/wOee27RvvGTJYZ+AW/jT8GyUsYYg3AVH8/zp/sXGfrEqC+aSv8yG5gAjpEkOVochGpOOFkfmfixDYGJH+MjGz/lyCo1c4Spm23rqBf1l9Bq/Bgf2fgxPrLxq9UOWs0RxkcwlfE08hF/MxNLGERjCspLmUqO5Nr6ddet+zymRb6jPOWTn1zfdkzDyQIcf294GReuMqblOEGUkotfDvxmKRPJEQn/YY4dGS/2vbiW8F88A3/FFUdtdsjQpqNb57GslDHGIJzcxN0H6f7l7IYblhs6ptK/TB4825EGdMimkCQ5sC62KWEqSYKGW2vCyfrIxI9tCEz8GB/Z+ClHVqmZI0zdbFtHvai/hFbjx/jIxo/xkY1frXbQao4wPoKpjKeRj/i7ReGPCTH2PbXcbfCwlFxbb1X448VZUXnOsL7dMWCGuwZwa3Fajqty6Te92b4Sv1nKGDmSg2hjEv7DbBSZ8+fPd08//fSa2Dc7e/Zs9+KLLy7XngZ+/2qQG4M+9rHyu7Le//7lRglYVsoYYxB71xRObqQv+ptK/9IsrJNMAMdIkhxYF9uUMJUkQcOtNeFkfWTiVzNHGB/Z+ClHVqmZI0zdbFtHvai/hFbjx/jIxo/xkY1frXbQao4wPoJtj6cQaPAlNQh2vGXZl+HvN7xhsY+lNgXh/9nPlt8GD4NwxZVsT66tz0X4M4ZnddN+ju0rUU8pY+RIDqKNSfgPUxwZE/unTp26ENTUsGxKRPsIq0FuDEJ/7j+Ll7Nrr43vzAFYXsoYY1DfS/0iQ5891ROLzcI6yQRwjCTJgXXTwSbHVJIEDbfWhJP1kYlfzRxhfGTjpxxZpWaOMHWzbR31ov4SWo0f4yMbP8ZHNn612kGrOcL4CLY9nt5++0KopeIXt16m5fibFYxTEP6sKIafaVxzbV3Cf90k/C+YWKU4Irh13wcSV/txiz9u9cfVfZSdxjfeJoTfX2816BuDUN73zDyWnTu3XDkA65Qyxhj0yCPcrf7oc1Om0r80C+skE8AxkiQH1k0HmxxTSZKaE07WRyZ+NXOE8ZGNn3JklZo5wtTNtnXUi/pLaDV+jI9s/Bgf2fjVaget5gjjI9j2eAphjt8sNQn/VebyjD9jEv4XTKxSHBEv/CH6zx0oVXtzv4T/8Bj0n/1nR+0Rj+Tg9virruq6j398/Wp5CrPLY4xB+MIITizb/vYZThDgRaYpU+lfmoV1kgngGEmSA+umg02OqSRJzQkn6yMTv5o5wvjIxk85skrNHGHqZts66kX9JbQaP8ZHNn6Mj2z8arWDVnOE8RFsezxtUfjj+c7XvW79t8ayKQn/Fk3C/4KJVYojAqGfBhN25syZw2f68e+pCX+P3+caDI1BWI6fhv3b/3bXfelLywUFMLs8xhgEPvOZsncT4Fv+6fP9YCr9S7OwTjIBHCtJIrBuOtjkmEqS1Jxwsj4y8auZI4yPbPyUI6vUzBGmbrato17UX0Kr8WN8ZOPH+MjGr1Y7aDVHGB/BtsdTVvizVkP4wxeIy/S3xrJLLll8Lxr7boa/8VysL4Mxt6jOxST8lyUihY7M8wcdrQn9yPAeANz+PzX8PtagbwzCFX38rBm+kT/lMQjg2/zve9/i/Sp+373hroCcz1PpX3YCgmI76e3+++NyvKwnxZaVwgRwrCSJwLrpYJNjKkmC41Vrwsn6yMSvZo4wPrLxU46sUjNHmLrZto56UX8JrcaP8ZGNH+MjG79a7aDVHGF8BNseTyFe8Zu17KabFrHyhvK07KtfXd92V1bz+fepmJ7xL4NoYxL+w2wcGdzmj7sAcMXfi2ozfc7vCHybHz8Lw3pTH4MMiH98ZcW+FIL9wGMK5stf/+vLFQOm0r/sBHyiz3bSG4L4wAPr5fh+IoLtsWWl7CpJUrBuOtjkmEqSoOHWmnCyPjLxq5kjjI9s/JQjq9TMEaZutq2jXtRfQqvxY3xk48f4yMavVjtoNUcYH8G2x9Pawh8TN8w/vKE8Leu70iMb3+Yg/PH5abRTb/haA956npbDor6ZaGMS/sOMEpnoJICE/xFYhp+F4STA1MegFNyx8Nxzi3Hhl3/5yJfc5wfBLvqXycNMOFtLEoPxcSpJgoZba8LJ+jiVHGF8ZOOnHFmlZo4wdbNtHfWi/hJajR/jIxs/xkc2frXaQas5wvgIjjue4kQ+Hn31t6PDbr558fm6tBwvfMJvltocrobPwWoeR7x/Ie3ncn0l1kNbSg31ROVR/xm1MYgHPIaRnmDC1cToZBTKf+Inlhs7oja2yTsm8K1yMY7w99hJADwSMCV2JfzT2/zx97bHoBzsGI51//E/Xj0pjBcBRuT6lxyMj2z8JgMz4Ww5SUp9nEqSoOHWmnCyPk4lRxgf2fgpR1apmSNM3WxbR72ov4RW48f4yMaP8ZGNX6120GqOMD6C446niBMr5hmT8JeNbZjYp0Ic5WkZDN/wTonaGNoB+x6I6DNhuTY2Rt0z5CASZUDI4+39LNhmCicBdiX809v8wbbHoBzsGG7zJfyG+YR/R2AfcssiGB/Z+E0GZsLZepKUMJUkqTnhZH2cSo4wPrLxU46sUjNHmLrZto56UX8JrcaP8ZGNH+MjG79a7WDqOYLH7OA7Y9H+oTzl3Ln1K/UwvGwufQkdruzj5XTpb8mmYThx8jM/s3rMcOs5zJfBou2HLK0jyhH8PvbjDW9YFdW5q+FTO9mTEvUj6C8k/FeYhB5e/n8Q+5wfPuU39AI/LMM6p06dOtxmCrf970r4oxw/CcNJAMCMs4DZ5ZrzFJsvwU/zCScJ08fTAfaBmYsxPrLxmwzMhLP1JClhKkkyxoQzB+vjVHKE8ZGNn3JklZo5wtTNtnXUi/pLaDV+jI9s/Bgf2fjVagdj5Ahue7z99lURBMML6DCRT8vf9a6ue8c71suxLrbxZRBu8J2xyHeUp0zpG+0Qgmnu5HIk2n4fDccnhWnruXYQ/daQpeT6Eeb592uuiX9rV5YSxQ+xZ8U5Hg3wbRqWO7nmXzpWYhMQ/qZD8ZL8XZ0EOIhEGRDz+FyfF9AwlJmZ0E+XT+Et/36fahCN4XgExd8Wj/EO5PqXHMwu15yn+D4Uz/ebX9HvoYyZizE+svGbDGMMQjmCAOJjAXaMvD114r7uvhNPrZUjVy1HL3CcJBliKkmChstMqpkJO+vjlnMkC+MjGz/lyCo1c4Spm23rqBf1l9Bq/Bgf2fgxPrLxq9UOxsgR+MKKgZp2772LffKG8rTsIx9Z37bPal6hlfBftxaFf0SujX32s6vC1wzvjIAI9mWbnABjzf+e/WZ6x8Qm4rymTUj4e9v2SYCDSHBAxD/22GOhyDfDMqwzBcFv+P2rQTSGo53j52C+P2bGWcDscs15iu9D8SJ68+222xZlHuwDMxdjfGTjNxnGGIRyEAH8/k33dd8/s4UkGWIqSZKbMOWIGnsO1seJ5AjlIxs/5cgqNXOEqZtt66gX9ZfQavwYH9n4MT6y8avVDsbIEfgC4Yp9nIKVPtt82WXr2/ZZTeGPEydp7uRyJNp+V1Z6NRd/s4Jx34V/jshH/Bb74rsWjW1jE7nVH/oYd897XWq2De18EInjgWf4zaYk9FN8YGsQjeF33XWUb3abP2DGWcDs8rb6F1wZ9ncz/OAHi3ID+8DMxRgf2fhNhjEGoRxEACX8E3ITphzMhJ31cSI5QvnIxk85skrNHGHqZts66kX9JbQaP8ZHNn6Mj7n43XrrIudLDVfkUph2kPPxa1+Lf09WbpEojh5ngOFRifT2vFyORL+1Kyt9fht/s3eFSPgfsUn85mATEP4GNLNp0uhCOk4M4CRADQ4isb+kgTSrQTqG527zB8w4C5hd3mb/cs89R/49+OCycAn2gZmLMT6y8Ts26VmOEsN99iljDEI58JuFSPgn5CZMOZgJO+vjRHKE8pGNn3JklZo5wtTNtnXUi/pLaDV+jI9s/Bgfc/HDRBY5z1gqIqNbdM3S/cv5yD7/PrUXlU3BIlEyRo5Ev7Urk/Afhu1HIh83id8cbILCH4/Dg/Pnz6+8G6+mXq1T60TwwfNWg7R/RrvDT8HSvpiZbwJml7fZv/gX6GLe4F/yh31g5mKMj2z8qsE6OcYglIMIoIR/Qm7ClIOZjDWaI5SPbPyUI6vUzBGmbrato17UX0Kr8WN8zMXvm9+MRXXuai6+NY0rB55c/DYR/oyl7SPno4T/8W0Owh93qKREbQx/T0X4Y3Ib/V7OsN8pY/QjOSIfN4nfHEzC/5A6tU4EHzxvNUj759xt/oCZbwJml7fdv/g+EScCDOwDMxdjfGTjVw3WyTEGoRxEACX8E3ITphzMZKzRHBllwplDObJKzRxh6mbbOupF/SW0Gj/Gx1z8IOaRl6WGl3XhhXOWnzD8jbp9GQzf047qGMvSF9/l3jg+pRfftWqtCn/koWeMfgR/R+9eQL6jfUTln/rUcmMH09atTZUC30sZox/JEfmI35LwX7cJCn/c0q9b/SvhA1oD3z/33eYP9ql/efjhIz9xssPAPjBzMcZHNn7VYJ2cyCAk4Z+QmzDlmIooqZgjo0w4cyhHVqmZI0zdbFtHvai/hF3ED/6gjtQgXCFg03J8WiuF8TEXP1b4T0kUp+Ir941x9sV3c7AxXjzGtAOsF7Wx6LfGtPSxxjH6Edw+6tum2UMPLSaa0bJ0og2YvrLmeDpGP5Ij8hG/NQfhP0Yb2zIQ/LmX+5nYn+TL/V577bXlv9rBB7cGvn9Gm8PPwKJ+eJ/6F/xtvsKs78U+RHOxHIyPbPxCct+6yxkmQOnAwjo5kUFIwj8BDTdqqDmYyVijOUL5yMZPObJKzRxh6mbbOupF/SXsIn4/8RMLoZqKVAjXqBwvV0v7eMbHXPxaFv6yzW0qwh+3wNtjJN7wm1F5dMs801fW7EeY/gwwfSXjI0D8ShmjH8kR+YjfkvBftwkIf69FzSb/OT/wxBNPHJ6ZwPMIrZwE8EGuge+f+27zB/vUvwD4bv7iM3+A7Z8ZH9n4UcxgEJLwT8hNmHIwk7FGc4TykY2fcmSVmjnC1M22ddSL+kvYRfwwyUM+lBomymlcGR9z8YOYin4vZxL++2O4Bd2fXMrdMYHyt799mTAOph2wbQz7VwrTV9bsR5j+DDB9JeMjYOI3Rj+SI/IRvzUl4Y+7rPzJJXzfH49s+DIY2kK0/VgWvWNiy+xK7HsOIsEDwe+FNBzA7QtTxu9vDax/HrrNH+xT/wJw16T5a/Wx/TPjIxu/CNzVafV4e+H993Xf+aWn1spxQsO/vPCQRgchCf8EdsI0hijJMZEcqTrhVI6sUjNHmLrZto56UX8JufixL4WDkEp9z/nICv+rrlp/BABn8XF7sS+DvfDC8kccufhhQhv9Xs7mIPzn4CPyKc2d3DsSYOk3kUHNfhj7WArTV9bsR2r2lYyPgIkf4yMbv8hH5ILPxRJDf5kKcZSnZf7FXqWWxjXnIzse4ORGEtcbD8prar3jsiux79k4MngDIQS/F9R4QcG5c+cmeReA388aWP+MHMRPwG67bbkwYZ/6FwBB7E/UWRyY/pnxkY1fBPbR6vF27tr7ut/54FPhsvRFy7STuQBG2I+WQgRQwj8BycBMmJjJWKM5UnXCqRxZpWaOMHWzbR31ov4ScvGzyWWpYaBJ45rzkRX+sPQRAFyVSq/awvBMO14mZjkEe+CBxTJfBttkorzv1rLwT3MhlyO4ApS2D7aN1eyH4Usplssl1OxHmP4MMH0l4yNg4sf4yMaP8ZGNX+QjYmRtodTSuOZ8nIHwnwLHjgxEPu4ASF9UMLW7APy+1cD6Z3+bv932nrKP/Qu+429+f/rT4/QvOdj4MVCimHWS6aArJomEfwI7YWImY43mSNUJp3JklZo5wtSda+vnzq1f9YFde23Xvfvd6+U4453uXy5+WB/HTDY/S8UyJvF4z4Ivg11yycLScqyLbdLyK65Yb3u5th7t15Chbm+5u0Jg6W2CuTaWo2Y/DF9KYfpK1kf0T+inSmh1PGV8ZOPH+MjGL/IRMbK2UGppXHM+fvaz8Um0vpNruIvGMXXhj0flh6w2o0YmvQMAhrIp4PepBuhvv/vd1dv8c21xH/sX3DpvfiMG+HTxcfuXHGz8GCT8E8ZMkpQxBqEcTPzYCRMzGWs0R6pOOJUjq9TMEabuXFtnr8LgFmf8ricXP1b4T+VKsZ7DP55Ft8HjhbvIB18Gw8T+O99ZL8e62CYth6Xk2nq0b0OWgvaV5nuOXBvLUbMfjnzJwfSVrI9M/Gr2lYyPgIlfzRxhfGTjF/mIK5qY5EciPFeeXgXN+Yjban07Nus7uZYwdeHvtWjOanPsX8hd8fffJZzEMw1u32qA/hZ5iephudv8wb72L34O9573LO5wRHuPvpKUwvjIxo9Bwj9h7CTxjDEI5WDih/6JmTAxk7FGc6TqhFM5skrOR8QIdaSGjjV9Fh0WdbRM/HJtfYTbLw/3L4qfhP+6zeGkApMjOZg2lmvrv/ALixxMDfsYlWP9FLSv1JccuTaWg/GRjR98LIXpK1kfmfgx/RmYynhaM0cYH9n4RT7mPrV4770Li5Yd984XIn4tXvE/ffr0hX2u9e1+z8aRiZ7xt28QYhmAQyjH/3eN38+xwXzr/e/vug9+cNFOYLnb/MG+9i+f+cyR/2a4G++aa7qDxA6ekXcwPrLxY5DwTxg7STxjDEI5mPhhYKo14Ww0R6pOOJUjq+R8HONzdFHd6Ijf9rZFrGoYbrW+++6j+MIwIcRx92Uw9vl3Cf/9sWefXSbkkpptzPKtFOxfKWhfaGclsOMp4yMbP8ZHJn6sj0z82PFgKuNpzRxhfGTj12COtPqMv700HycBarNRZNK3+p85c+agz1nvnPCMP5bvSvj7ffQ2Fhi3MP+CsMUjaH68/oM/WK4UsI/9y5e/3HVveMOR/6nhXUgnTwZvxl+CdUph48cg4Z8wZpKkTGUQqjnhbDRHqk44lSOr5Hwc43N0Ud1YB+tGdch2b6zwx5XoFJSnMLfoYmKT/s6QIV9TkHvIwRJqtrGafSXjI9oeM54yPrLxY3xk4sf6yMQv11fmmMp4WjNHWhxPK+aIF/5ja76amF7exv5u9AsQ8vYdf7u6P0X8gfc2BnfeuRD8qC41jNtveUv+Fvd961/wZSPMFdI4pAbxj7sCIrC8FDZ+DBL+CWMlScRUBqGaE85Gc6TqhHOuOYIr7fab3nB1HOItLcfLjOBPqU1F+M/lijVjiIkX1rDo5XT4u5bwZ27RxaMkeA4//a0+k/AfBm2PGU8ZH9n4MT4y8WN9ZOLHjgdTGU9r5kiL42nFHGlV+OPi+bb2d6NfwJkJiP/orf145h8OTOGEgD/w3o7Lb/1W173udYs20Wd46XF0hXvf+hc85pD6njNcSIg+V4tlpbDxY5DwTxgrSSKmMgixEyZmMtZojlSdcO5TjuReRgQxlr54DC+BwdlP7GMNi75Dj9/Ei5F82SaijjEJ/3XDVQJ/DGBRjuBvvME6qiNnpcI/R9QO0D4l/MtgfGTH05r9MOMjEz/WRyZ+rY6nNXOkxfG0Yo60KvwBNPU23om3UUT6nt23ZbgbYEqMlQR4hLL0Ljic0P/855cbOvapf8G8F490pr7nDOtibpOCZaWw8WOQ8E8YI0lyTGUQqjnhbDRHqk449ylHcOtXetUWFl3NZa/gb2Lps//4TQhJX4Z1WhXnre53JIqjNpa7KyT3jgRY1E7xm6VYPR5csfgLf2FxUsHbzTcv8ikth+F5vxRmQsL2I0wfFfnYBxM/xkd2PGV8ZON33BzJwfrIxK/V8bRmjjA+svFrMEdaeMYfAh+PyHtdir+ji+k1KI7Myy+/fCjqYfYGQvzfyszsbf7495TwAT4OEK2M0MVJ85R96l9Kb/P3hk91pqC8lGz87rlnMfB5u+OOrnvve9fLYUElEv4JYyRJjqkMQjUnnI3mCOUjG799yhEIHvxmqdUUrnO40s76iMEpFagQrhCwvowdxNj9KBX+Odg2ht8shWkH7HjATEhYH5n4MT4CJn6Mj2z8lCOrtDqe1swRxkc2fg3myNSFv7+lP7JJXfHHLfz+E31Dtq0zF6X4fTsOm3zZKG2T+9S/4LZ99j1AZ88uN3agvJRs/PBSBTQab7itFW+OTsthQWcp4Z8wRpLkmMoghFyoNeFsNEeqTjj3KUcgGvGbpTYHcV7T2PhhwE6J8o8d2CX8y2AmJKyPTPwYHwETP8ZHNn7KkVVaHU9r5gjjIxu/BnNk6sLfPn2Pu+Khk/Fv/N9emo/ltaEiY1f9+674w7De1MD+mh2Hj3980RZKLXqmfd/6F+ZRQDzqmH7FB2BZKVT8SCcl/BPGSpKIqQxCNSecjeZI1QnnlHMEt1rj9n1/NRh2002Ls7hpOfsc9ByE/5R8rCX8WZPwH4b1kYkf4yNg4sf4yMZPObJKq+NpzRxhfGTj12COTF34Y7/sk31e+APT1rXZ6BewkxD4trMtYIlw3KDqVv/lHw482oevAaW+RwbhH73wEMtKoeJHOinhnzBWkkRMZRCqOeFsNEeqTji3nSPM28zRwbNiXrZqrPDHCZSUKP+QCzj5EtWRs1Lh/41vrJ/UgeENve9+92oZHhPQFf8ymAkJ6yMTv5p9JeMjGz/lyCrseMCMNa3mCOMjG78Gc6QF4Q/DBXIv/O3fk7vi3zIWbNhxwNV7zAVQzZDhBc7LEzsr7Fv/gnk15kap/zmL9g/lpUTxwz7Ad4x73v69D7/S/T8uu3GtHIbPGqdI+CeMlSQRUxmEak44G80Rykc2ftvOEeb75RCWc7gqzxpi4uMEw7PyeHmgL9skfhDTKVH+4VaxaPs+w1cNUpj8Q+5FAxZOEFn7M3vggUUM0nJYVEfNNgbfS7F9LIEdD3Lxi2B9ZOLH+AiY+DE+svFTjqyC9ZjxgGnrreYI4yMbvwZzZOrCHxfNbf9M7Hub1DP+trN2e3+6s6lhnSnh9+24lF7hxrf88RWAlH3sX/B4PcR/Li6XXLL6N/zHSRTcVWvvCMCFtttuW7wwsI9c/LAd2oy3/+obr3T//JIb18ph0WcFJfwTxkySlKkMQkiGWhPORnOk6oRz2zmCGKF8363mCYvoc3T4TCCEtS+DIGavypcK/xw12xjqRf0lsH1lzTaGuJbC9COsj0z8WB+Z+NXsK5Ujq9TMkZptvdUcYXxk49dgjkxd+APoY3uLv+3rJN/qL+F/BK4u426/vm/5466Ac+eWGyTsa/+CuOCkCO5qxMUgGL5qBXH/B3+wmN/5GOXuqMVFk+jLQAYTv//x+690/+Ol5U5K+CeMnSSeqQxCNSecjeZI1QnntnMEMUL5FKzVuwmiW9WjwQa5gA48qiNnEv7DsG0McS2F6UdYH5n4sT4y8avZVypHVqmZIzXbeqs5wvjIxq/BHGlB+O+a2URmTOFvIMe9eMWcDhdG3v/++GqyMYf+5bd/u+s+8YnlH0twYgAXiSxefYb3KOTEPxO/MYQ/fMZ+Y0z19tWfeqo7d+19a+Ww555bbuxhAlgxSST8E2pOOFkfJ5IjlI9s/LadI4gRyqdgrPCHiIYw9hZ9jg63W6W3VY1pP/3Ty2A6osEGuVByO5w37H/KVNpY5GMOtq+s2cYQ11KYfoT1kYkf6yMTv5p9pXJklZo5UrOtt5ojjI9s/BrMEQn/YfY6Ml7sexuTv//3F20D9q53LW55H2LO/cs//aeLdx9YzPoMc97otn8mfmMIf5ywwJia2t/7+FPdP3jnfeGy6BEPKoAVk0TCPwEHrNaEk/VxIjlSdcK57RxBjFA+BWOFf+nL6RCn4774jm3r0WCDzhLvVLDcNMNLFFF3Wg6L8mwqbSzyMQcbv5ptDMe3FDsOJYyRIzlYH5n4MT4CJn7KkVVq5kjNtt5qjjA+svFrMEe88K+h+Y4LPo2PO+Lt7nn8DfDvbTzfDzaOCHb2scceu/DpPnPk7Nmz3fnz5w/Ldk168M3GBLmIKmG4KlzCnPsXfMPf4lVi+HxiChO/mrf6Yz2sXwwTwIpJkvMRJ63Q73h74ZlXuv/v2+J3JISutDgIwZlaE07Wx4nkyCgTzq98ZfWqtFl0xRqGN6FCOHrGyBHECOUtWmvCP0erbYzxkY3fGG0sB45vKUw/0mqO1OwrlSOr1MyRmm291RxhfGTj12COTF34Qzf7fYNmBqdOnTr8+1zuGfER2SgiEP22kzhDAdHvHYHZWYxdku6T2Zjg4gaqhKW3tueYc/+C+b3Fa8huOXGgRKMFfYY3Pzsk/NfJ+XjPPYt5g7df+blXuj+8KP4qQrh7LQ5CNSecrI8TyZHQR/Yb93jBh7XLEsNzU6nvufh97nPrvwdDPWnZ9dev/9auDCc9cPXbjh3s7rsX++nLzKJbyKIcQZzYzxBK+A/D+MjGj/GRjR+ObymWayW0miOMj4CJn3JklZo5UrOtt5ojjI9s/BrMkakLf9snaGe80M/27+mnnz7892Q/54czEthBiH9c3ceO4m+cADBHtnHWggH7ZDYmDz+8aBswzOdKmHP/Ym/wZyzl+Y88emgltCD8MV6n9sq9jx5atCwkClQGxkc2fk0OQghqrQkn6yMTv5odSeQj/mavKs/BILjTkw2IE06IpOW33rp+fMfIEbxU5kMfWv89PPuPN82m5bBvf3u58RLUibpLYQabVtsY4yMbP8ZHNn7Iy1KYfqTVHKnZVypHVqmZIzXbeqs5wvjIxq/BHJn6M/7YL9wdD+yt/vY2f7ugXpuNfsGu8OOMBYQ//m07a45gnSlh+2j7ORbIR1QJ+4/+o2XhAHPuX3DB0OJVYu95z3JDxz4JfxurU/vGtY8eWrQsnAcgWIVI+CewE6bsQQhgfWTiV7MjiXzE3+wb2xlr9Y33ENEpU8kRpm7UibpLQb2ov4RW2xjjIxs/xkc2fsjLUph+pNUcqdlXKkdWqZkjNdt6qznC+MjGr8Ecmbrwh7jHxXK7Kx77iav9wC6i12ajXzDhj6v6dvXfzmDYMnNkKmCfzMbEv6X+135tWTjAnPsXPBrB3AH82c8uN3Ts2xX/CMbHQxCsQiT8E2pOOFkfmfiN0ZHg9n34khrELL7J7svw9xvecNQ4xzYJ/zJqtTHUibpLQb2ovwTEosU2xvjIxo/xkY0f8rIUph9pNUfG6CtzKEdWqZkjNdt6qznC+MjGr8Ecmbrw99/uh262f9vVfvy/NhtFBi/0s501g9D3Ly2Yygv+DL+vY4J+FlXCMC8uYc79C97dVfrI7VveEr8dX8I/AAErRMI/oeaEk/WRid8YHQluwcFt6biS7w1n59Jy/F1TnE9J+OOTdKnviIkvs3Lcvp8ylRxh6kadqLsU1Iv6S2i1jTE+svFjfGTjhxwuhelHWs2RMfrKHMqRVWrmSM223mqOMD6y8WswR6Yu/O2qfs628Wb/jSODNxHajuIMBW5b8I8ATA3bV9iYIHdRJexv/+1l4QBz71/wjfuhZ/2xPH0E1ZDwD0DQCpHwT2AnTMxkjPWRid8YHQmuVlujK7FWr8qzhhe24Bib4awuYuXLzKLjNZUcYepGnai7FNSL+ktALFpsY4yPbPwYH9n4IYdLYfqRVnNkjL4yh3JklZo5UrOtt5ojjI9s/BrMkeMKf1yRt2fuU3DRG8uO8/J66GXcKW+/421bL8XfLDJLLAjGGFf5cUIBtz/YZwINewMiluEEAxugWsIfF31QJew731kWDqD+ZTFG4b1TV1xxFD8zfOcfJwdySPgHEEki4Z/ATpiYyRjrIxO/ETqS/9+fmZHwh3D3hluPYGk5LH2bfqs5wtSNOlF3KagX9ZfQavwYH9n4MT6y8UO+l8L0I63myAh9ZRblyCo1c6RmW281Rxgf2fg1mCPHEf7QmdG20Jt2K77Zpi+w35a474OPTEXscwYwf0LB3iPgzd4pUIrfdkxQndm+j0Fj9y+47R8X0vCtfvh48cVHsez7HQn/ACJJJPwT2AkTMxljfWTiN0JH8qN3Hohca3T7bilzyBGmbtSJuktBvai/hFbjx/jIxo/xkY1flO85mHbQao4wPgImfsqRVWrmSM223mqOMD6y8WswRzYV/hDkOZ1oz+LjNn1/AmAKIn4TuMg4cEXers5Hxp4N8V8HgHnhb2U4MeDPyKR3BfRh28DGArmL6mD4PPO+j0G1+5dPf/oonngJYA4J/wAiSST8E9gJEzMZY31k4jdGR4Kr29bo9t1S5pAjTN2oE3WXgnpRfwmtxo/xkY0f4yMbvyjfczDtoNUcYXwETPyUI6vUzJGabb3VHGF8ZOPXYI5sKvztU/Tptv6EgAl9aFz8velV/13DRWZJemYkMvZzfhZIMxP+EPf4G2daDHuJIPMbvu6xwN2gqA529dX7PwbV7l+eeeYonrfdtlwQIOEfQCTJ1IU/2hXaUmrwMSrHJ8zXYBoZKqk14WQbAhO/MTqSKQn/2o8RpMwhR5i6USfqLgX1ov4SWo0f4yMbP8ZHNn5Rvudg2kGrOcL4CJj4KUdWqZkjNdt6qznC+MjGr8Ec2UT42wVlfzXfgBbF39Cohr3PDlq0RYijeoTdkg8xjoAhMKkxz/tbfRZMGOoA+D/+joKOMzSlWL0wD243x9Vly1mzRx7pui99ab0cZo9/op9FdTA861/aP1s9pSS73EvL/QuOBV6mbTHN/ZaEfwCRJFMX/ijC/CU1+BiVP/zwYrsVmEbGTpiwbmljZxsCE7+cj9ge+5caciQtu+mmowZXYi2/1T9lDjnC1I06UXcpqBf1l9Bq/Bgf2fgxPrLxi/I9B9MOWs0RxkfAxE85skrNHKnZ1lvNEcZHNn4N5ggr/O1CtunZdNs+DerLWoI4qkeY02Pc5uCDDvBvWInwT4Nu2w6ZB5+xtnz1hpc6Iy+jZdYPIw9RHey66/Z/DNpG/1Jyu7+EfwCRJFMX/lmYhsA0MnbCxEzGWB+Z+OV8xO1H/pNzZohfWnbJJUcNrsRYcY7609/Eyzzw2Q5fhn2Oth/TUuaQI0zdqBN1l4J6UX8JrcaP8ZGNH+MjG78o33Mw7aDVHGF8BEz8lCOr1MyRmm291RxhfGTj12COeOEfWYrdQW4XsdP1JPyX2FmRMYS/PVdhQh//9n/XFv45SvrQJ59ctAsYXg5d2j+rf1nHfCy53V/CP4BIEgn/BHbCxEzGWB+Z+OV8tAZUy6Lv+0ffuIeY/+mfXsTKGzpLNHRf9tBDXXfVVfHv5Qyf/0h/E+VpmZWnzCFHmLpRJ+ouBfWi/hJajR/jIxs/xkc2flG+52DaQas5wvgImPgpR1apmSM123qrOcL4yMavwRxhhL/pS9zij3+nL5jHhek+DcrcdQ5wJzx+A9ulXwnAxW+UY/kYX8jrgziqq2CnYfayg02w5/dhCCrM/kbdOLHQF/T0+QrbdshKKOlDkeOoDoYc3vcxaBv9S8nt/hL+AUSSSPgnsBMmZjLG+sjEL+ejNZ4aBpGPT3HAfzP2G/eRj88+G/9en/2lv7T+eyhPy2Dp5/nAHHKEqRt1ou5SUC/qL6HV+DE+svFjfGTjh3ZQCtMOWs0RxkfAxE85skrNHKnZ1lvNEcZHNn4N5ggj/E1L5gz60zTocd4zhzq8vi0xrI/takAc1SMgyP3ZChPt3kruBrCA5gxB9W/7t5MMqB9/M3ccWB2wEkr60C98YdEuYHhUdt/HoG31L0O3+0v4BxBJIuGfwE6YmMkY62MUP4hi+768t9x36K3x1DBcPU99Z+OnHFlljBzJwdSNOlF3KagX9ZfQavwYH9n4MT6y8avVDlrNEcZHwMRPObJKzRyp2dZbzRHGRzZ+DeYI84w/NKTXramutS/HWRmuxvv3AJR+Wc7Wx8kDnDRAHem20Loox3KsZ9vUYKNah86SwErOhNhtFN5se3+7gwl9BMMfGOZuA9sGVkJJH+oF6vvfv/9j0Lb6l6Hb/SX8A4gkkfBPKGnsnmgyhk8LfOhD6yL83e/uumuvXS+HfeMby40dUfzghzWIXRuu+Ke+s/Gba47kYH2sFT/UibpLQb2ov4RW48f4yMaP8ZGNX6120GqOMD4CJn7KkVVq5kjNtt5qjjA+svFrMEfYl/t5vAb14ASBlZtBl5aCdVE3A04CML/BwEfmAAhyL9Yj2/QZBQsq6jAg8L3ghzFX+4HftoSSPhTLUR0M8/h9H4NG6V/uuecoaAX20olb1n5Twj8A8SpEwj+BnTBFkzH4wj6j/slPLjd2RPGDH9H2Y1pyUuJ/uuT13f/0zpvWyrtbb13fPzZ+c82RHKyPteKHOlF3KagX9ZfQavwYH9n4MT6y8avVDlrNEcZHwMRPObJKzRyp2dZbzRHGRzZ+DebIcYQ/rsJDbEeCG0Icz+BjGS5sH+cx913DR6YyduIgCioOSm7ZEDWEP67yozoY5sP7PgbV7F9SJ/tu95+68Mf+IndSw3588tZX1srvumvxbgOPhH8A0xCYRpZr7F/72rrwheGqN57t8WW4ss++IX9Kwj/hpTd9tHvp65UmnPuUIzmwbumAwPpYK36oE3WXgnpRfwmtxo/xkY0f4yMbv1rtoNUcYXwETPyUI6vUzJGabb3VHGF8ZOPXYI4cR/jXAHev40RBqW2DY0UGAhxnQbCzuAJvdwJMkRrCH4/XojoYbknf9zGoZv+SOtl3u//Uhf8Pf7jIhdT++SU3dv/VN15ZK4/eOybhH8A0BKaR4SBEjR2C3pKwxNhP3Un4DzP1HMmBdbFNCayPteKHOlF3KagX9ZfQavwYH9n4MT6y8avVDlrNEcZHwMRPObJKzRyp2dZbzRHGRzZ+DebI1IS/154ltg02/pX0mQfc/oCTAPj32bNnl2tNB7+vJZT0oajKbA5jUM3+JXWy7+3+Uxf+ObAf2J8SJPwDmIbANLJcY5fwX/41ADvh3KccycEMCKyPteKHOlF3KagX9ZfQavwYH9n4MT6y8avVDlrNEcZHwMRPObJKzRyp2dZbzRHGRzZ+DebI1IS/XRyHmUbG++qsLLVtsFFkcGXfAmtvIITwx9V+K5/alX/bL1gJQ30oruqiKhhedD2HMahm/xI5mbvdX8I/gEgSCf+EXGOvLfxvvvloP83QmTzwwGrZRz4Sbz+mJUj4J7A+MgMC62Ot+LEDAupF/SW0Gj/GRzZ+jI9s/Gq1g1ZzhPERMPFTjqxSM0dqtvVWc4TxkY1fgzkyNeGfgv3a9fsBNooMzkpg5+0Fe/5lCHZGY1tnLkqxRICVMNSHIm9RFQz5O4cxqGb/EjmZu91fwj+ASJJZC/8XXlg0VG+579DjOX5LwH23BAn/BNZHZkBgfawVP3ZAQL2ov4RW48f4yMaP8ZGNX6120GqOMD4CJn7KkVVq5kjNtt5qjjA+svFrMEemLvzxono8979LNoqMCX/beS/8UYZl+y78sRxVwSBK5zAG1exfIidzt/tL+AcQSTJb4Q/Rf8UVi6vq3vCyvksvXS+/+OKj5Nt3S5DwT2B9ZAYE1sda8UOdzICAelF/Ca3Gj/GRjR/jIxu/Wu2g1RxhfARM/JQjq9TMkZptvdUcYXxk49dgjkxd+PuL45Ftg40i42/1x/P8uNUfhn9b+aaf8xsT25fUShjqQ599dtEmYHgr+xzGoJr9S87J6HZ/Cf8AIklmK/zRQCHoLaH22fDmUdzF4A3laRnsF35hGaAjJPwTWB+ZAYH1sVb82AEB9aL+ElqNH+MjGz/GRzZ+tdpBqznC+AiY+ClHVqmZIzXbeqs5wvjIxq/BHPHCn9F82wJaOd0/b9tg419JX+7njf3Gfi2ifYOVMNSHIgdRFQw5OYcxqGb/knMyut1fwj+ASJKdCH80jtQeemhx1ixahpdopEQ+vvpqvP299y7Ml+GWflzdt4Qa29hn/Gta1MGgvBAJ/wTWR2ZAYH2sFT92QGAGm1bjx/jIxo/xkY1frXbQao4wPgImfsqRVWrmSM223mqOMD6y8WswR6Yu/G2foqv9sG1wrIj4z/nBIPh3/dICjz/w3koY6kOR36gK9vDD8xiDavYvOSej2/0l/AOIJNm68MfZGxzE9Fb6q6/uussvj8s/9anlxo7IRzSkqG6UpeUQ/TXFuYR/GS1OVFgfmQGB9bFW/FAnMyAwg02r8WN8ZOPH+MjGr1Y7aDVHGB8BEz/lyCo1c6RmW281Rxgf2fg1mCNTF/5nzpzZ+T5NKyIVYZNgqA998MFFm4DhFvQ5jEE1+5c+J9Pb/SX8A4gk2brwRzKwV9qjN96jPC3bxhvvS6228H/jG1dPZEQnN6wcdzekoI5CJPwTWB+ZAYH1sVb82AGBGWxajR/jIxs/xkc2frXaQas5wvgImPgpR1apmSM123qrOcL4yMavwRyZ+jP+uDje9Mv9otsScAcA3lqI/08JS4TSZBjqQ5GHqAqGfJzDGFSzf+lzMr3dX8I/gEiSJoR/iwbhDz+9CM/d1cCeJLjqqkVDQCdjFj3OYBaBegqR8E9gfWQGBNbHWvFjBwRmsGk1foyPbPwYH9n41WoHreYI4yNg4qccWaVmjtRs663mCOMjG78Gc2Tqwt/ukO+z2mwUGewYghrtIL7rn1u2SywRSpNhqA/FMlQFe+65eYxBNfuXPifT2/2f+3MS/msQSSLhX8ngI660oyMwy7zH4N+88Zq4joz96dUHdadxrdiRSPgnsD4yAwLrY634oU5mQGAGm1bjx/jIxo/xkY1frXbQao4wPgImfsqRVWrmSM223mqOMD6y8WswR6Yu/L0WzVltin/hxRdfDHcwZ7u+lSHF71sJQ30orjyjKhi+EjaHMahm/zLkpL/d/7ff9Gj31E8+evhlhegdcB4J/3XGEP7Idctjb/+vN9zYff2BV1bKnr37qe5PrmhU+OOTfunVenz6L72yD8OnAtEZeDIN4Y+vui7+vYz9+NLXd//qnya5YwEuBXUVkhP+cA/H3hvW+9HPfHStHBb2Fy1OVOAMM6lmBgTWx1rxYwcE1Iv6S2g1foyPbPwYH9n41WoHreYI4yNg4qccWaVmjtRs663mCOMjG78Gc6TFK/64YG5v+8e/a0NFBjtoAe0zvLxgSi/5A37/ShjqQ5GzqAqGHJ7DGFSzfxlyEi9QtHj/+olHD+2aa7ruLW/pum99a7lSgIT/OmMIf5x0sTz29kcX39j9xl9dF/7/8+WNCv+bblo0bG/4BF56ZR+Win6QawjXccL/8ERD2vgswKWgnkIi4Y87b+65Z9HXefv8yee771/60bVyWPSqgSYnKji+cKgUrIttSmB9rBU/dkBAvai/hFbjx/jIxo/xkY1frXbQao4wPgImfsqRVWrmSM223mqOMD6y8WswR6Yu/HNAM2Of8Vn82mwUGTsBgP+3giVCaTIM9aH+1nN8UWwOY1DN/qXPSVzth8i3eJvwt7+x7BOfWK6cIOG/zhjCP0foI5Kh1Vv9IfJTmMaeawgNCv8cWA/rF9PiRIWdVI+RIzlqxY8dEFAv6i+h1fgxPrLxY3xk41erHbSaI4yPgImfcmSVmjlSs623miOMj2z8GsyRVoU/wPvxtrHf7UVmQywRSoPa14fiyheqMQNzGINq9i85JxFT3EXt450KfxjEf3TlX8J/HQl/wqYi/PGCwLTxVexIJPwT2En1GDmSo1b82AEB9aL+ElqNH+MjGz/GRzZ+tdpBqznC+AiY+ClHVqmZIzXbeqs5wvjIxq/BHGn15X640r+t/d74F/DNfnsmITI4MiX8vpXQ14ciZ1ENzHJ3DmNQzf4l52SkjyLhD8MJAtx94ZHwXyfrI+7LtuRc2r/8qw90//Lig8Am5d3P//ziNngIY2d/ctHl3Z+cvHm1/N3vXjwrnx6wFgz7n8I09lxDyDwrgVgj5mvL8B1LnHH02LJS4E8hEv4J7KR6jBzJUSt+7ICAelF/Ca3Gj/GRjR/jIxu/Wu2g1RxhfARM/JQjq9TMkZptvdUcYXxk49dgjrT+cr9taOeNInP+/Plwh73ts/DHo7yoBma6YOpjUPRSLnwd7Prr18thUT9Ss3+JnMRvRReK+4Q/9t0j4b9O6COCjavKaVD30ZD0/sQETmAg0XyZ2de+tgyQg2nsZENgcqRmRyLhn4DjzUyqK+ZItfihzkqTsWbjx/jIxo/xkY1frXbQao4wPgImfsqRVWrmSM223mqOMD6y8WswR1p+uR9sG+/H2ygy2FEE9fTp05N7iV8OS4TSZOjrQ/H5PlQDs3WmPAblXsp1xx1d9773rZfDopdy1exfIidRByP88bJ1XBj1SPivkxX+rd6Oz1ra+NgJE9YtbexkQ5DwT2A7EsJHKn4TypFq8as4GWs2foyPbPwYH9n41WoHreYI4yNg4qccWaVmjtRs663mCOMjG78Gc0Qv9xtmo8iY8H++tEPaEXbwUyuhrw9F/qEamLWhFscglpr9S+Qk7ob2L/Uzywl/fE0tPWEh4b+OhH8SV3bCxDR2siFI+CewHQnhIxW/CeVItfhVnIw1Gz/GRzZ+jI9s/Gq1g1ZzhPERMPFTjqxSM0dqtvVWc4TxkY1fgznihT+j+abApF/u9/LLLx/u3NS+1Z/iD7y3Evr6UIhLVAN78MFFWYtjEEu2fwmeI3juoee737xrteyCpc8qg8BJPK8PMW+xNssJf5wkeOml5cZLZi38f/jD9dgf2D95513dP/n4Q6vleO7jqqtWAzqm4Rn/m4Nn/6+9drUMFm0/ZEkdr73++kNLyw8tTRL4z0yYmMZODrQS/glTmahMKEeqxa/iZKzZ+DE+svFjfGTjV6sdtJojjI+AiZ9yZJWaOVKzrbeaI4yPbPwazJGpC39/i783fAZ/W/u78S/YGwhffPHFZcn0sCCmVkJfH4rcRjUwy/MWxyCWsH/5wQ8Wzif2/3nnB7r/9+veFS47FJkpGSeh0yzWZjnhDx2ZnlOYtfD/1Ke67uqrFy8/cPavL768+9eXJ+VvfONqMMc23E2QJk9uEIq2H7IEKn7shAnrljZ2cqCV8E+YykRlQjlSLX4VJ2PNxo/xkY0f4yMbv1rtoNUcYXwETPyUI6vUzJGabb3VHGF8ZOPXYI5MXfin+5YaTgLUZqOIYMeiHfa2jZ1n8PtWQl8fihxENTDLxRbHIBamf2FFcc5J/B50qcUbFgl/rIMbD1JmLfw/+cmjAJXYRRfF5WMYI/yDrwscGuqJyoOEl/APQPwKkfBPmFCOVIsf6qw0GWs2foyPbPwYH9n41WoHreYI4yNg4qccWaVmjtRs663mCOMjG78Gc6TFl/uZbetC+kaRwQ56IR0Z1pkSft9K6OtD8aI8VAPDc+igxTGIhelfxhL+4Jvf7Lq3vOUo5qnwx13kv/M7y5UTJPyXQdq1McI/B+opRMI/gIifhH/ChHKkWvwqTsaajR/jIxs/xkc2frXaQas5wvgImPgpR1apmSM123qrOcL4yMavwRxp9eV+AMI/9+48fEJ/rJfptxeZDRlT+KMc1cDsGLU4BrEw/cuYwh/gcfXbblu8uf9vXvroofkL1NFXCMDeCX88n45ES82S0dtHPnIUoF2bhH8R+yT8M6+Y6H58/Y3dC8+8slaOp4bWmMpEBTs4kRypNtGrOBlrNn6Mj2z8GB/Z+NVqB63mCOMjYOKnHFmlZo7UbOut5gjjIxu/BnOkZeFvF9XTL+bZG//x8r8xxH97kdkQS4TSZOjrQ5GvqAZmk9UWxyAWpn8ZW/gbeIb/2T/76KHhE+t2HPBp9uidgXsn/OGsfzbfLCq/7LKjAO3aJPyL2Cfh//DDi1Cl9kcX39j9ys+9slaOO6nW2vBUJioTypFqE72Kk7Fm48f4yMaP8ZGNX6120GqOMD4CJn7KkVVq5kjNtt5qjjA+svFrMEf2QfjbO/TwIn1w/vz5C2W48n9ciiODWxCwU/hR+3efTe2lf5YIsBL6+lDTWTBc1QItjkEsTP9SS/gDE3UQCRD8diyiq/57KfxbNAn/IvZJ+OegfJzKRGVCOVJtoldxMtZs/Bgf2fgxPrLxq9UOWs0RxkfAxE85skrNHBmjreOuScQptZtu6rr3vjde9txzy40dU8mRyMccbPwazJF9EP7Qz/aWfxP/AH9jneNSHBnbIdyCYP/uszF2bkz8vpXQ14eiCjMD67Y2BrEw/cs2hD/wn1aMrvpPXvjjm4VInMRe+rP3HtraMnO2hk3l5X45UE8hEv4BRPwk/BMmlCPVJnoVJ2PNxo/xkY0f4yMbv1rtoNUcYXwETPyUI6vUzJGx2jpiFdn3vheXR7eTTiVHcj5GsPFrMEf2Rfjjlv6TJ08e/v3YY4/piv8mWCLASkBbj/pQ5CuqgEFoGi2OQTngo+/zzOAvvsSXlkdv09+W8B+66j954Y9EuPLKtdv0//WlVx5aWn7B0SkYThQk+/enJy7u/vT1b1wrP3w5Qzo4VRyEJPwDiPhJ+CdMKEeqTfQqTsaajR/jIxs/xkc2frXaQas5wvgImPgpR1apmSM12zrLVHKE8ZGNX4M5si/CH+Bqv/lipmf8CXzgSsj1oXimH1XA3v/+ZeEBLY5BOSCe4U9q73tf191xx3p59GzutoQ/6Lvq34Twt53ftV1+edfdffdRgh7Yv/yrD3T/8uID4e7KDu1LX+q6r351kfTOfnTJ9d2PvlF4dqjiICThH0DET8I/YUI5Um2iV3Ey1mz8GB/Z+DE+svGr1Q5azRHGR8DETzmySs0cqdnWWcbIEcyLcNy84eoaJrJpOSzyhfGRjV+DOdKy8LeL6nim34DQf/rppw9tDNEP2ovMhowl/FGOKmB+eYtjUE22Kfz7rvpL+BOG2/GT5GHjNxVRJ+EfQMRPwj9hQjlSbaJXcTLWbPwYH9n4MT6y8avVDlrNEcZHwMRv2zmCxwNxtQXLvN1yy+LuurQcFu1fizmC9Wq1dZbj5ggmrtFxxNU1XGVLy2HpLa2A8ZGNX4M50rLw3xZ7HRkv9r2VkBuDcDIOVcA+/ell4QFYt7UxqCbbFP4gd9WfFa4S/qu+s/GbiqiT8A8g4ifhnzChHKk20as5YW81foyPbPwYH9n41WoHreYI4yNg4reLHEFZZNGzmLAo31vMkVxbf/zxRaxSw5zm9tvXy++6a/02VZYofn4iWmJ4zNPeEL4pTH+Wi18O7GMpE8kRL/wZzVeTTR99r/XI/O4jUpH04JuVgL4S/UPKk08etdkvfGFZeADWxTYlMO0DFO7yIUwfWpNtC//cVX9WuM5a+F911VrysPGLfMSxwbhseW/2nV96qnvh/fetlcPw4t01sI+FSPgHEPGT8E+YUI5Um+jVnLC3Gj/GRzZ+jI9s/Gq1g1ZzhPERMPGbSo6wtJgjubYO8Yw4pZZ7WV84wSBh4lcTpj/LxS9HgzkyReGPfcCL8fGOvKHb9bEc6+Gb/bX2fSKZWwd/4L2VgL4hGoOQ16gC5nO8xTGoJtsW/iC66s8K170U/rgF0NkfX3Ft98dvefdaeXfbbWsDCBu/yEfcmWg57+13PvhUd+7aWPiHbQm+FCLhH0DET8I/YUI5Um2iV3PC3mr8GB/Z+DE+svGr1Q5azRHGR8DEbyo5wrLtHMEn8eBPapis4YVZaTmuyqftlG3rY4B9wDFIDfGLytN9rg3Tn7Hxa7AfmaLwh+j3+wNRj7f0+xfi428T+2bYrga7j8iW8MEsAe0XfU8KrvKjChiu/htYF9uUwLQPULjLhzBjUE12Ifyjq/6scB1F+GcGivDFd/fee7TDtSyB8XEM4Z9jFzkSguMQNfYcTGMnB1oJ/4SpTFQmlCPVJnoVJ2PNxo/xkY0f4yMbv1rtoNUcYXwETPymkiMs286R3FX573yn/DN6bFsfA/wejkNqmGxG5dveP6Y/Y+PXYD8y1Wf88YZ++yTfkGG9ml/G2zgy5gTOSEQ2xrcGx8QHtQT0OWjDKXiuH1XAfB5iXWxTAtM+QLTLuT4UJ0kfeihetk12Jer8Vf9rr+26/83/6pXujy6+8fBY4YsMQ4wi/H/iJ7rujeuftAs/dYdnvGyHa1mChH8CGkfU2HMwjZ0caCX8E6YyUZlQjlSb6FWcjDUbP8ZHNn6Mj2z8arWDVnOE8REw8RsjR1AOX1LDnXiY1KTl0VdyWKaSIwxsW58DTH/Gxq/BfqSFl/tBPz9/0I79FX9oZpRvg40ig2cQvJCODI5MCb9vJaBvjcYglKEKGNYxtj0G4R0u+M3UPvCBxR3baTlOCBz3HSIMuxJ1OEF83XVHx+inLnmle+XEjYfveIEWP316cet5jlGEv9+BKVjCXIV/7mXIX/4zz3d/8LqPrpXDwrEGC0obOznQSvgnTGWikhsQclTMkWoTvYqTsWbjx/jIxo/xkY1frXbQao4wPgImfmPkCMQ9/EkNt8CfOrVeHn1DmWWMHMF+2zKzBx5YXNRIy2GlxysH29bnANOfsfFrsB9pQfjvmo0ig+8JIqgnT548aMfPH96SkJr/DuEUsEQoTYbcGIQTsKgC5t8PgnWnMAZNhV0JfxyDq68+OkY3nlgIf/v7ssu67l3vyp8EaUL44xYz/2y+JWVaBvvc55Y7dcRchT9AfqT2v/vS891///qPhsvC8ZRp7ORAK+GfMJWJCo53NCDkqJgj1SZ6FSdjzcaP8ZGNH+MjG79a7aDVHGF8BEz8auZITY6bIzjxEL2195FHuu4zn1kvhz377HLjAXJ13333Yl6TlsPGeGFfizD9GdtXNtiPSPgPs1FkcDUfQZ3a7fx9WCKUJkNuDEKuogqYb2tTGYOmwi5EHcYK3N5vxweWCn+zO+9cbpTQhPCPkgflhcxZ+EewwpVq7ORAK+GfMJWJSk1RwvpYa6JXcTLWbPwYH9n4MT6y8avVDlrNEcZHwMSvZo7UpFaOjEHujcB4jhXvRYqWleZCqzz44OKYlZq94drD9pWopxQ7DiVU7Eck/IfZKDK4yo+gzlH4Y3Mzz1TGoKmwC1H3+c933aWXrh6jnPC/5pr45LOE/yoS/gFMYycHWgn/hKlMVHIDQo6KOUIJV6buVkVdzfgxPrLxY3xk41erHbSaI4yPgIlfzRypSa0cEdOF7Ssb7Eck/IfZODL47ABs6JuEU2EM4Y+TkNgchkeYPFMZg6bCLkTde95zdHzMcsIf9sUvLjd0/IN33tf9l/eUdTCjCf+LL+66m29euUX/tddff2i+7IJFt7ShnkIk/FeZuvDHCSqfLma/fuLRQ4uWhXc9YkEhEv4JNUUJ6yMjXJm6WxV1NePH+MjGj/GRjV+tdjBGjuA5O/altniWPIWJH+MjwG+WUjNHxgBXihGr1OBjVP7JTy7i6g1X2WFpOUy0A9tXMu1g2/1IBgn/YTaKDK70++8NzuWt/shVbA5LcxbrlvaBNcegqbBtUYeTMldccXR8zPqEP04UALztHy9ERNnfvvi+7q9d/tThnQN4TO3wRYCZ583+6IN3d3907YEQT8pXXjJQYnjzIJLLwQjXQ1BPIRL+q0xd+OeomSMS/gnRgNBHxRw5HHyS/iILU3fFyViz8WN8ZOPH+MjGr1Y7qJkjOca4xZnxEaCeUmrmyBjgLDDyJzW8ITotwwmWW29d5Jo3vDUalpbDsJ1oA7avZNrBRPoRCf9hNoqMPePfZ/v4Vn+UYXNYuozp/2qOQVNh26IO43x0EaFP+P/sz3bd1762+l6Ap07c19134qnDf+NFgG99a9f90W8cdDiXX7668Zgm4V8G4SMTPwn/dST8E6IBoY+KOUIJV6bumqKu1fgxPrLxY3xk41erHdTMkZowPgImfjVzRIgxYfvKqfcj+Kwl+kZnnz7YZ0brzZGNIoM39kdv8vc2hbf6e7HvrYRonPW33OJrKh5mDM+1D9Rvy7zh96LyKYynOXYh6vDlGzs+Zn3CHycK0pMFXvibPXDNU92/ed2BOPeFYxoh/HGnf1QF/pOWwdI8BRL+q0j4rzN14Y/iqE+Ej1F5+DJpW1hCNCD0UTFHKOHK1F1T1LUaP8ZHNn6Mj2z8iLZOtYOaOVITxkfAxK9mjggxJmxfOeV+BFf7gu8z/8ODfd5E882JahF5+eWXl//aHenBNyshGmeRd9gclrYdrFs6hufaB+q3Zd4+9am4PHrsbSrsQtR94xtd94Y3HB0jWJ/wjywS/mcuear78aXTEP5ZUE8hEv6rSPivM3XhH30+GgYfo3K8DBqHzNsr9z56aGk5bA0UpgNCHxVzhBKuTN01RV2r8WN8ZOPH+MjGj2jrFxpJCTVzpCaMj4CJX80cEWJM2L5yjH4Ez9Ki//KGx0zwSE5aDou+tU20sU0135zYOCJ4qR++549b+lPD8//4/66JEgBWAvIvHWfxmDc2hz388LJwCTOGs2NQi+xK1KVX/SPhj1v4c4/hR8Iff792QsK/BAn/BHKglfBPGGGiYn15at+49tFDi5atHd5oQOgjrCQD6yMjXJm6a4q6VuPH+MjGj/GRjR/R1qkJSc5HXH3DPqZ2113xWTfcolsDPM8O3xmLbgdCeQryAMcgtRtuWH/+/Y47Fs8Q3n77ajn+xnjvy8wwwRSiJmxfGbWDHFE/krkqfyASu+5d71ovx/slsMzqMsOtrnffvV6ONpO8z2NTzTcnNooIRH8UXLOTJ08e3u4/Jfz+lYCxCXnogdjH5rC0j8a62KYEy9l9ZleiDvOSd7/76Bb+VPjjM34Yk//Rzx9MRqxw13bVVWsT0ZqiTsJ/FQn/dfZJ+Oeg4hcNCH1UzBEJ/4Sa8WN8ZOPH+MjGj2gH2QkJ/LZlZg88sPikUVr+K78Sv/ztfe/rug99aL0chiuBuwaiBLEqtZtuWhwLb9/73noZ7Nvfjstz60dXOoUYE7avRM6XYn3BcUA78P2KGb4ogROI0bLDN3AfwWq9ObJRZPDGfgQVV/Yfe+yxw3+fOXPmwr8h/Kf2mT9LBFgJyD+MTR60F2wOS+cCWBfblGD5OlkwgbHByNt3vhOXB2fvdynqcALwy19eVPkzr1sIf5xkf+Mbu+5b31qs83/9qU8eHcwiuygo6zFMjvwn+A7sTy66vPuTk6uf7Tu0v/AX1s5aUqIE4DcLkfBfRcJ/HQn/BBzvdEDoo2KOSPgn1Iwf4+O+Cf/c8zS5Zw9L4ySE2A1sXzlGP7JlWK03RzaKDG7jR1CfXw5aEPoQ/QBlWLaPn/PDXWvYHPbcc8vCJcwYPpH2kQcDPhxKDffH47t3aTnOmifCdSqi7r/5W690//ySG9fmef/8z7HCnzR8CzdhKqJOwn+VnHDFBRi06dR+9DMLURwtW4McaCX8EypOVKj44eCirysF64YJEcD6KOG/Ss34MT7um/AXQrRL8Mb7w6vmEDJpOSyZwx/SYD/Car05slFkTPibuMfVflz9B7jFH8um8Iy/h00GtIN0nLVvvcPSi9zMGN7sOEtMmKYi6nLC9cf/roR/Cbn45WB8nLrwx/tn0K5T+z9d9tHuf3nT82vlGE/X7tYkRclUckTCPyEaEPrAuqUDQk3hytQt4b8O4+NYwh9lqeFkPO4OS8u/+tWu+9VfPZpUmKEdpGWY9EfPyX7kIwtLy2GlcRJCTAc8RoP+JTU8doPHb6JlmPCkEOPphT5jx7Bab45sFBm7qg+D0MdL/vBvXPXHCQD8ex+v+GNMx+awdDzEutimhIm0Dx5iwjR14X8ozO1g1jAJ/0GmLvxzMKKYFSVTyREJ/4RoQOiDGRBqClembla4MqK41fgxPrLxi3zEmUOcQcQyb3gp3M03r5fjbbZ4vt4mFWbR7fh4Pv9jH4vL779/vRyGl+UJIeYJMZ5e6DN2DKv15sjGkTl79uxhYCH805f97esz/v6b7+ldMVi3dJ4ykfbBI+FfbhL+g0j4rzOVHJHwT2hVuDJ1S/ivw/g4hvAXQoipQIynEv7tcKzI4Mr/+fPnD/9tn/eDTU30AzYZ0nkKhD42heEEQAozhkv4BxQeF8BM2LPClRT+/4Z9uZ+E/yAS/utMJUck/BPSAWGIqQhXpm4J/3UYH3Pxgx826HvDunhbdVqO2/oLyb2HJGelbgshBDOeXui/dgyr9ebIbCLDJgMGST9PwYCJTWHR2M7MUybSPniICdO+CX/aJPwHkfBfZyo5IuGfkA4IQ0xFuDJ154RrDkYU7yJ+eM4VdaR2/fWL51nT8ui2dsbHXPzwnXgb9L195jNd98gj6+XBt6lz4BPDCFVquDgRlTNpJoSYOcR4eqH/2jGs1psjx44Mru7jdv+XX3758N9TvNoP2GTAPAADpYE5ATaF4SV/KVgX25QwkfbBM2Phj0/x/Zcn7u5+/cSjFwx/v3TilpWy37zy0e6H9x/sW5AMUxF1Ev6rSPivI+GfkA4IQzADAuujhP8qOR9zqhgvt7rjjvXyqA7GRzZ+FSGagRBCxDAdiYR/M2wcGQj906dPXwgw/m1v9J/ai/2A7SeshHSegr+xKcyXGygrnadI+AcUHhfATNizwpUU/v/z5a/v/upFT60U33fiqe6pE/etlMFOnowv2ExF1En4ryLhv46Ef8IuhGsOCf9V2PgxMD5K+Ash9gmmI5Hwb4aNIoOr+hZYe4s/hD8Ev5Xbs/+7xPYltRLSeQrGfmwKi+YYzDxln4Q/njH0Lz28EKOMKIaFjzBiQSHZCXvw3dIffeOZ7keXXL9W3t1ww/qO9dgfX/T6Q598cc7HN72p6557brlPDgn/VST815HwT2BFXaUcOewzpiJcJfxXYePHwPgo4S+E2CeYjmSCwp/RfHNio4jY5/vsW/0Q/TCQLtsl/sB7KyGdp0CsYlPYgw8uCx3MPGWfhH8WdjJWeFxAOGHHfl166UJ1O/vT17+x+9MTF6+WX3750cEsNEb4Yzfw6GaKhP8qEv7rSPgnbLsfyTEl4Srhvwobvwg8h4/cYezWWxf7aYZP7r3+9atlZtGkoSLYPSGEKALPMqO/TQ0dSVSO96ekSPg3w0YRgahHMPFWf+CFv33jf9+EP/IZm8Ki3Ma6y3AMMpH2wTN14Y9Jlx2kCvbRE8jto6K+uxqCd/tJ+CdI+K8j4Z+w7X4kRzogDMEMCKyPEv6rsPEbg9yLA7/3vbi89HiNBNEMhBBzB/0n+tzUbropLsf7U1ImImw21XxzYqOI2LP8MNzej9v9Yf5Wf6wzJWy/YCVgrEZ+G2gX2BQWzXWwLrYpQcI/oPC4gHDCvonwv+qq5cZHRKL41Ve77oor1jfPCX+sGz3OIOG/ioT/OhL+CdvuR3KkA8IQzIDA+ijhvwobvxlANAMhhCgH44SJGG8f+cjComWYRG8JVuvNkY0jc/bs2ZUAe8OyqeH3r4R0nnLPPYvBFIa7AlOYeYq1hebYN+F/3XXLjY/IieLolQB9z/jjdQMpEv6rSPivI+GfsO1+JMeUhOs+CX9sj/LU0InecstqGW6tR5996tRq+c03d9273rVaZha9bGUGEM1ACCHKwWMBXtSb3X9/1z3wQLysdLwaAVbrzZFjRQZX9R977LELt/pD8E/tSr/BJkM6T8G/sSksms9heek8z9pCc8xY+GP+iLmo3zwS/pdd1nUf+9hyowQJ/1Uk/NeR8E/Ydj+SIydcczADAuvjtoU/rtbAl9TuuqvrHnpovfz3fm/9lnfcAgUh78tg+J7+d78bl6dlMNQTledusS/8Hv6+QTQDIYTYG1itN0dmExk2GTBn8PO8979/MZjCojmXhH/Cngl/AEH/utcdbR4J/2uuWXzpIELCfxUJ/3Uk/BMk/NfZtvA331P72Z/tug9/eLUMV+NxhjQtv+22Rd2+zCz8zIs4DkQzEEKIvYHVenNkNpFhkyGd511//WIwhUWPq2BdCX/HHgp/XDzCcbv22sXmkfDH8/1jCP9zH3z00IrBjxci4b+KhP86Ev4JuxD+eKbMBgtvENbRLZWoJ4WJX074i+YgmoEQQuwNrNabI8WRwS38eFN/qe3by/2wmVmEhH/CGBN2PEuE20MTe+311x/aSjme87z44tUDNWSk8DfwQmccv199y1Pd37nivu6zn+26n/zJo2rxPoiIIcGDEwYf//iijr956aOHhn+jLHcy4QJYsRAJ/1Uk/NeR8E/YhfBHuQ0W3j71qbg8unKeqzt6Kz1ur8cZ7rQcNtgBiSlBNAMhhNgbWK03R4ojAzHvAzpkWH9K+H0rAXMdm+dhzoPNYLkLIhL+CWNM2BEkC3wN21D4G1644mV+vuronVJ9gufb3+66t7zlaPtfP/HoodnfWHbu3HLlCKxUiIT/KhL+60j4J/gBoYQxhP8YRHXj1iWcncQ+esNt+rmX5EWfbxKTJWoGOOxIydTweoToNQuwLb6MWwghjg2r9eZIcWS88D958mR35syZC1f3I9unK/64OILNYHjWPwLrYpsSJPwDouPSkPAHcNeqRp6k75XKCR7klz0+YJYKfxjWwbohWKEQCf9VJPzXkfBP8ANCCcyAsG3hL/aeqBlg7EBapvbe9y6G9mhZaQoLIcQUYLXeHCmODMS8D6gZ3uY/RaGf4ve5BD/Pw7+xGczKUphBUsI/IDoujQl/3Bni3wWRHuOc4MGTCn63YJHwh2HdECwsRMJ/FQn/dST8E/yAUEI0IKDvxJvwscwbzhKi40jLYcf9HJ2E/ywhmkG78xEhhEhgtd4cKY7Ma6+9djCPef5Q5EPs++B6O3Xq1OEn/l5++eXllrsj2j9YCX6eh0cfsRns059elKVgXQl/xwyFP3jyyaPqr7xyNVyR4MHy6J2EOeGPdcNDgIWFSPivMpbwR/tP7QcPPdX94Z33hcuix6Yl/BOmLvxxENMDC8MZuvTTc7inOvocHcq/8531cthxn62X8J8lRDOQ8BdC7A2bar45cayI2Av/ohMBKN816T6ZlYA5l83zMHfCZrAvfGFRliLhn7Ar4Y8rZ/bCvwP7k5M3d39y0eUrZRfsK19Z/tARxxX+AFXb7vgX/UWCByeV3vjGVRdgOeGPdbHNGlhYiIT/KmMIf+iz6GLuV254qvu7V923Vg6LjqOEf8LUhT8OYnpgYXjZ6O23r5cjSY4r5hkk/GcJ0Qwk/IUQe8Ommm9OHCsicxH+Xn/mBkisO1nhj4fNI1WClznlHu57/PHlxo4WhH8SWFa4jiH88TECv0v4KheIBA8uAOITgH59WE74Y93ws9dYWIiE/ypjCP8crI9M/CjhCoj4Sfgn5IT/VMBb2Gxg8Xb33YszkdEydFRiLyGawYV0EEKI1tlU882J4oi0eKu/x+9jCX6e9+CDi4EUhlu5I7DuZIU/wCQPO+gNV6uYzzdJ+K/QJ+pwZ4jtEsQ63sr/yokbu5+65JXDebg9uouvATBX/PEJb2yzBhYWIuG/ioT/OhL+CegTWxT+Dz3UdfffHy+T8N9biGZwIR2EEKJ1WK03R4ojA8HvA2o2h5f7Yd6JzWDhbdYHTF74R0DEQ8yXIuG/Qp+ow3mTVNBD+N944pXDf0PAHzSdw9296KLV9WA54Y83+6dfCzgECwuR8F9Fwn8dCf+EqQt/cSxwIhaHNzWcpL3ttvVy3EBXOhTuAqIZTGc+IoQQx4TVenOkODJe+M/tc374PzaD5cQ91pHwd8xc+OP2/vQWfi/8YZHgN4uE/5vfvPjefwhWKETCfxUJ/3Uk/BMk/PcanKjFIU4NAh83TUTLwhOwE4FoBtOZjwghxDFhtd4cKY4MxLwP6JBh/Snh960EDOw2z/Mva8t9R13CP2HGwh933b71reu7lgp/b7g7AF8BsL9T4X/11V33iU8sfyACKxUi4b+KhP862xb+uOscfWhqj/7kU92zb4pfjhh+6e64OYLGizdypj+GQQC36aTlMPR1Yi/BENbi4SWawXTmI0IIcUxYrTdHiiNjL/IrtX264g+9i81guRcyY10Jf8eMhT/eAwGhnu5aTvjjJAH4rd9avAsAn+xLhf8v//JinSxYqQC8H+C7193X/a07nsqexPJI+K8j4b/KGMIfoP9M7e99/KnuH7wz/hzicR95ycYv+jEYnvOKykv7RNEcEv5CCNEOrNabI7OJDJsMmM+Z8McmZjkk/BPGEP6/+Iurwb/qqsOrbv/60isP7fAKnDdcMp+A8P/kJ1d32ywn/LHbJmJwYgmh+9YNj3a//aYj4Y/nTHvBSj3g6ijuKkCYfv+i+7rPX/bU4d/vf3/+LhYg4b+OhP8qYwn/iFFyBH2WdbrOXvnJjxxatExiXgAJfyGEaAdW682R2USGTQYT/rjzE5vAIJpySPgnHFf4I5j+IXk8bImyA3vpz957aPb3iuGAOXYh/CGmbbe95YQ/rvCnYYWg+z/8Lx5duf2/N/RYIcOnP73IXavnqRP3dfedeOrC33hh4De/uVw5QcJ/HQn/VVoV/i/8uQcOLVpW3M+JvUbCXwgh2oHVenNkNpFhkwEaEmIe8z9sAuvTyDnh7zWp2b0HmhUWLdsqcG7bwh+XlyPHEWD7N26phRq1wONyt7uvlxE8uxD+X/zi0a57ywl/3MiQYj7ifIet9/jjy4URWCHgW9/qumuuOaoDlgp/GMIdXfmX8F9Hwn+VyQv/DBI8YggJfyGEaAdW682R2USGTQboT4h5PBONTWD4O0ck/K2O1D7wgYVFy9I6qrIL4X/ZZUe35ntDgO3fl156FHRY8mIFRvDsQvjjvEX0bf6c8I9u4zcfUVffehfACgm5lwxGwh8W1S/hv86shT/ewodOytk/+9LXu3/2+lvWyg8tuQMHhD5iPVMgzv7og3d3f3TtQd3BsvA79ISPVs1UwYm+aIy4+eauu+OO9XJ0t1N+03yLSPgLIUQ7sFpvjux1ZHwCeCsBc1ZMpvBsNDaB4WXPObAutmmKXQh/CyZjCYzg2YXwB9Ht/pHwx8v8Iv1iPmIi72/3zz6Pj4UJ+KRgerUflhP+eLIi1WkS/uvMVvgjObzSXNq/vPm27odXHuRIsKz7+teXGx/BCP9/8vGHuud/+v71ZfcflP3e7y06XW/wMS2DBQ3HqpoquZujrr8+fs8gTlKLcZHwF0KIdthU882JvY5IlACwEjCRwrwVgz42gUU61sC62KYpJPzXGEv4Q8zbjQxmqfDHXQFf+cpygwTvI57Rt22yEzQsTHjkkfWbJ2A54Y/9TXNYwn+d2Qr/DNZXlsL4mOtGDgvt5IKzf3biprC8e/jh5YZHtCp4mG5YHA8JfyGEaIdNNd+c2OuIRAkAK8Ems7jdEpvA+gZHrCvh75i58AcQ/7jyb5/288IfV/rx/H0O76O/3R/1hQRx2hfhjyuZ+EQidhL/j+6QSGFyRMJ/nckL/wyEixL+YhAJfyGEaIdNNd+cmE1E2CSwySwuFGETWHDX6gUk/BMk/C8AsYpP/P3hRTd2v/gzrxxOspLXFqzhfcTt/v7ugfB2/yBOrd/qjxjhvQPwHSdPsJP4P3xCeV8MmRyZtfBHO0Xnldhrl76pe+2mW9aX4XmnJEkk/LeLhP/2kPAXQoh2YLXeHJlNZNhksMksBn5sAuubAGBdCX+HhP8axxF1Pg/DSVoQJ+izVl/uh5Mb1123un/4j/8by3PvPGByZNbCH+0ZHVdif+PmZxY+BstSUBQKf5+0JRb0RRL+60j4bw/knoS/EEK0Aav15shsIsMmg01m/efUgjnvBST8EyT81ziOqPMvmQwPWRAnUPo5P1xVj0T0roT/e96zus8w/Cctw3oRTI7MWvhnYPqzrPDPMEY3koNwca+EPx5/wTFI7UMfWnwFIFqGPkX0I+FfBvLP6vGGd3A+9FC8LL27TAghjgur9ebIbCLDJoNNZmHYBNb31mSsJ+HvkPBf4ziiLr3dfy0XgzgZH/vY0XawSPhDHETsQvj/1m913etet7rPMPwnLcN6WD+FyREJ/3WY/kzCf7vk4ofjkBpEF05eR8tqfPoPYg5Pg9jYaXbqVP4TtlMW1hL+ZeSE/y23dN3dd8fLJPyFEGPDar05MpvIsMmAiREmJZhkYRNY32QV62KbppDwX2Oqwh984QtHIVl7SXkQJwMTcdvussu67vcvuq/7/GVPrYnrwxfoJexC+N955+p+meE/aRkM66cwObJ3wh9t1Cs8MwQrKg/aNNOfYT2sX4qE//GoGb8x8KllhvfjQARGy0p92QUS/sej1fgJIdqE1XpzZDaRYZMBExJMZv1V1r4rJBL+CRL+axxX1CG/LCRrhy2IE8CVGNsG9u1vd913r7uv+1t3PHV4a79/eeWVV64f3l0I/6uuWt1nM/wnLYNh/RQmR/ZO+KPdoUNK7Icnrg/Lo3aK4tL+zPrKUiT8j8fUhX8EmyNTAbGT8N+cVuMnhGgTVuvNkdlEhk0Gm6hgdRhEUR/MRHkySPivMWXhD64/0G4WlpV8C+IE/NV+/Bt4H3EyC58ItHXSyfkuhH/6Uj8z/Cctg2H9FCZH9k74Z0CsSmH6M1bUSfgfDwn/7SHhfzwk/IUQ24TVenNkNpFhkwETFbzlHKvDhvSxhH+ChP8aY4g6f7s//n2BIE7+hYA4cWUv70t9xF0BWG7rPv74csEBuxD+H//40b54w3/SMhjWT2FyRMJ/HQn/6SLhvz0k/I+HhL8QYpuwWm+OzCYybDJgonLrrYsBFBZ96swj4Z8QzTihPC+55CioeN08HvyE4W/7tzd8AD+BETz7JvzxUj8LH67+XwAFCQifrfvgg8vCAyIfMfGzdf1Jgl0If5yw8I/YmOE/adkb3xi/nZzJEQn/dST8p4uE//aQ8D8eEv5CiG3Car05MpvIsMmAiYoXTngzch8S/gnpjDO9pxx1+df6Fh4XwAiefRP+AKGzMF7IuSR+zz57tA6E/A9/uFxwQOQjDo+/wwX//t73uu5/++VXuj+6+MbDwxl97i9lDOEP8CUCvIjQ9geG//i/YXi+P0pJJkcmL/xxkFPHhyzojFBcioT/dKkZv1qwOTIVJPyPh4S/EGKbsFpvjux1ZHwCeCsBExWvU4cmT7MW/nA8tfQ7Uvi3BfOKKw7U00vLjZcUHhfAiLp9FP7+hXwX8jKJX+5qP8j5CGHvb/nHv09e9kr3yokbu9e/fnF1/fTp/s8wjSX88RvvetfRvsDwH/v3RRcdlaOdpvvE5EirV/zZCTtiVYqE/3SR8N8erQrXqbSDVuMnhGiTTTXfnNjriEQJACsBE5X3vW8xgMLWPp+WMFvh/8wzC4WIe7O9XX11111++dG/LZCwD394ubED5YUwom4fhb+/3R/hPfzahItf39V+0Ofj5z9/tC3sxhML4W9/4yo8BHlapzGW8Af+5AVSCf/AyQdc5f/MZ1ZPUmBdE/84p/RfnHz00NLzSxFZ4Y8ZKxp2Yq9d+qbutZsOftCX+9slSi2YEUv4r8IKV8bHmoKnJhL+22POwh99J45bat/5Tlwe3RE29fghJ607LrEWc1iIObGp5psTex2RKAFgJWAgwwQLq8P8C88imInyZBhD+GNUx+VgC1SJBc/tH5YXMnfhD/zdKIfPuC/jh5MAPm+jCV3OR2x77bVH28JS4W8WfTsfjCX805MX3//+QeHBH35yCb+9+P/AB7ruHe9YvDrib1z86KHh3zfcsDhZkiMr/JHrfma7tL9x8zOLK/7BshRWeEn4r8LGj/GRjd9UqBm/WrA5MhXmLPzhO46Zt9tvX/S5aTksujgyh/iJ/QZ3TEb5jjlYVIbcYay0LxdlbKr55sRsIsImASYqEAxYHTY0eKHRl06UJwN6HAn/FVoR/pioWTgPJ/bL+H3960flePnf4d0ACTkfcbX/0kuPtoflhD8ENcR5yljCP3xUAX8kIP1sPW+/fuLRQ7O/cWfEV76y3CiBvdWfaevYv1B4oR2hksR+dMn13Y++8cz6suDMBStcEYdSGB+xHtYvZa7CH1dQEafUPvShrrv55nhZ9OJKCf/tkROun/70+rG6446ue/e718th6eNWfViTTy13pT26+6pWO2CnDLn4TR0mfmK/yd35ghyJyqO7DFttBy3Car05MpvIsMmABvy2ty0aNywSOR4M7timKdhRXMJ/hV0Kf1z5tnDiQwn4B25/hyC3cpwEiMj5+J73HG1rlhP+sC9+cbmhYwzh7x9lWHlUAQUBeJ2ErW+WCn8YxH/URnci/HFwvDJY2v/9svd1P/7wgYJIl91zz9pZHFa4Igal4CdLfcR6WL+UKQt/hBh3d9kys0ce6bozZ9bLYUy/j3VTS1+H4i06cbdt4Y+JbOT3/fcv9j1atvbOjQNfmBwZAxxHaz7ecJIFIj0tR5zSeOcm7Oh/02OFp95wsjUth5UeL/R1yIV033AiFHdjpeUw/G7KcdtBDnbKkIvf1GHiF4E8io7jqVOL+KXlsKG7SsW0YHKk1XbQIqzWmyOziQybDBisIRSwOgx/94GOe2idycGO4tGME72ZhH8RYwp/iGP/1nv8x/4Ne8tbYtEAIh8xUcc7F30dsD7hjxMFKWMIf2hc+40vfGFZCFAQ4O/MMYuEPwzrpuxE+GdgRB0zYQfwvxTGR6yH9UthfGTjx/gYxS8n/O+9d7HfaTnsuP1+zRxh647ICX+I0bvvjpdNQfhH4hwGcQ6xnJZHjwMxE3Z2OGXA/jHxO247yMH6yMRvSjDxyxFdKe47OZR7b46YJkyOjNEO0PaivMndCdT3eOM+w2q9OTKbyLDJgIbj30k3NNFiJsqTgR3FoxknejMJ/yLGEv64/ddf2T8M3cF//N/I3Vw+Rj5C8Pjn5c36hD8m/inHFf6YLPnfWLltDgUJWJ7GAhYJ/ytP/Lj79Ssf7354/3Kmu7Qffuze7odXHuSIK7tgQRCZts4KL0bU2S6WghiUwviI9RhRwvjIxo/xkYkf6yNDzRxh62ZgJrM148fCxI/xEXWi7hqw8avVDlgfmfhNCSZ+DDVzRGwXJkdy7QC5gHpKDSeN0A94w1wP7xZOy4ObBGcBq/XmyGwiwyYDBlq8SRyrw9IrGCloaNimKdhRCOumMyb0ZhL+RYwh/NGRpy/gOwzdwX/SMqwXdfw5H6MX0/QJ/7NnlxsuQf7jm/9/52uvFF29iOLnr/bj3yugMCGXfjnh/7++/PHupbuXM92l/eFffqT737+j/D5upq1j/xjhFTWxHLaLpSAGpTA+Yj2sXwrjIxs/xkcmfqyPDDVzJFf3GM+o5yazETXjx8LEj/ERdaLuGrDxq9UOWB+Z+E0JJn4MNXNEbBcmR2r2I0x/NgdYrTdHZhMZNhkw0GJVsyEwKGObphijh0FvJuFfxBjCH88apy/gOwzdwX/SMqyH9VNyPn7jG133hjes1tEn/PFOAZxYwKQRv4VHY7Duz7zulQtnoftOAKTx8+8tgK1c7QcoTMilXyT8YVg3HYDZSTXT1vFbkfDKwQzizIQdwP8ScIvgTTd13a/9Wtm+sPFjfGTjV+ojYOLH+shQM0dydY/xjDozmUUdUfxQbsfBG96ngL4rLcdjGMe9isXEj/ERdaLuGuTil6NWO2B9ZOI3JZj4MdTMEbFdmByp2Y8w/dkcYLXeHJlNZNhkwHMzWBVW0ggZMTAZxuhh0JtJ+BcxhvD3b7v3hv+kZbDodvw+H9Or/n3CH4b3AuC7+vY31sU29jfeNbAm4Jek8cNVRdtu7Wo/wIIE1P2Lr3u+++iJVfv9E/ceWlqOddP9YSfVTFtH84iEVw5mEGcm7CAI3wrf+tbiWOIEzsUXL24hRNNGTkAo5mDjx/jIxm/IRw8TP9ZHhpo5wtTNDgfMZDYXP5TbcfCG/cB7FdJyCf8yarWDmjkyJZj4MdTMEbFdmByp2Y8w/dkcYLXeHJlNZNhkwNUPrAqLxFMKIwYmwxg9DHqzSsIfAg1xTe233/TooUXLUlG3b8Lfi2xv+E9aBsP6KX0+4vDidl973j8V/m98Y/yogVkq/GG4ihg+cuDihzsD/DsGos+YHS5IOWh0/+crPto9f2LV/ocTHzi0tPwfXX6QJElDZSfVWLe0raN5lAovwAzizIQdROEz7rwzfleCGY75uXPLlRPY+DE+svHDvpbCxI/1kaFmjjB1o05mOGAmszXbGAsTP8ZHNn4MbPxqtYOaOTIlmPgx1MwRsV2YHKnZjzD92Rxgtd4cmU1k2GTw30MvGXBrTlSqMUYPg96skvDHexUQ09Re/kuPHlq0LH0Xw74J/+iTe4ehO/hPWgaL3rw/5CNE+pe/vNget+1DzOMQQ/TjqjD4D//DrrvoovXfi4Q/HgP4/OcX23l8/PzV/v/+9QeNyVcwYK/e8tGVL3D0GQRsenIIJ/lwcq/0SiLT1tE8SoUXYAbxkgk7Tqjgs4t2Jwf+j7/9IxjRIx6R4e6N6NENxIIRJYyPbPywn6Uwgof1kaFmjjB1s8MBM5ll41dzPGXix/jIxo+BjV+tdlAzR6YEEz+GmjkitguTIzX7EaY/mwOs1psjex0ZnwDeSvjqVxcNG1Yycao5UanGGD0MerPcZeicHfNW/2imAtGG44Tj4O30B1/p/vCiG9fKYdF3c6cu/BG6NJyHoTv4T1oGi0LN+Pjf/K1Xun9+yY1rhx3P315yyfrvRcIfdt11yw0dFr/0av+zzy5XSMCyHF/5yurnN/sM6+HqNVIIqQvDyQkYTpQMtWPkTmlbR/Mo6T8MZhAfmrDjJA3EehQDlGM5Yo8TOtE6keHOgBRWlDA+svHDPpYyFD8P6yNDzRxh6kadzHCAelF/CWz8mDbGwsSP8ZGNHwMbv1rtoGaOTAkmfgw1c0RsFyZHavYjTH82BzbVfHNiryMSJQCshIceWjRsWPRG45SaE5UQKF38YKlFH/Uco4fB3z/3c4uHgi1gP/mTi/vFcXkVl1JT+/a3lxs7Co/LIZmZClxcc/uZV7o/fuuNa+Ww6LnlqQt/XK2OxBz+k5blnq9nfMzdMQEBmP4eLCf88S4AuxvDUvd3PvhUd+7a+7pf+ZWj9ZAeObC8Dxx/fKcft6xfdtnC8G+UffObqycGcLcC9sn+9ob18NbzHExbZ4QXYAbxvgl7yVV8LMcLGpkbdnCCxu6MQLw/+9mue8c7FvHEscPJtKEvoDA+svHDPpbSF78UHG9GeDHUzBGmbtTJDAfMZJaNX83xlIkf4yMbPwY2frXaQc0cmRJM/Bhy8cvd3ZizaFwX24XJkZr9CNOfzYFNNd+c2OuIRAkAKwEvFsKqsJJBseZEJQT3J+NHU3vXu7ruAx+Il6VKd6weBirJgmXKjZlxgsLjckjFmcrUhT/AbfjpN/fxH/83lmO9iF0I/5+/7IXute8+3/3fvvl89++97fnu3339891vnnioe+7EXd2dFx29fO/7X13ObIL77lFPCZgU/eIvLsxPkPBvpEK6b5FBFEM8R6AplbZ1thkwg3iuGTBX8XFyJCrPGU6k/Hf/3SK3ojsscNfEW9/aHx/Gx6l0I/AHx70GNXOEqZvsKg/rRf0lsPFj2hgLEz/GRzZ+DGz8arWDmjkyJZj4MeTih0dLcXxTw51yt94aLxs6wSrqwuRIzX4k6s+QG9auveGC5v33x8v25WTSpppvTswmImwS+Fuqn3xyWdgDOuJaExWKbfcw6C0sUDDrPbAP2JdSsG0p1lOVQPrYgvCHJj59elV44T/276Er1mMI/9xnBSPh//4TP+j+jxd9tPun7/ho9/1Lj16093858aHu5RPvW3n53otv+Gj3p3ccNCac2EpAXaXkUuSBB1ZvTukziOfomXamrbPNIGpiOXI+4hn+yJ8xDI9F3HXX+omn1HCzT3STEWB8nEo3wgovhpo5wtRNdpWH9aL+Etj41RxPmfgxPrLxY2DjV6sd1MyRKcHEj4GNX812cFwwD8FYgH30durUwse0HBY9XtkqTI7U7Eewbtqf5YT/3Xcvrs1Fy/ZR+IuY2USGTQZ0aFgVFmiQNdCpTaKD3nYPg17EAuW/wYZ9wL6UUnhcDrGeqgTSxxaEvwFhhW/lH4bu4D/4P/7OCS5jDOGPQSJ6C3zuin+p4bbzX/3V5Y8kYHkpuRTJvRwxMjwKgCsxKUxbZ5tB1MRy5HxMP8k4tkUvdYwMT/sEN25QPk6lG2GFF0PNHGHqJrvKw3pRfwls/GqOp0z8GB/Z+DGw8avVDmrmyJRg4sfAxq9mOxgDzAOwf94wX8aXfNJyWHQivVWYHKnZjzD9GTMetAqr9ebIbCLDJoOfPKPDGmIyHfQ2exi8hc2ChEuAvldne5jC43JIxZlKS8J/BSJ+Ywh/ED1ycFzhD8PV4uj9C1hWSpQiOAuee64/Z9HL7Ji2zjYDZhDPNQP2XZu1DCdxfFeEkwCIG+5I+d3fLZsETqUbwX4zwouhZo4wdbPDAer1x7cPNn41x1MmfoyPbPwY2PjVagc1c2RKMPFjYONXsx3UomY7mBJMjtTsR7AutimBGQ9ahdV6c2Q2kSlJBkxMIWYwcfa3A7/3vcNXUSfTQW+rh0GwcFrXgvTww4tyg+1heo7LGhVnKhL+q/QJf6TAzTd33eted5QGqfDHCwZxfij6AkDOUsFoYFkpUYpAaF599frv9RnuoEhh2jrbDJhBPNcM2Cv+b3972ef82NjB8PI/gP3ESSJ7PAW/h/rwyErfs6pT6UZY4cVQM0eYutnhAPVG7TSCjV/N8ZSJH+MjGz8GNn612kHNHJkSTPwY2PjVbAe1qNkOpgSTIzX7EayLbUpgxoNWKdF6c2c2kRlKBtyyhFtTc8+uYsKKT4blmEwHva0eBvdAW3BwAiC9p5ftYVBPKRVnKhL+q/QJfwOHAs/7o41A+OPb/xB1EM0Q22gXJvhKzQSjB+Wl5FKE+XQd7OzZ5YYOpq2zzYAZxHM+ss/4Y33c2RA9umGGuzB+7/e4LwDA/syfWZyI8CeHvOHlgngZYO75wql0I6zwYqiZI0zd7HCAelF/CWz8ao6nTPwYH9n4MbDxq9UOaubIWCBWjEUw8WNg41ezHdQi5+Nzzy38SQ1Pi2KukJbjcdvSdroLmByp2Y9g3dI4MeNBqwxpvYjz588fzPXOdqdPn+7OnDnTvfjii8slRzx/0BCxDOs88cQT3WuvvbZc0h6VujeOl19++TCYdrBwANKgPvbYYxeWY11sw2DbwlKgWSH6sajPIBrw7esIdFST6KC30cNAzfkzJNHbD9keBvWUUnGmIuG/SonwN5D/f3Txjd3f+dorK7dx594H0GcQoykoLyWXIh//+Ppv5Qz7jMlKCtPWS5oBYoX9whuc8bs4iYLJUPTbnpyPqK/0BId/gSH6NtzthJM0uOMJJ28g9CHc7dGL6IWOfQbBX7JN7n0AU+lGcLxx3GvA+lhroscOB6gX9ZfAxq/meMrEj/GRjR8DG79a7aBmjoyBxSm1m25aWLQsyrMofhjHLFbe8JZ0vC09WpbezcTGL7d/UybnI8YZ+JIaBD7iFy2LxoSpwLSxmv0I1sU2JeTGg+hdDbDvfCcujx7FnAp9Wi8Cot9vYwahb5w7d25tOXRoqxCpWwcI/DSgaVC96Dc7efLkcmkZftsUvEys9EoWLm57UWNMpoMeo4fB92Mi53OG2X06wuV6mByopxQbVUsge1EJ/1Wywh+v5/Wzp6X9q4uu7P7VB9dP33/7kvu6K0/8eCVtcgbBjccDUrCslFyKoO3i8YP0NyODEI8mHnCptK0PNQN8MjC3PxDg6AZzk5++ZvD5z8d1est9shCPNWGS/Gu/tj6h8O/yHNPQhUS+TKUbwfHGcU/B/rk0v2CIX3QVC5aOH6yPY0z0Isiu8rBe1F9CLn45sG6t8ZSJH+MjGz8GNn612kHNHKkJ4yOI4pcT/ugT8bb0aFkN4Y/xAMNv+lv40s6ZM+vlsFptKaLVHGFh2ljNfgTrYpsSsA/YlxSUIddSwwWAqDx9sndK9Gm9CFxoxrqnTp06vNJvf3uNafU9/fTTB23p+Qt/sxegpwKRunVAIC3IOAmAQKZB9X9jHayLv/0ZmSGsDliKXWkrsdzzx2gM2+xcs4zRwzABgSEoac+T62FyoJ5SbDQrgexFJfxXyQp/nPJFwif25bc+0/3wmfXyhz7yQvE343Mn17CslL4U+fa3yx89wNWIVHgzbb2vGeDkxtAJR1wt/9jHlhsk5HxE7PzrNyLDyYbc3Usg5yPK2Mc2Sg1fXEiZSjcCvxGTFEzssSw1iAE8DZWWR++KYX0cY6IXQXaVh/Wi/hLgexS/HDXHUyZ+jI9s/BjY+NVqBzVzpCaMj4CJX80cidpBTvjfe++i7rQcVqstRbSaIyxTyRGsi21KwD5gX0phfJwKfVovwu42Nz0J8e+3N03qTwTYxWjc8t8iOz+suIUCAfUBtKAj4HYQcDbGwLps0K1OmAeTZPalVdHzxzUnKhRj9DAS/su/+pm18M+QG4QgkPAst0+byHC1H8I8AstLGUoRCDDcXu5FLN74j99PX45n4h/tG3Ui3XE1F5Ov6ASFJ9cMSuMBe/Ob45jkfERfZNu+7W1d97nPHfmE/+MxiqH97uvPPvOZ/LtQzPBOgJ/4iXhZzlBnepJlKt0IYsEIL2Y8YH2sNdEju8rDelF/CTXjx8LEj/GRjR8DG79a7WCMHNnFFWurpxQmfjVzhGkHbI7UomY/MiWmkiNYF9uUgH3AvpTC+DgVclqvD7uoDOyKPp7nB6ZB/V3opkFtndaY3GFNz670BT19xgJlJebZ5Pnj437iqypj9DAS/su/+tkr4Y/ZGBQuEtnZv/q527s/vvjg+Cblh4bZW0LfIHTu3ELs5q78Q4T3vUAT65RSkiJwGc/R40oJroDjCi36A4Bt/b5ByKZXunE1Htv1/U6uGeC1GMwJRwj2lMjHdL99n4S/S8HhzfVniBu+fhJd+UdMcIyxLftYgIR/GbUmemRXeVgv6i+hZvxYmPgxPrLxY2DjV6sdjJEjOeFf84q11VMKE7+aOcK0AzZHalGzH5kSU8kRrIttSsA+YF9KYXzcBdGNpydOfLTHrl9uGWP6EwbtCRgN2gqTOqw+6OltF7WEP2BeWIV1A71TdaJCMUYPI+G//KufvRL+IHjDC27b/ytv/95a+aEFl42HBiFc6Uazxe5C+F5++eL/N9ww/MnMWikCV6IJE7bHbw4Znk/HVfWIXDP45CfjunIWieLUR/jht0n9R1kpJf0ZjhfufnrHO7ruoosWQh99oz3Xyn5doMVb/XMw4wHrY62JHtlVHtaL+ksYI37onlCe2oc+tPisaLQsekEmEz/GRzZ+DGz8arWDKeUIA+MjYOJXM0cQj9J+pGb8GGrmyJSYSo5gXWxTAvYB+1IK4+O2wXzonnsWOe/txIl/dGC4ah9ZIN6WeP2JW/kNCf+K+KDj5QrGNoQ/ruCjuMRwd4BdFfQg4Uo76KqM0cNI+C//6mfvhH9AzUEIb/LFTQZDt50btVKkb8KU3vafM1z9jtp/rhmU1msWNTHcZWZ3mkFs++f6I39QXgrTn+XihxMD0V0BkR3n5X74HTx6YV8ywP/Rpw+dSBorRyKY+LFdZa2JHtvWUS/qL2Gs+KEsNetHomXpyTLAxI/xkY0fA3xh4od2UArTDqaUIwyMj4CJX80cYfqRmvFjqJkjU2IqOYJ1sU0J2AfsSymMj1PhxIkbDyzWfrCInP4EfRrUnyBoiUkcVv85hVzQaz3jD9BoSiaouEUZz7dGMB10VcboYST8l3/1I+G/zlQGISZFchMm9jGg6Hb8nI/s1XB8Zg/gJIl9khB3Adiz9m9/+9G6Y7wccawJJ8bKkpc6bvo5v9wjBzCUY3mOMXIkBxM/th3UamNsW0e9qL+EVuPH+MjGj4GNH/K/FKYdTClHGBgfARO/mjnCtIOa8WOomSNTYio5gnWxTQnYB+xLKTkfkWuMbRMv/EvAs/3Ql1g/1Z/A61N7DwBOAuBvvKOuRYjUrcNQ0LHcgo6zMvh77Lf6g699rV/84xZ/TOztNtYUpoOuyhg9jIT/8q9+JPzX2cUgFMGkCNptNGHCM/944Z+l+ZBh3bR/yPn4zDPl39qHQfijeyz5FGH0KUSAZaWMNeFEPNBv4op+up/e/u7fXW6Q0Jcj+AzrUL1YjvUixsiRHEz82HZQq42xbR31ov4SWo0f4yMbPwY2fsj9Uph2MKUcYWB8BEz8auYI0w5qxo+hZo5MiankCNbFNiVgH7AvpUQ+Wp6lhk/YwqJlpTk8Bqzwh+609SHovRkm9KE9Ta/C7ERAaxCpWwf7nF9kuNoPan/H38DzgHiDNlYxw2QeE3R8Fzsn+sG2kzvLGD2MhP/yr34mL/xxDPxxKrHkOJLh2/oglINJkdyEiX0OHycO0z6gz0f2dv8Swx0AeOFNBJaXwvRnufh5cCywb3Zy9Q1v6LpLLjnab7wfICIXP/iIFy7a9n2G9aKY+Eclhijx0cPEj20HtdoY29ZRL+ovodX4MT6y8WNg44e8L6XicFo1RxgYHwETv5o5wrSDmvFjGCNHUEfwruHDR7owVqTlt9/edf/Jf7KIQYnlxkiGqeQI1sU2JWAfsC+ljNGPRC/g67PSRz9zsMLfa8PUDH+B2qzVq/2AOKx1sDMpkZnwB178Yxtc/Wfw9fbxV/7KItlh0LO46lfSSaDzQdLunDF6GAn/5V/97ET4I67mvzfELyoPcmHOg1AE2i3abwo+L8W8+JNtBvhEX1SPN4hl5q4DWE5EY1kpTH+Wi18KbuXHuhD/v/u7B+3n+0ePKsDQ16bk4oeXCtp2JWafYM09KoGyvglHqY8GEz+2HdRqY2xbR72ov4RW48f4yMaPgY0fcroUpq+cUo4wMD4CJn41c4RpB2PED3XAd8bS/RsjR2ysSC33Po9//99fiH/47w0X7aJyvBQuerSMAb6XUjNHsC62KQH7gH0phfExamOIcfQCPhwTHJu0HPbww8uNN4QV/tCZOUuB7kR5q1f6DeKwtk2p8PefoLr11mVhAUhYdEA7Z4weRsJ/+Vc/UxL+v3/i3rA8yoW5DkI50G7RflNwyzzzjL89h+/J+Yi7hxAr2/bii1frguG2/m99q+v+4A/KnpM3i5ojwLJSmP4sF78cPkdwjGy/cUIgFd+5+OELALZdiWF9nGjpe1QCy3In8Vkfmfix7aBWG2PbOupF/SW0Gj/GRzZ+DGz8kM+lMH3llHKEgfERMPGrmSNMO5hK/GrmyBhtPfd1EMz9P/CBeFn0dZCp5EjkYw42flPpRxhY4T9HZhOZEuGPyTgWw/CZsTvuWC4oAJ1DaQddlTF6GAn/5V/9jCL8M6PQq2+68dCiZdFnJZjwaRBaJTdhwtlqvHTO0rzP0F9Ez5LnfPz0p4+2heD9m39z8WgB6vngBxf7biKYfR8A1sU2KVhWCuJRa8LpcwQx9o88IC6eXPyYOzFgeKyg5NGA3GMBrI9M/Nh2UKuNsW0d9aL+ElqNH+MjGz8GNn7I5VIqDqdVc4SB8REw8auZI0w7mEr8aubIWG0dsUrt3nsXFi2L7g6YSo7kfIxg47ftfgT7h99kLPVdwn+Y2USmRPijgWMxzF5SUQrTQVdljB4GtzpYIEoMb9AqfatZDtRTSsVRaOvCH3HzI8zS/ou/9N1Di5ZFL5tgwqdBaBWENNfWmU/S4YpySuQjyvx2XqRH8dvkJYPRbfNYVkrNCWfqI7b3+++vruRyxN+ZNbZFj0qwPjLxY9tBrTbGtnXUi/pLaDV+jI9s/BjY+CGPS6k4nFbNEQbGR8DEr2aOMO1gKvGrmSM123qrOcL4yMavxX5Ewn+Y2USmRPhjsozFMFx9YzpRpoOuyhg9DC41+o+Cm4qYQQ+zdeGfgXERMOHTILTK0ISp7xZxf4s+nhdPbwlMfcTVZP9ce+p/FD/m5AMM60bfsMeyUmpOOCMf/R0QWG5XWHI58uCDqy8HHNOiG5hYH5n4se2gVhtDnai7FNSL+ktoNX6Mj2z8GNj4IY9LYfrKKeUIA+MjYOJXM0eYdjCV+NXMkZptvdUcYXxk49diPyLhP8xsIlMi/PESCiyG4SUiUSeKztUS3BuSGLcJpeWPPx7fJlSNMXoYzKotELj8ZQ7MoIeR8F+F7aBbTJGSCZO9FA630UNwwvDcOPoJf/UZots/iYHPhOJlRADNyK+LW9zTviGKH9YpfYM9DOtGfQ6WlVJzwhn5iPj6kxt27HI58vf/ftdddNHR+n2GxydK14VFj0qwPjLxY9tBrTbGtnWmH2k1foyPbPwY2Pghj0th+sop5QgD4yNg4lczR5h2MJX41cyRmm291RxhfGTj12I/IuE/zGwiUyL8kYhYDPu934s7UXSuluDe8FkovAU8LW9O+EO1+EuS/qPge9TD4JjgWKb2D955X/f3Pv7UWnl0BVXCf50WUwTHl5kw4ZNC3/ve8o8DLEbWZN72tsVJQDyHjhf+QXii/K1vPVoHTSzKqVz8cNdB+qnRyLBO9MgBwPJSak44cz4++eSRH3hc4T/+jxcnR3AiA8fS4gVR7ruoPsPJBByL4z4qwfrIxI9tB7XamOVxKUw/0mr8GB9z8cP28Cc1vEjs1Kn1clyASJ/mYuOHPC6F6SunlCMMjI+Aid8YOZID8ShtB7n4Yd/Mf2/RhSpY5IstK6FmjmC9Wm2d8RFMJUcYH9n4tdiPSPgPs9eR8WLfW4R/sR8mizUHoaoct4fxtz3g35496mEgHnB8U/vOG+/rHv3Jp8Jl6Uu/JPzXaTFF2LaOddPJGHLDX7EeusIcPYMP+uJ3552L12lE9cGw7BOfWK4cgHVKiXzMwcavz0ecVDF/0hgivumz/W9/++LEQPqyP4h3nGjBoxdjPCoxRo7kYNtBrTbGtnWmH2k1foyPufihHL6khlxGPxAtS0EZEz/kcSlMXzmlHGFgfARM/MbIkRxMO8jFD/tm/nuDj1F55IstK6FmjmC9Wm2d8RFMJUcYH9n4tdiPeOHfp/nmzF5HJD34ZhG4sI1FMOtsaw1CVTlOD+ODgEtq6dvj1cOsIOG/Tospwrb13GTsH/7DslvK8Wm+6PNAYCh+v/Vbi/cN4Dl0qw//RhmW9YF1S8n5GMHGr89HXAE1v4YMwgn14KQt7qyy7/Pj/xBUdtV0jEclxsqRCLYd1GpjqJNp60w/0mr8GB/Z+DE+svFDHpfC9JW7yBGU2z56Y+6ytGWlMPFTjqxSM0dqtvVWc4TxkY1fizki4T/MXkYEk2p0gCdOPB/YC4fLvOEZ3AceWCQ5DI+4s53oZNi0h8FI6S+nIQgp6mFWyAp/PLCMBErsR5dc3/3oG8+sLwu+H8a4CJjwbZoiJbSYIjgETFvHutgm5TOfKf/MXO45/JL4Ib0QO3x8A4Z/o2wI/G4pOR8j2PjlfMR5x2uuWY9VZHicIvi4xeGyiOM+KjFWjkSw7aBWG2PbOtOPtBo/xkc2foyPbPyQy6UwfeUucgTlto/esB+l71WyZaUw8VOOrFIzR2q29VZzhPGRjV+LOSLhP8xeRiTSXSdOfHRpv7m2DPZLv7RIchgmoChjOtHJkGshEJep07jfHW/vx7+/9KWjAECV/ON/vNzQoR5mhazwf/jhRfIkdv7Sd3U/vjXzUGcyU2FcBEz4mE50DoMQ0h+HoRSsi21S8Dy/NaEhg8D1r88wmPjVzJGcjxFs/HI+XnfdepxyFr15H2BZjqFHJWA/93PLlRPGypEIth3UamOok2nrTD/SavwYH9n4MT6y8UMul8L0I63mSM2+UjmySs0cqdnWW80Rxkc2fi3miJ7xH2Y2kTk6+xNnvX8GFEnJdqKTIWohOBOCW/fhpDe8vhrfI4MKSb9L9t73Ljd2qIdZgb3Vnwkf4yJgwsd0omz4WkyRMSaceCqm9Gq12Re/uNzYMZUcqTnhjHzE3/7xhSHDulEOY1kf0aMS9vJFGM6DRncSjJEjOdh2UKuNoU6mrTP9SKvxY3xk48f4WBo/nD/Gushl3PkY5XIK04+0miM1+8rWcsRgfJxKjtRs663mCOMjG78Wc0TCf5jZRKZP+CMJkSMw6GHAdqKTIWohcJCZVcNw+S1lpj0MqsDjIMgHb3/9HU91f/eq+9bKYdEz3Ez4GBcBEz6mE2XD12KKjDHhZF8gB/vsZ5cbO6aSI5GPOdj4RT4yt/mbRSdOUD5E+qjEt77VdT/xE0f1Rk85jZEjOdh2UKuNsW2d6UdajR/jIxs/xseh+EHwf/nLi0eNrB/C//GSy9On+08AMP1IqzlSs69sJUdSGB+nkiM123qrOcL4yMavxRyR8B9mNpHpE/7+nXb2Inu2E50MUQtBK5PwLyOIn11FSe1/+NWnuj+8875wWfTMNRM+xkXAhI/pRNnwtZgiOF7HnXAiR0qf74ddffXi83UpU8mRmhPOyEf2jonok3sAy0rx8fNjACx9r+kYOZKDbQe12hjb1pl+pNX4MT6y8WN87IsfRP3Jk/lPXOJlou98Z95nph9pNUcYHwHiVkoLORLB+DiVHKnZ1lvNEcZHNn4t5oiE/zCziUyf8McVHuQIzBKX7UQnQ9RC0Mok/MtgehjSRyZ8jIuACR/jIhu+FlNkrAknvjlvzWfI8JRN8E7HyeRIzQln5CNOnJR+mx+Gq5nR/mFZKWn8/JdM8Z5Tz1g5EsG2AyZHfuM3FncrlcC2daYfaTV+NftKxse++OGKPsS95W7O0D9FMP1IqznC+AgQr1JayJEIxsep5EjNtt5qjjA+svFrMUck/IeZTWT6hD86S+QIzF64xXaikyFqIWhlEv5l5OKXxmfIgl6KCR/jIsBPlsJ0omz4WkyRsSacuEqM58d9GkQGgYvbciOmkiM5HyPY+OV8RExKxX9OxGBZKWn87FUo9hv+joKxciSCbQdDOYIrwPaFCbxw0t5hcNtt8ckmg23rTD/SUvw8NftKxsdc/PBIWekjRnixZfTJT6YfaTVHGB8B4lXK1HMkB+PjVHKkZltvNUcYH9n4tZgjEv7DzCYyfcLfD5x2izbbiU6GqIWglUn4l8H0MCRM+BgXARM+xkU2fC2myJgTzq98pX8iDmH5vvctrnBHTCVHak44cz4iJni5Xhqz1HByJb0V38DyUqL44VNg9js4jpuOB0z8mHYAUY8Yff/7y4IE/OZb35q/AowPtnzzm8uVE9i2zvQjU4kfKGljyC/kBmKJk0z499A2bPwYH3Pxw3tCouOcM38nC3IJJw4+8pGF4aJH9Iiap9Ucidp6H4hVKYyPu8iRHIyPTPxq5kiNtm60miOMj2z8WswRCf9hZhOZnPDHAI/8gPlEZDvRUcAzB/jR1N71rrj8059ebuiIWghamYR/GUwPQ8KEj3ERMOFjXGTD12KKjD3hxGQagsE/s45n+nF7P65q50Q/mEqODPnoYePX5yP64xtuiD+7BzELMX7u3HLlAMbHKH44NhBH9pvWxY6dI56SdoCcQlzwbgN8gAXxQT75/YdoKzlxghhG+8a2daYf2XX8PH35Z3dLRO+bQNz62i8bP8bHXPyYx4tguAMEWB/lT1LCZ5xUw8suc7SaIzX7SsbHXeRIDsZHJn41c2TMtp7Sao4wPrLxazFHJPyHmU1kcsIfyYT8gNmL/QDbiY4CWgN+ODXsXFQe3bcZtRDUK+FfBtPDkDDhY1wETPgYF9nwtZgiaEpjTzghIHAFDc9XIyZ4kV/fbdbGVHKk5oSzxEf4BaELkYtb1iFyIcgQ1z7GyBH4g3rMvvSlxRVRdKFnzx49DtYHE7++dgCRiWe4vUDzhhMAEH+IS+mz3rB3v3tdwLJtnelH2BwZK34RufxDPD7wgf4Y4o6dO+5YbpDAxm+MNsYKf+w/Tmbl8gmGEwCf+MTyBxJazZGafSXj4y5yJAfjIxO/mjkyVluPaDVHGB/Z+LWYIxL+w+x1ZI7EvrfVrPcv9sNtngbbiVYFO1dK1ELQyiT8y2B6GBImfIyLgAkf4yIbvhZTpOaEk/VxKjlSc8LJ+Iirj5/61PKPAsbKERwz1AW76KKjf8MgjHBXQN+JnLFy5Fd/Nb77IbWf/dny9yPAoqv+bFtn+hE2R3bRxhDrkmESxz+6Ks7Gb4w2xt7qDys5OTSWj1PJkZp9JePjLnIkB+MjE7+aOTJWW49oNUcYH9n4tZgjXvibiVX2OiLpwV/Yatb72zp9B8t2olXBzpUStRC0Mgn/VbB/qc9DVup7BiZ8jIsAu1eKBqFV2LbOTMZYH6eSIzUnnC3kCN7VkAr+1N7+9rwfpfHDyYMzZ7ruwx/uuhdeWBYuwTI8kx/9dmq4hRuPAUTLIsNdFP5EN2Dbekk/AvGIMfaSSxa/i2Hl4x8ffpZ8220M+4O7StI45QzrprDxG6ON4ZZ9Zr8Zw8mh9A6bGjlisP0IE7+afSXj4y5yJAfjIxO/mjkyRlvP0WqOMD6y8WsxRyT8h9nriKQHf2FHWY9b+/xVEj/IsZ1oVbBzpUQtBK1Mwn/nMOFjXARM+DQIrVJzwsn6OJUcqTnhnHqOMILbvyzNMxQ//AZu04ZowxgEYQyhhb8h5sAjjywEevS7Y9gXv7j4HYCx7/d//+hOgNxz7J6+fgT14SsCuHIc/TaeJf/2t5crB2y7jeHxjdy+RoZ10xdMsn3lGG0Mv4n3h0T7mFrpemb7dFdIzb6S8XEXOZKD8ZGJX80cGaOt52g1Rxgf2fi1mCMS/sPMJiJHSXCU9f7FfpiEedhOtCpM4kYtBK0Ml4TM2RKT8B8dJnyMi4AJnwahVWpOOFkfp5IjNSecU8+RO+9c1FNiEEcm1D198cNb9ftOLKBOPIcN4RwtH8MwHDzzzNG7AXC3gF05xu/jhMPQiyj7+pGSfY+EpbHtNoY8iPYxZziPbr4jRniHxy//8uLTiTihkouL57htDMfOP+Ofu0MFt/a/852LT/mVPDZiNsZdIb/4i133G7+x/GOAyMc+mPjV7Cv72kEKG7/j5kgfjI9M/FgfmfiN0dZztJojjI9s/FrMET3jP8xsIhMJf3ynGbkBSxsD24lWhUngqIVghvDzP991N9105DDemoXvimGmgstWqeHhwZQ59DAVYcLHuAiOmyI52PC1mCI1J5ysj1PJkZoTzqnnCHuO1F85N3LxK72bAFeU3/CGeNlY9uf+3OLKe+6Zb9yJcPLkYviIyPUjuL2/9Oo5vkIQnVyo0cZwogPHCkPeX/yLC7FuvqEO5qY4nCTB/uGkD3xIr6ajrve8Z/3xDU+Jj9j+k59cnIeHsMfQjHnLv/gXi3/b7+FY4YV8EOs4oYIy/B8ndHBiB36ydzVgW/yWp2Q8wDp28gyxtvaEl3P2PeLB9iNMjpT0lWib2G87AYb9xgmsvmMIcu0goiR+HsZHNn7wsZSS+Bmsj0z8Stu6MZXxtGaOMD6y8WsxRyT8h5lNZCLhj2RCbsDSAY7tRKvCJHBfC8FnC8xhvNVQPcxWYcLHuAjGSpGUOaRIzQkn6+NUcqTmhHPKOYL9Yp+KggBLycWv5lV8iEMTfWMZTgp87GPLnV8y9I17CN6orsggmCHAU8ZsY/6xivS34QPEO0Qx+1jFL/zCsJDGiZWccOzzESdDcMdFdDwhyCGofZnddYLtUKeV+ZM2+DfzHohNHmfA3Sy5HEQuIR65z3Gy/QiTI1Fb9zz0UP6EHPzBschRczxlfGTjB99KGYqfh/WRiV+r42nNHGF8ZOPXYo5I+A8zm8hEwt+fMU8HZ7YTrQqTwLkW4p9rgGE2pB5mqzDhY1wEY6RIxBxSpOaEk/VxKjlSc8I55RyBcGLejg/DFdmUKH6s8GIMovXzn++6z31uXeB6w+/jtu9oWc4gACGMsf9D37jHOqyAZu6YiOjLEQx7Q3dYICYlb7rf1KJPJ4I+H3GypTQPo74c5RF+zjNkOCmS7nffeIBYQ9hHdXnDOtGVf7YfYXKkr6/EIxBDsUaO5MR/zfGU8ZGNH/wqpS9+KayPTPzY8WAq42nNHGF8ZOPXYo5I+A8zm8ikwh8TFOQFDJ1+OsCxnWhVmATOtRB/tR//BuphtgoTPsZFMEaKRMwhRWpOOFkfp5IjNSecU88R5oo1RC6Eg4FYoE7cNYCr+3hG2kQOlrFX5PtEvDeINIxpALe042+/La5u47dxZRNj3U//9Or2Q4bbxUu+cX/rrfwjCogTQJzwxn+/37hSH31WztOXI8yxLDX2JAF7VwNzSz6OcwSWRaDdleYg7ipIx4k/+IPFow2WawZyCo+FRPVEhlvqU9h+hOmjcm2diQfWi+7eqDme1uyH4VMpufhFsD4y8WPHg6mMpzVzZOrjaUTNHJHwH2Y2kUmFPzpJ5AUsulWT7USrwiRw1ELSq/12/556mK3ChI9xERw3RXLMIUXYts5Mxlgfp5IjNSecU88R5hl1GF6d8v3vL8RMKiJwYgBXOPE7iFOpyIBh2//gP1iIu2i5GW7xT2+fhjDDCYC77uq6n/qphfD0MWffYwAxX/IIxCZXzv/aX1u84T93tRjHAicHUrFp5HIE5cxjG7gz4Pd+bxHvyA+c2MDVewyf73jH+vI+i4Ruro0xJyvsbowULMuB2/H7rszj9T/+bzwG+Y1vLE7IIG+wHFfAkXf224gJ02awfXo82X6E6aNybf3s2Xj/coYTUykl4ykeu/B3WyCOyAnceNlHzX4Y+1FKLn4R7JyhJH4GOx5MZTxlfGTjN/XxNKJmjkj4DzObyKTC37/Y7wtfOCxage1Eq8IkcNRCoqv9QD3MVmHCx7gIjpsiOeaQIjUnnKyPU8mRmhPOFnKEfRZ/6Jv/eJv6n//zw+t5M1FnV8Lxt7+NHicRcEW87+Vjufixwr+2pc+sRxadoAc5H/EIRlRPzuxDNhCkeKQBfyPesBtuWP3KQbR9n1ndnqiNoX5/jEsM4jUF5X0gp5Dj+C2c0IBBjCOf/uv/ev2RgNzxQU7eccfirhdsH60TWXTComY/nGvrzKMPsOg4IveQgxE4nrhbJnfCDyebvva15coOnBDAyTr0lffeuzhxYLmXg40ffr+Uvr4yhZ0z9MUvhR0Pxh5P0W7Q3ixv0F7wqNLQCRzGRzZ+LYynKTVzRMJ/mNlEJhX+XgtHCcV2olVhEjhtIbmr/WCfehiMiri8hYPm7fbbF5d90nJY+q2iyjDhYzpRcJwU6WOfUiRHzQkn6+NUcoTxkY1fCzkC8QdhlLuKiQk78xz2JuZv3wfoutFl4STCAw8cvdCtj1z8WMHD2iWXxOXHMdx1gCvPKTkf2dv8o6vQn/rU4gp5CgRgVEfOopMWURtjr5zDorsJUF4Chk0IS5j33fI//a3I0AY++MH1OwX6DHcP4I4Uz9j9MHzDyRqfBziBg5M65mvpozTeUpB7yMEIiP6hEznYB3ucxfYZZf5LEThxgLtN+k7ysfFDvaWUjjUQxr/7u4v9xf4MnawAffFLYceDMcdTHKPcnTK5EzgG4+NU5lw4lvAN/y+hNEcA6yMTPwn/YWYTmVT4I+mQFzCvhQ22E60Kk8BpC8HtDOaov9oPptLDAMbHXA+DA4kDl9r3vheXl/ZoJLiSYbvoDYMhJuxpefpFCWDLSjlOivSxbykSgVQYc8LpYX1k4lczRxgf2fi1lCOY7OGqDuqFmE1v0UVbZ0VuyVV/iL/cs+1jxI/5pjsj6GAQLP/Ov7MqXCJ785u558JhEG4GTnzgTgic18UxgFD1z9LjOEV15AzHNiXXV7J1l77AEEJpG1f8Pbl28J//5/Veeghhm14lHbMfxlQAQjk6MQefcFIN6/xb/9b68j7DSYSUXI4gP3NX+lODoPzDP1x8YbnvZCLqw2MxEWz8UF8pQ30lTqTgJAfavL3jA/sKX4b62Fz8ItjxYKzxFDEfOpbohyLxj5M1H/5w1505M3xnAMD+Yr9LKfUR60AOYF/6TiBh3MGJTeu/8X/8nRuPjKEc8bA+Mjki4T/MXkfmSOx7u++wkzr456GhY4pgO9GqYEdL8S0EwtaPIukZjlo9DGB7aMZHpofZATnhj6sqaRlOBODKYVr+kY8sLC2HRYdg0xQZYg4pMuaEM4X1kYkf4yNg4sf4yMav1RzBhCkFJ+2YW5wh6r761f43zWOC+elPL38gYKz42QmNPoNIwkv9mGflsf+IF2Ib+YmJJH4bk2AI4nR5nyHWEEi526d93aw4j67K5/pK+DckBMywXjThz7Wx2s/4p+TaARs/xiD8U9h+JBc/zO+G3osBK3m8xBtO2P3lv7z8kSV9oo65qwb9wtDLM82QT1H7/9t/e/GbJVfZAeoqpa+vxLQy914MGE4wok3aXRYpuTYWsYvxFNNovNAy8i019HeWBzjxgzzH8cKJSUzF8bf1Tzmwv9jvEpD/OIGKuyxy17HwW/hN9OE4uYl9wT7h317M4/j03eWGcjzWk+YX7txBX4G+GYZ/p3fzpDA+AiZHTpw4dWAfPbA3HdhC94lV9joiq4Lf7L7DgfLgn4eWG2jYQagq2NFSfAvBt/rNUdwGn8K2vrFmnBGMj32jUGMgnOaON5wQiO4OgEWHYNMUGWIOKTLWhDOC9ZGJH+MjYOLH+MjGb59yhH2OHBMu1GWTMUwEMSG0yRj+HrqFf6z4YR/e9rb8hB37hSvy/+1/y91+7m+Zx28gxjffvJh4Il7+qnzp7eRmiM9P/uSwQGLvwkDso7j39ZW4Zbzk6nz0FnyQa2N/7++VX/WPrkADLCsl1w7Y90DguJdsgztIfv/3lz/iYPuRXPxwUqhEQG9iyD/8ZomoY+PH3FkDcQXs0QD8Fk56IW9g2I++q7oA9ZSSyxH8Pu6sSPcvNRwPHJeIvjaWsovx9JFHytsjDH0cTtwiN6LlMJwgiB4hAthf7Hcf2E/sk/0G7rLA8Ud/6k8A4E6FvpPM6Nc/8YnFuiXtxh9H/A5+D3mfroeydF8A+kH0/3/xLy5OvOHE79BJAoBHrkruOFjsyx8f2KsH9q8O7P95YIH2mTkHh2h/yQl/JMjBPw8N2jiCHYSqgh0txXpRtDh/tT+6LFDSw3hanLHPhE1SpIQ5pMhYE86IXUxUcjDxY3xk47dPOcJOCiF+ve8QCbhaOHT7pWfM+GEihokcRJtN4DCZhE/+ZXalVy9zE/yx4gdjHz0YWh/7jLuuIvr6SsQGvvZN8M1w3j29Uha1MayDdaM6UsOEPr2Jz8DyUnLtgD0ueAwDk/2SR0iQw+nJELYfieKHOpHL0W/mDO8niMRLn/mpVWo4Lv/pf8rvB2M4Nn2PM8CQl1/5yjIwAVinlPvvX/RTKcib0keGsD++j0MfBhGIr44g5yEAoxNknl2Mp+zJSfhZcqLU3x1g4IQSLvggpnifS9q+0T/gJGpfzPHYCLaDBOj7eocZThqgry/px2BYD0/PlnzZBOtYvwffcGcITlD4ddD2orsgkAs4uYrlyHf04+hj0mOE44vt8zF5tfcOujlyEJZ54IW/f7Ff7mwTOwhVBTuaglb9/2/vfEJvS656f51kEDIIj6DBBHmE7ohBNEiQeG3iTDMyaVQIDsygyW1QMAEbDCr4HLR54iCXR08cqfQg4KORJnglIATJoCcNOpPmThx1Bm+QQfNeeLzBeef7O2edX+06VXvX9/xO/X77z+cDi3t/+0+dWmuvVbtWVe29Vclc1ILqY83pVJS+N6V9OYoYtYyt3HePXS1Grp8k3kZU2jd151gpJfPVGOvM5szdRWrUbuIl5DZ37XDWeIiOSg3Hfo6Orv3W5CMaT3VmwzUzl9PTR1rLVrOpWVh16qRrnqTq91o6hvkLCYOa/dQZbO1wuqKl2X/4h7cvSysdo98uLV8NZDvZcAzpEAMj6pyqk6pk4c/+bPhbeedTx+QxlvZNJKWkTgnl1IvedFwrtThQZzr/7TGJT92pLNk1fTxE9leCkc4oymapr7jtSKmN0t+OPykJ0fWVLWXTPFnXtZRP/9VftS/3lqhcd4DKEdmzpT46rjZTqv1jqIupxEvHyQ/DF7XaINof9wWamuFVrKmLquuUJoGqq2w9NgPcs62sxYH7Ik9H1AYI+Z/iLfVd+Z7uLYqrmDlXWzY26BQi39CjoqV9JZma6c9F1131K+1LRcd87Wu3nwMtHROiax/Jf7xToVQvJfgaAIjr2jIorXP+6I8Ox8PeJsd/V0+a+KfBlY8yBe5NqCuqaI7WvqjVlDKpaP2MepfpG6Tk9Wot8hZVkaOWsZX77rHr4ugi5PK5zx2ivbQv7wlshJL5arR0ZoO5u0iN2k28xDU6nDUeoqNSw7Gfo6NrvzX5iDqxLUtdJUqESp2Pnj7ilD0V67KBOmelzphuL7JDbQZ6zEdaZ9RaOpqp6DYYjxXoVqKERWVEQqaOtpL2MWQ72bAF2e8Tnzj+cUT+ldZJnWB15FW3eBxBnWglZ/qt9Fidq4RAY/hKPnRL121P75WoDVQEOr+VWhxoNWSrzdUVSR/hkC1kN83mxjO/Sl7Sxywlmqf413+9TMdSG6XfTAccWiR01+/pd3/v9w7bVSfNusbgxHvv+QlSq1wySNB6jpLASByF9JTdtE/+Xxqoe/vtw2xxTV91NZ8+bUtCU/mFXzjI2HlKEDXrXaJnW1mLA3fG3xENNEmnseX4ErWt//RP7YPMilv3cadeopQkXvg4JWoLdQ9pWakgv9bjEq02Ka2w2Cp7c2yD28T/tZMjqPGqMdZRuXdU2Zx0Rr9FdDfMezBTPb2cufTY4QzHfG5ndokuUruJl3BjvdThrOHqeI2OSg3Hfo6Orv3W5iNKznQv0W+PiZ6XLyUzPX3EKbsl1pUkTH3jvsSY/ZSUTHV8lQzoljc1a5RL6W36n/xku/1kO9mwhZr90g/r1CR/0Vzul26MqYxWanGg69k6y61BlBIl+2mAID23NLjQsqqh1EYpaXBW4OjY1pcjuqt7JOn8y5j81E/5AxatEl0/XU/Fqewd7ZX+la31yEoMACgeWxIvvVSudO3GRHXRoFdpXyqqV+na92wra3Ggx5F6JdFKiFvuHRINKrr2noM4tpN/tDxCINHgkQaiS/tKItvpWsLeHsd/V89t4v8/To6g0eYa7o22K6psDok/JDjmu0ZntsZcXKR2Ey/hxnqpw1njIToqNRz7OTq69lujj2hpYq2zrAVXSoxqOvf0EadslenEeu0b9yWm7KdkQzNrpeRHdtWMuGZrnMQ/n4UOHPvJdrJhC2P2+5VfKdexJKXr5caYymllLA70u1ODMhoEqs2k1eyn3yuVlYt+u7aKpNZGtSSWIYrN0oy39uW476OQ//3+77ctcf7BD9oHWS5ZHfA7v3N4KWZtpl0z+0os5cM9Z7gdSV9cqZUJ6vIqSVYiqTq2rApxYr0WB2+91W5zDaK416d1cOiS675E6blSQX4De1sc/109t4n/905O8M1vHncWcG+0XVFlc0j8IcEx37U6syXm4iJjndkcN9ZrHc4Sro7X6KjUcOzn6Ojab60+ouRVy7jV0VfnRaLO69Rv9PQRp2w31lWuym+h1UdUnmbpdbvSS9dku3SZspPUaXa2lDQ69nN0rNlPyYlmdEt1zEUJmJ6HzXFjTGW1MhUHSupLzx/rb3Wk0+uTU7OfZs9bP6eXJoAptTbq8eNyObnIx2rP/Wp/jpv4yz6qn5LW0sykBgZk1xg00eBWy8CWBghal06H5O9XqIlWJeXvOXgokX30eEXtBZqxKqQ2MBQrVjSoMoYeQ1G7rd9TmXo0JQYM5butjzPIn/S5R3dVyBxEsdh63XVsr0deekutLdkae1Nsg9vE/z9OTlBa4hW4N9quqLI5JP6Q4JjvGp3ZGnNxkanObIob67UOZwlXR8d+jo7CsZ+jo2u/LfiIEiK9+biFnj7ilO3GuspV+S1cK8b++q8Ps7S6zlMSnzzLcezn6Fizn87X7bdUx5JoBj3HtZ/KaaU1DlQHPXutwRc9+z62DD+o2U8d8FzvmuTL8ZVIv/bawaYx86vBByV6+csRa6LERd/Nr80Y65gcd6m/EqlYTaB/ZWP5pBInvUegtBpl7O3qSkCV6MrPei35ll2csjULrYS5tC8Vlds6+BUiW//sz04nmRpUSeNZfir/kh6qn9oL+azsn17vWGVUGmyRTvlgjVYe1a6/Vqb85V8errOz/LynOMm5bNAak3pvx1wGh1xR3MHeFsd/V89t4v+/T04wNlLt3mi7osrmkPhvEplUfpmLbnCl7aVVLdfozNaYi4u0dmaFG+s6Vue04Oro2M/RUTj2c3R07YePDOnpI07ZbqyrXJXfwjXtp1nSqU6tkufa/d2xn6NjzX5awVCqY03ShDFw7adyWnHi4Bo+ouTLTVyV6EeilifGspcSLyXy6faf+7lyEq3kTe+pKC3xD3RcjpvUqa45LfbTgIp8XDaSKAlV4pq+R0MDCKXfvG9R/fTlDNmlFpPxqJN8zLnuWgLfmrzqhZBi7Pv5qkcMnMiOn/50+biSqHydJx+UL+pvbZdeiu/0URet3GgZIJLPunHQutxf5crHW97VoNUgWmUkv1O7WTomRIM3WmGhl5S21F3HtNQhRNfcWeqv8luP1zUZm+zdEntzbIND0v/ZkxNoCdAY7o22K6pwDon/JlGjK9/MRc+hlbaXnr28Rme2xlxcZAtJnaOjcOzn6OjaDx8Z0tNHnLLdWFe5Kr+Fa9pPCVht+a+SpHT5dAnHfo6ONfu5SZo6qPnyZdd+KqcVJw6u4SPSrSUxSuVXf3X6XQOphD6qr/6vOuuljvp/bWl4isoo4SR1JR907KfkVAnm3//9cUOCyqkluKkoMXJmfl1RHeLLAIpJxV88hqB9WqUQ10I+3FLnS0TlagCi5REItQ96xKN1FY6S3dIgkfbVGBuAkMg/9H6UGEBoEV1LfdCq5dED5TfyH717Zixu5Mu/+ZvHSu+Rz5YG1/S3todPq+zW7/jrCxGt110vjGxd0SXRoELrYFxpIG6r7M2xfg5vkX1nL//35AR62c4Y7o22K6pwDok/XMg1OrM15uIi6mxEh2OKayYlOa6Ojv0cHYVjP0dH1374yJCePuKU7ca6ylX5LfSwnxIOPZurW5tmfdSxKy2fznHs5+hYs5/7bLg69jGzG7j2UzmtOHFwDR+Rbo49JE7yWnpzt6OjUDk1WpO6Eq79xuJAS8vH6iEbK8nVS/1K+68hStLSpFgz4n/zN4d6qd6pH+v/mnEvlZNL6wvvQhT/rc/iq86O/6l9KbUX2jeG2ictoZcton76Ox2YbB1Iksiv/v3fd7vPfGY8OVYynA5u6bf0m9JDK0dUF9VJ/9fvl9Dsv+JF5enf0mM9sQKn9KiEtmlfrLr6jd+YjmHVTysPWlcTyG6awf+Hfxgf3JDESg84sDfJegmHLz2DpCBMP2GS495ou6IK55D4w4VcozNbYy4u4nT03FhvSUoCV0fHfo6OwrGfo6NrP3xkSE8fccp2Y13lqvwWlmo/R8ea/aTHWIKWSyxbTnHtp3JaceLgWj7iPOPvSsl+jo5C5YzRktSVcO03FQeqh5KaNHnUow+qixIo9W/druKnPtXmr7FEPGdMx9ZYUCLnzPz2FNlSLwDM0b4WlDT/8i/vdq+8UvaNlll/2SJ9EaV8Wclx2FLXQnlOmmzn6Lro06KqSymRL6Gyp5BttKpJfifR/3N7yQ9Vt9q1l43/5E8Ox2qASJ+IHRsokD00ABdIH8XesPz/dxMXGhyu2WSr7M2zTnShHz36X4kTnIscS85Swr3RdkWVzSHxhwu5Rme2xlxcxOnoubE+l6Tk2p3ZFEdH1374yJCePuKU7ca6ylX5LSzVfo6OY/ZrXe6vjmppKbprP5XVihMH1/IR90V5jpRWTDg6CpXTwlRSl+ParyUOpKvs+dWvHpY962WHaV0cWyuh0gs0lVSNnaPjlMiVmNJRKxVqM7Tqk0uHf/mX8oTdQ0nJd7S9lbF2RPZSHlIb6FAymya5KfINLY/XKouW5NZtK/X7rbTEmAaqpKvK1fsKNHihtjGPHQ0UlB7nisGO2u+o/EePnu7lf+7lm3vR492GEhthtRZpvdFGQ5fj3mi7oormkPjDhVyrM1tiLi7SchMK3FifS1Li6Cgc+zk6uvbDR4b09BGnbDfWVa7Kb2Gp9nN0HLOfOuVTy1HTWa8c134qrxUnDq7pI1r+O7U8WzbTZx1L+2pSGjxxdBQqp5Vr+UgJJw7GfKRlqbUknQjTMnAtG5dfxn51I8cSL9GioxI9DRyoTH3lQMvOldSlL12cetFcKu6jAY7cdcZftPiIbKrfUk6ipFiz55r5VjI7htOeuW2lo6MTY6qv3rkxhQbWVKbaAfmmviYypeujR/91L/Ey94PAkFVaxH15jBqdHPdG2xVVMsdN/KVk3vK4d6G5tDBwJ3p2VJZ4E3Jj3emMuTo69nN0FI79rtXhLIGPDOnpI07ZbqyrXJXfwlLt5+g4ZT8l/6XlrurgK8GqPW8rXPv1ioNr+ohmqmufr5NNtIRdHf9rfBXB0VGonFau6SM5ThyM+Yh8T8/61wZaNCjwiU+cx4XOU9Krl8r94i8e9JyKHVfHL35xt/uLvzj+keA8//6TP1nefg3RYEdJZ+1rxfGRH/zg8HK+3IdrOO2Z6uC0lY6OD9WO5JD4T7NKi+gFP84yIY2y5UtN3BttV1TJHL2uUw8HpS25Wm4NjemOqX2pqMeRtw5u9F2jhdH35WTYXGrfo3NaKWjCaUQfwkVqlMKghnMTcmNdx7Z2xlwdHfs5OgrHfo6Orv3wkSE9fcQp2411lavyW1iq/RwdW+2nGbzSd+jHcO3XKw56+IiSe81jaIZXM7fqrsgmsVxf58tW0qlFVE6Oo6NQOa308JHAiYMpH4mBlvTZcP2rgZKx912Jh/IRxcfUSgU9GvB3f1ceQKqJ3jHR4lP6bdmmhPa30tNHdKzOaUF1UF1acXR8KB/JSRN/KLNKy7gjxBpVzL/v6N5ou6JKllClQ4n4fsfcWxiNsMi4udS+R9fy7R2w4CY0RG7mxLrTGXN1dOzn6Cgc+12zw5mDjwzp6SNO2W6sq1yV38JS7efo6NrP0dG1X684eAgfUbdG3RvpNCW1F845OgqV1crSfET21LHSUYNQLTPLD+UjqlvpWW9JrAqJLmLr4wxaXfOf/9n2HX/NpdXso/2t9PQRHatzWlAdVJdWHB0fykdySPynWaVlNjHjLzQ0HkpoiFwstYWBe4Ob0BA31p3OmKujYz9HR+HYr0eHM8BHhvT0EadsN9ZVrspvYan2c3R07efo6NqvVxw8lI8oQW2Z0a29rNnRUaisVvCRIT18RNdfq0LkA/HpznRViNCqGT03Ppb863wtlo3jVU76DoMQ5Q/ypbF2Qse10tNHdOxYPVNUB9WlFUfHh/aRgMR/mlVaZhPP+Jdm+8VSWxi4N7gJDXFj3emMuTo69nN0FI79enY48ZEhPX3EKduNdZWr8ltYqv0cHV37OTq69usVBw/pI3obfClJk6i/p0StNjvr6ChUZiv4yJCePjIV67FCQP6gFQHhH0r4450ROXqHgT75pmRf5+jF4Jo8nGIuPqJjdU4LU/bLWaKPkPhPs1rLrP6t/ulsv151GSy1hYF7g5vQEDfWnc6Yq6NjP0dH4divZ4cTHxnS00ecst1YV7kqv4Wl2s/R0bWfo6Nrv15x8NA+ollaJWmarNHMr/TU89pjL0YUjo7CsR8+MqSnj7TGuib/tCJAfvL1rx9WDKSrA0os1Ud0rM5podV+wRJ9hMR/mtVaRjeIqc+BaElQbWmY24h2RZVNSWf79XK/9M1AS21h4N7gJjTEjXWnM+bq6NjP0VE49uvZ4cRHhvT0EadsN9ZVrspvYan2c3R07efo6NqvVxzMyUe0TLvVfo6OwrEfPjKkp4/0jPWl+oijo2u/JfoIif80q7aMnttXYl963l9Lf8beZOo2ol3JHTid7f/GN44bjyy1hYF7g5vQEDfWnc6Yq6NjP0dH4divZ4cTHxnS00ecst1YV7kqv4Wl2s/R0bWfo6Nrv15xsFQfcXQUjv3wkSE9faRnrC/VRxwdXfst0UdI/KfZhGX0vM6jR+/s5f/s5YObpWJa+jOG24h2JXXgsdl+sdQWBu4NbkJDenY4XR0d+zk6Csd+PTuc+MiQnj7ilO3GuspV+S0s1X6Ojq79HB1d+/WKg6X6iKOjcOyHjwzp6SM9Y32pPuLo6NpviT5C4j/NZiwTjvDoUZvXu41oV1IHHpvtF/fdwmjJRER8Kl/60qGupX18ou9B4SY0pGeH09XRsZ+jo3Ds17PDiY8M6ekjTtlurKtcld/CUu3n6Ojaz9HRtV+vOFiqjzg6Csd++MiQnj7SM9aX6iOOjq79lugjJP7TrNoyt8l+Km1e7zaiXdnX+4ap2X5x3y1MLfH/4z/e7V59tbyPxP9B4SY0pGeH09XRsZ+jo3Ds17PDiY8M6ekjTtlurKtcld/CUu3n6Ojaz9HRtV+vOFiqjzg6Csd++MiQnj7SM9aX6iOOjq79lugjaeIfAkNWbZH84h+kzevdRvQqKBr0w7ns633z7wsvHP4v0UdN9RKDnLm0MDBbuAkNUWj16nC6Ojr2c3QUjv16djjxkSE9fcQp2411lavyW1iq/RwdXS3scBkAACvnSURBVPs5Orr26xUHS/URR0fh2A8fGdLTR3rG+lJ9xNHRtd8SfYTEf5pVWyS/+Adp83q3Eb0Keguh3jqYy77eN98d1L+Sn/iJw4dK9VmCnLm0MDBbuAkN6dnhdHV07OfoKBz79exw4iNDevqIU7Yb6ypX5bewVPs5Orr2c3R07dcrDpbqI46OwrEfPjKkp4/0jPWl+oijo2u/JfoIif80m7HIrRO0eb3biF4FOagrOXNpYWC2cBMa0rPD6ero2M/RUTj269nhxEeG9PQRp2w31lWuym9hqfZzdHTt5+jo2q9XHCzVRxwdhWM/fGRITx/pGetL9RFHR9d+S/QRnvGfZjOWIfEv0LOFgdnCTWhIzw6nq6NjP0dH4divZ4cTHxnS00ecst1YV7kqv4Wl2s/R0bWfo6Nrv15xsFQfcXQUjv3wkSE9faRnrC/VRxwdXfst0UdI/KfZjGVI/Av0bGFgtsz9JqS4K7l6TUpx6tyEenY43RutYz9HRyFbteLo6NrvGj5Sw9FxCz7ilO3GuspV+S0s1X6Ojq79HB1d+/WKg6X6iKOjcOyHjwzp6SM9Y32pPuLo6NpviT5C4j/NZixD4l+gZwsDs2WpN6ES+qiEYjWXr371IOm27353t/vIR8phVJPSjczpjLk6Ovbr2VHp2eHs6SOOjo79XB3n4iNO2W6sq1yV38JS7efo6NrP0dG1X684WKqPODoKx374yJCePtIz1pfqI46Orv2W6CMk/tNsxjIk/gV6tjAwW5Z6EyoRcZrLZz+7233uc+V9pY9hOKiM1s6Yq6Njv54dFUdHt63s6SOOjo79XB3n4iNO2W6sq1yV38JS7efo6NrP0dG1X684WKqPODoKx374yJCePtIz1pfqI46Orv2W6CMk/tNsxjIk/gV6tjAwW5Z6E5oLTmfM1dGxX8+OSs8OZ08fcXR07OfqOBcfccp2Y13lqvwWlmo/R0fXfo6Orv16xcFSfcTRUTj2w0eG9PSRnrG+VB9xdHTtt0QfIfGfZjOWIfEv0LOFgdmy1JvQXHA6Y66Ojv16dlR6djh7+oijo2M/V8e5+IhTthvrKlflt7BU+zk6uvZzdHTt1ysOluojjo7CsR8+MqSnj/SM9aX6iKOja78l+giJ/zSbsQyJf4GeLQzMlqXehOaC0xlzdXTs17Oj0rPD2dNHHB0d+7k6zsVHnLLdWFe5Kr+FpdrP0dG1n6Oja79ecbBUH3F0FI798JEhPX2kZ6wv1UccHV37LdFHSPyn2YxlSPwL9GxhYLYs9SY0F5zOmKujY7+eHZWeHc6ePuLo6NjP1XEuPuKU7ca6ylX5LSzVfo6Orv0cHV379YqDpfqIo6Nw7IePDOnpIz1jfak+4ujo2m+JPkLiP82qLXOb7KfS5vVuI3oV9vWzJWcuLQzMlqXehOaC0xlzdXTs17Oj0rPD2dNHHB0d+7k6zsVHnLLdWFe5Kr+FpdrP0dG1n6Oja79ecbBUH3F0FI798JEhPX2kZ6wv1UccHV37LdFH0sQ/BIas2iL5xT9Im9e7jehV2NfPlpxrtDDf/vZB+Vw+/OHd7vOfP9/+5S/vdj/+8fFkmDv3fRP64Q/PXUby8z+/2/30T5f3tdbvIVD9Wjtj7o3WuYn37Kg4OrptpaOjaz9HR8d+ro5z8RGnbDfWnXZkqfZzdHTt5+jo2q9XHCzVRxwdhWM/fGRITx/pGetL9RFHR9d+S/QREv9pVm2R/OIfpM3r3Ub0Kvz2bx++Q5bLvt7F7b/+68cTE67Rwmi7DJDLW2+Vt7/zzvFEWAIPcROSi5Rc53vfK2/X9/nnitMZc2+0zk28Z0elZ4fT0XEuHRVXx7n4iFO2G+tOO7JU+zk6uvZzdHTt1ysOluojjo7CsR8+MqSnj/SM9aX6iKOja78l+giJ/zSbscitE7R5vduIdsVx3J4tDKyCudyElorTGXNvtI79enZUenY4HR3n0lFxdZyLjzhlu7HutCNLtZ+jo2s/R0fXfr3iYKk+4ugo5tLlwkeG9Iz1pfqIo6NrvyX6CM/4T7MZy5D4F3CjD1bBXG5Cc0ePKKgdyEWLbfQ0TGlfjnujdezXs6PSs8Pp6DiXjoqro2O/nj7ilO3GutOOLNV+jo6u/RwdXfv1ioOl+oijo5hLlwsfGdIz1pfqI46Orv2W6CMk/tNsxjIk/gXc6INVMJeb0Nz5zncObUAun/nMbvf48fn2L37xMFiQ4t5oHfv17KhIn14dzpKO//ZvQ1uGyNaf/GR53z//8/HkBEfHmv1UF+mUigZ6NOCTb//jPy77wsc+ttv90i+db5fcp484Zbux7rQjspV0b0XH6pwWetrP0dG1n6Oja79rxEGJpfqIo6OYS5cLHxnSM9aX6iOOjq79lugjJP7TbMYyJP4F3OiDVTCXm9AWcG+0jv16dlR6djhrOqqcktTeA1F6n6ijY8l+KlMDONInFSX3n/rU+faXXtrtvva187rV6lx6HUpPH3HKdmPdaUeku+zVio7VOS30tJ+jo2s/R0fXfneNgxpL9RFHRzGXLhc+MqRnrC/VRxwdXfst0UdI/KfZjGVI/Au40QerYC43oS3g3mgd+/XsqPTscPb0EUdH13696OkjTtlurDvtiOsjjv/1tJ+jY81+tY/kfPSj5VUhpY/kuPbrFQdL9RE31ufS5XJ03IKP9Iz1pfqIo6Nrv/v2kdrjlRqM1+q60r4cEv9pNmMZEv8CbgsDq2AuN6EtsNSOSs8OZ08fcXR07deLnj7ilO3GutOOuD5S8z9ty0UdQnUMS/tKq0Ic+12jrdT2Ut2cj+Rou2O/XnGwBB8p4cb6XLpcjo41+6luoX8q0rG0vaRL7Guhp4/oOB3fihPrjo5iLj7i6Ojar6SjHrGTn+WiFXEvvHC+XdteffXWvpKvf/0w8Jluk/zWbx0+85yXoW2lL4mXHq8k8Z9mM5Yh8S/gtjCwCq7hIv/4j+eNtkSNuRr1fLtmvdaO2oxcxpKS/IYl5tJRUdunOrag45y20tHRxdHRtV8venZma2X/x38MfVGid1p8/OPn2yWl33PaEZXh+EjJ/2rvgdCsud4FUdpXeg+EY7+53E5d+/WKA1fH+/aRGm6sz6XL5ehYs5/qFvqn8tWvlreXdIl9LfT0ER2n41txYt3RUczFRxwdXfuVdNRgqnwtl9rjbX/wB7e2TaXmf+pb3gUS/2k2YxkS/wJuCwOr4BouUkv8a4352hN/JfGlZ8M1Sl0awZYo0cqZS0dF9VMb2ILbVjo6ujg6uvbrRc/ObK3sr3xl6IuSL3xht/uZnznfLvnGN44nJjjtiOsjOrbV/1wc+83ldurar1ccuDrOxUfcWJ9Ll8vR0bWfw1x8RMfp+FacWF+qjzg6uvZzdJwLJP7TbMYyJP4F3BYGVgEuMl/m0lHp2eF0dHRxdHTtdw1kq1yusVT9Wl9FcHDaEemi32xFx+qcHjj+N5e20rVfrzhwdXwIH9G2XDQgLSntK8XYXLpcThzoOMd+JbQSSGXkomXcqndpX16/nj6i43R8K6pHa6y794O5+Iijo2s/R8e5QOI/zWYsQ+JfwG1hYBXgIvNlLh2VUoeuhttWOjq6ODq69rsrvZeq6zqUxPkqgoPTjuj3pE8rOlbn9MDxv7m0la79esWBq+N9+0gtxvQpztrKq7t+FrSnj6h+rXHg2q/E2DLu7363vO9HPzqefKSnj+g4Hd+KE+vu/WAuPuLoWLNf6RO2EulY2q4BojmglaRx3UIePXq6FxL/MVZtmdtkP5W2VkPOfddG9Grs691MzxYGVgEuMl/m0lHp2eF0dHRxdHTtNxd62s/BaUdcH3H8z8Wx31zaStd+veLA1fEaPlJ707eSeXX88+1KYu7KXLpcThzoOMdHetHTR3Scjm/FiXX3fjAXH3F0rNlP2+Q7uZRe1if55jePJz4w5cT/v+1lmPfBkFVbJL/4B2lrNebSiN6wr3czPVsYWAW4yHyZS0dFbV+vDqejo4ujo2u/udDTfg5OO+L6iON/Lo795tJWuvbrFQeujtfwkW9967A9Fy0/f/z4fLsem7nrapa5dLmkT2scuD7Si54+ouN0fCtOrLv3g7n4iKOja78lUsr7YMiqLVJyABL/BLeFgVWAi8yXuXRUenY4HR1rlF5OJ/nQh8rbSy+nc+03F65hv2vgtCOuj+jYVv9zcexX07Hkf0pCP/KR8+2Skv85uPZzYt2JA/d+0NNHejKXLpfsUYoDffJR21PR7KdWQeTbJfly/J709BEdp+NbcWLdvR/MxUccHV37LZFS3gdDNmORWydo83o1lnO5Ce0rffxPAz1bGFgFuMh8mUtHpdbhLOG2lY6ONUqfo5PUnmcv/Z5rv7lwDftdA6cd0TVwfMTxvxqqn3y+VUrtXE3Ha/hfidrXQZTQ/Zf/cr5dUvo6iPRpxYkD6eHcD3r6SE9K9tMjBGGrVHRtvvSl8r7W59+dxxneemu3+9znzv1AX5CpLc1uvQbXoKeP6Dgd34rTVsY1a8WJMUdH136Ojq79lggJ/zSbsQyJfwG3hYFVgIvMl7l0VNT2qQ1sodZWapYzOp6paFa0tERXs6j3iWu/ueD4yDWovfBLCaq+SFDal6NtusY5tWXcSnJLyc01lnE7OG3ltchtGaKEr7RdSWOOE+tOHLj3A8d+0kXXeA6U7FdL/F999RAHpX2tif9DPM5wDUovhdNA1Mc/fr5dUvJVx0d0nI5vZS730559LkdH135LhMR/ms1Y5tYZ/nuxQcrRNjWws8Bx4FoLU3oLxte/vtt99KPn2yX6UDssGrmBXMeR/Abi3oTgbsylo6K2r9Qulqi1ldIj2tdUarOi9/2mYNd+c8HxkWugt55HwpGKvkSgLxKU9uUvWNP11fac2kxnzUeu8eI2B6fDPiecWHfiwL0fOPbT9S35SE9qKzdkv9L2u/rfmu6nGngorU556aWDjvl2iQY4cmo+UrL/2KdPS4MKtbaydP5SP/lY07GE6qC6rBkS/2k2Y5lbZ3jnrDFSQ5I3Ggp27ZsFjgPXWphS4i9RS1faTuIPe9bUUVkCzk08QrUVpxlR26c2sIVZtZUGrv3mguMjc2GpPuJ02OeEE+tOHLj3A8d+D+Ejeju5fjOX2pL5uyZN3E/PKfmI+uOlQQU9zlD7LGPpkZdSW6nBm9L5eqxiiZ98dO4HqsNdfXjukPhPsxnLuM6wusQf4ALoqNwvpZt4tEW56FgtBS3tK82eO82IytDvpmjW48tfPv8tzfpq4VC+XaLxxrlC4n99LvGRUod9Liz1durE+n0n/vIRzfzG74ZoDkJl59sleVu0VLifntMzxnq2lb265a6PlHTUIyalONK7KDTAUdp336upeuHmeltkM5ZxnYHEH4COyn1Tu4mrPcrlu9+tL4m+69JEtX0qJ6f0NmlJ7fnjXp0uB9Wh1NH5tV87SGnfHOqtplzXrFXmEqeuj5SW6M6Fpd5O5Q+thM+34N4PSvarJf5/+qe73SuvnG+XyE/WgGu/NaEBvnTAL0TvA9BjQ/n20krcGlqgWvIbDTbqidZ8+zUGpJ0Ym0vir0cl9E6K0j4S/+2wGcu4zqAbjRqfWeA4MIk/XJEtd1QegtJN/Fo4zYjavjV1tksdHXUIS51CSa9rAMuCxH+Iez+gOzJky/dTJfEx2JdKbUBQ0kot8a89ybr2xH/LuLneFtmMZVxnUKND4g9bQjcQuVqryNXguvS8ieuatbKmxB/gUkj8h5D4t8P7lNeNE2Mk/veHm+ttkc1YxnUGEn8AuG9I/AHmA4n/EBL/dnif8rrp1S0n8b8bbq63RVZtmdQBUmmBxB8A7hsSf4D5sOXEX8/8qg1IZewb7aUXitIdgbXSq1tO4n83Ls35tsSqLVJyAEkLupGR+APAfULiDzAftpz4S3e1A6l84Qu73ac/Xd7+u787HAiQ6AVteqFYvl0CsGR6dctJ/O/GpTnflli1RUoOIGlBNybd0GZBY51vIPEHWCwk/gD3j26Zig9H5tzZVv1aqSX+DvrOeToQEKK3tetTjqV9a3mLOKwbrWRJB6xCFGOl7SW/JvG/Py7N+bbEZiziOoECWDenWeA4Lok/wGIh8QeAu+LE+jUSf4C18s1vDgesQl54obxdXfAcEv/7w831tshmLOM6w+wTfw0rxh07lc9+drf70pfK+/RxTwCYLST+AHBXnFiP7gEA9IHE//5wc70tshnLuM6w2MT/1VcPD9WV9pH4A8waEn8AuCtOrEf3AAD6QOJ/f7i53hbZjGVcZ5h94g8Aq4PEHwDuihPrJP4AfblG4q/PQ+q+nMuHP7zbff7z59u//OXd7sc/Pp68Idxcb4tsxjKuM5D4A8B9Q+IPAHfFiXUSf4C+XCPx13bdk3N5663y9nfeOZ64Mdxcb4tsxjKuMyhwSPwB4D65RuL/la/cjvqn8qEPlbd/4xvHExO0XW0gACwPp8tA4g9wHZTcK/Ycye/3tcQf2nBzvS2yGcu4zkDiDwC9+OEPb0fmU/n4x3e773znfLvz6ava54e+973zbXodSGmZ4Mc+Vv8Ml+oOAPOl1GVQvGu7IzoHAPqgWfn0fizR/V/9gHy75K6TAlvAzfW2yGYs4zqDgkyd3FmAAwOsim996zyhlmik/6WXzrd/8Yt9ntfT+z7zzoWkNEgg2eryQYAlQZcBYN7ofq7n8PN7/Re+sNt9+tPn2yV6zh/GcXO9LULiX0GdXAXaLMCBAQAAoAG6DACwRdxcb4uQ+Fcg8QcAAIC5ovdzpDOCIbX3eej9HwAAa8XN9bbIqi2TOkAqLZD4AwAAwFypvem79qiO3v8BALBWLs35tgSJfwXdJEn8AQAAAAAA5s2lOd+WIPGvQOIPAAAAAAAwfy7N+bbEZiziOgGJPwAAAAAAwPxxc70tQuJf4UES/7/9293uz//8XFTn0nYdDwAAAAAAsGHcXG+LkPhXmFXi/9WvlreT+AMAAAAAwMZxc70tQuJfYVZL/QEAAAAAAKCIm+sF77///u7dd9+9+XftLCbx//4+E3/llVd2L7/88u6NN97YffDBB8c9bbjOQOIPAAAAAAAwf9xcT7z22muD815//fXjnnWyiMT/7bffHlwUiQYAHNJzWyDxBwAAAAAAmD9urqeJ5DheeWX8X7P/a2URiX9ciDfffPNm5j/+fu+9945HTBPnSFog8QcAAAAAAJg/bq730ksv3Ryr3FLEQIBWAayV2Sf+Su51EV588cXjlt3NMgxt0wVqRceH5LzzziHRT+Xb397tPvvZ8+2SH/3oeCIAAAAAAAA8KGO5Xon8WM30628NCKyV2Sf+cRHSpf0xIqNn/luJiytJ+eEPDzP7uXz+87vdCy+U9/EyfQAAAAAAgHlQy/Vq5MdGztl6/hJZdOKfP+cfFwtBEARBEARBEARBJDn5dhL/GUDijyAIgiAIgiAIglwqOfl2Ev8ZMJb4559ciIuFIAiCIAiCIAiCIJKc2B7f748XyOcTy2ti9om/LkZcmPh2vy6I/tZn/lqJMiTXhrLP6VV2r3IFZZ+zxLJ7lSso+5wllt2rXEHZ5yyx7F7lCso+p1fZvcoVlH3OEsvuVa6g7HPmVLbeFadj9RZ/TTTHW/71Fbm1cn2rdyASfb3ZPy6KJAYCWohzJNeGss/pVXavcgVln7PEsnuVKyj7nCWW3atcQdnnLLHsXuUKyj6nV9m9yhWUfc4Sy+5VrqDsc+ZUdnw5Lhcnv1wa17d6B3QB0oRf4sz2i/Tca0PZ5/Qqu1e5grLPWWLZvcoVlH3OEsvuVa6g7HOWWHavcgVln9Or7F7lCso+Z4ll9ypXUPY5cytbyb9m/DXJrH9j2f9aub7VO6KLo6UYl4zEXOIMANAPYhJgPhCPAPOBeASAHmymRaERBZgXxCTAfCAeAeYD8QgAPSDxB4AHgZgEmA/EI8B8IB4BoAck/gDwIBCTAPOBeASYD8QjAPSAFgUAAAAAAABgxZD4AwAAAAAAAKwYEn8AAAAAAACAFUPiDwAAAAAAALBiSPwBAAAAAAAAVsxmEv/33ntv9+677+4++OCD4xYA6EnEXAnFofbpmBrELMB1eP/99yfjTftr8SqiDP0LAJfTEktT97+WeygAQM7qE381ji+99NLg0yhvv/32cS8A9EAdmtqniBR/aTy+/PLLg84NMQtwPV5//fVBLOXxpsQh3f/iiy+eJROvvfba4BiVCQA+eTwqtlJa7n9T91AAgBqrT/zVIKphVGcmbUxpJAH6kHdcUjRDEdsjNiVvvPHG8QhiFuBapAlCGm+RbCimYptiTTEXxwaKzTgmLUOxDADtfP/73y/G0ptvvnk8Yvr+13IPBQCoserEP+3URKMZDSUziADXJ+3YhKTEbEfMGEYnRp0cQcwCXI+InUgK0vhM/1aCIdL4i2XIkXzoWBEDAflMJQCMo/vdK6+8ckr0I5YUp6Ll/jd1DwUAGGPViX80iNGoimhoo9EEgOsRnZR0aXBK7FdsBnGcOjrELMD1ULKgRCOW7udJQsSW/g0iRiPR1/8lQZQRgwUA4KOYjEG1GAhouf9N3UMBAMbYbOKfbgOA66AOTLy4KDojKWOdFm0jZgH6EQNykehHbMXfImI0tun/kqAW2wDQTsRQunKm5f4X8Vm7hwIAjEHiDwBXp5YcTHVaiFmAPkTSr9n+mBmM2IokX0SMxjb9XxLUYhsA2lGcKRbTWGu5/0V81u6hAABjbDbx1/JHAOhDLTkY67Ro6SMxC3B90kdv0jf2R2xF4iEiRmP5cZwX1GIbAKZR/MXAm/6NWJp61C3uf1P3UACAMTaR+KcvPYkXo6QdHQC4LrXkIDot8aKitOMjiFmA6xKJgyRPDGJfutw4njuOxCLOjZf9xQsB0+QEAKaJ+1+8P0NEfCneWu5/U/dQAIAxVt9SRIOo2YvosEgYGQXoRy3xVxxqm5ILHRMzkelsfpxHzALcjTR+FE+RXEiEYir269iIT0mg2NTfilWdl7+QDADaiIE2xZDiLR2UC+Lv2v0vYnTsHgoAUGP1ib9GRaPhDGGmAqAv6pBEvKVodiISh1QiERHELMB1KMVaSJA+BhASs4siHRxIRbEMAO0oZuK5/lRi9l5M3f9a7qEAADVWn/gLjZpqNFSNpzo0dFgA+qJkQfFWStgVf1q+qH2Ky1KHhZgFuDsRgyVJ0SxibE+TkEDxrAEC7de/sewfADyucf9rKQMAoMQmEn8AAAAAAACArULiDwAAAAAAALBiSPwBAAAAAAAAVgyJPwAAAAAAAMCKIfEHAAAAAAAAWDEk/gAAAAAAAAArhsQfAAAAAAAAYMWQ+AMAAAAAAACsGBJ/AAAAAAAAgBVD4g8AAAAAAACwYkj8AQAAAAAAAFYMiT8AAAAAAADAiiHxBwAAAAAAAFgxJP4AAAAX8O67707Ke++9d/r/Bx98cDzzYdDvR51KRD3ff//945brE78BAAAA9wuJPwAAwAU8evRoUl5++eXT/x864X399ddv6vH2228ftxx44403TnUMUb17DFS88sorN+WT/AMAANwvJP4AAAAXoOQ45KWXXhokzSFKtuP/tZn2+0Cz+FG/NKH//ve/f9r+4osv3tQz/tb/r038Xo+yAQAAoA6JPwAAwB3RDHYkzCmxvF4SCbeS8NiW/p0m5HFebdl9nNM6mBCz/a+99tpxy4GYgdfARfDmm2+edMl/P9VnjDgm1SmIsh9yIAQAAGBrkPgDAADcESW5kdCmpNsjWU6X1kdCHqJl+JJ0W5qsK5GOZD1EM/VTSbSO0bH5Mv8oS/sjyddvlFYplB4JyMvL6y6Rjinxm/l2AAAA6AeJPwAAwB25NPGXpMvrQzQDH8m6REvkRXqs/p8eU1sdoOQ9jskHCNKl/hIl5fFbKWmd9bvpow1xfFqW6pXWNU3yo6x0lQEAAAD0hcQfAADgjlya+Me2NGlW8i008x7bdE6awOt4nSuJ5F9L9EukdSiRD0RIVGY6ABDbdWz8bszcR31jMCD+FloBoAGAdFuqKwAAANwP3HUBAADuSC25Trfr/yJNtIPScSK26Zz02fuSKMEuUfq9HK0W0Kx8uoJAorqkAw41EfH/dMCgRKorAAAA3A/cdQEAAO5ILZktJfSXJv7peUryc6k9Mz+W+Ou3JOlL+PR3DABopj6tm2b1S78t4pi0/iXS8kov/wMAAIDrQ+IPAABwR9JkNiXdHgnxpYl/ukQ+TZg1I69zas/4py/cy4ntKj9Fyby269/0kYN0Nl+/p9+N9wbEMekAhM7VMZKos/4fxwIAAMD9wF0XAADgjtSS2XS7/i8uTfzTBFwz7zouXf6fnpeSlp0OGAh9MSD2aYBAx6b1iwGBGAiQKPlPByHimFJZ8R4ASfx2WmcAAAC4H7jrAgAA3JE0uU5Jt+v/4tLEX5Q+lyfJv8+fE8elZQvN2ufP9YdocCGS9dpz/ukx+jde8JeL6h1oRYC2pS/8AwAAgL6Q+AMAANwRJcbp8+5Buj2WxCsJzo8tHSdiW5o4K3lXoq/tSp7TfTVi5j0GEFKUsGsWPn5Lx+rvSOiDeAFgHFc6Ji9L9cwHG2JwoKXeAAAAcB1I/AEAAFaOkmwl20q6HxINDKgeknzQAAAAAPpB4g8AALABYkl/7SWA90EMQNS+QAAAAAB9IPEHAADYAHohn5bfp2/mv2/iEQVm+wEAAO4XEn8AAAAAAACAFUPiDwAAAAAAALBiSPwBAAAAAAAAVgyJPwAAAAAAAMCKIfEHAAAAAAAAWDEk/gAAAAAAAAArhsQfAAAAAAAAYMWQ+AMAAAAAAACsGBJ/AFgXz5/tnj55snvy9Plxw5Ha9jvzbPfk8aPdoyfPdtcuuZmLdItznh3/XibPnz7ePXr0eHf1ywoAAACwIlaX+D9/9nT3ZN+ZffpspBf4/HjMA3YUo56THfXo0D9+vHssmdKtwP3Y5Pnu2RPV75j87OutOj8x6zpr9nZ8/EgJ3tOHS/AeiOdP9z4oP0zk6bNnu7teXvnmyb/17z4JfX5X4+59+XCdsoS2tv2OHBLPR3tfP24Q8v+jPlWiDRiNy2M56TElP7xEtzjn8dL9eW+jDtcVAAAAYE2sLPE/dgCPUusHRkf98YNk/s/3ic7h929kpLMa9byRY+J/+3drZ/2+bBK/82T/v6TuK+qM316Pg47bYehDZ/L4AntooEmz5KXy9qIBpIu518R/H883emQ2iN8a8ZVnTw66thyTxmXRDy/RLc4ptCXPnz/bPXv2gCsYTA52YtYfAAAAoMaqE/9ah/ruSe5lPH/25JgMPL6Z4bypY62jniYOg2pGotFa//uzyXPNAJ8q+/wmcbjrjPDckI53npFeHMNBnRNajRLJ+yUJp/xtf97AnirzZmCs7KdN1JLgS5LjKfYxXdb/Nk7LP5fGZS1hjTLO95/54SW6xTlniX/9d2fL8Trcd5sOAAAAsBTWmfjvO7JPCzNlwcMk/oe6PX7y9JAMVxOGA6N1nDh3yJxtAsugkviLUxLfmqi3DVw9v8voyj0m/jEjXyoyYqr4eye7HaRoi2piXuAS3arlLzDxT9q5xVQZAAAA4B5ZbeL//NSxLsyWzSHJbUz8S/u9+l/BJjezsE8O7xgIiQGMHD2TrP3HcvRsuI6vPep8swpiv//sOefjzO/tb5rvNjjW41Du892zYz1Gy0rP0e+fjj8mE5luJ/LfSus9eA4702l/bbOSDtwc59m7Vuewfy0frNp/wP43bvymlNyP7SsQfn/JjH5uv+p1rCTB1e3H65qWO2aOE5EgV3SpJtbadYi3J0/rx4Stav422F7T7cjNez4SHQ/+cv7b8T6Qm+36bb1f4CiHU0x/Sv1z/ytNcRi0Xu8bljhYAQAAAHB/rHSp/6EjXkuencT5sHx9Si7oaUYCVO1BHzvlexkkZaftrYnTHW1yStSSJOA4Y1vsZOcJSJxfSmwqnfVTHffb4zcfx2/W7JVzrIcS5qjvIXk4lrOXs6LinH0ydrBZyNHWuW5Bel76W3G+dI9zj/tOZedlXWjvap0vsP85Qx8aMFr+Oafn2luv4xHLJyau02D7yd775DQtt0WfKK96bN2+BzvInlPH1P10oEdN5z0aiDroePTLsFv4aFJ/2XngnzfHH+Smfq4/HetlxeGeS9qAsdUXAAAAAFtn1Yn/7d/DzmA1yT0jOrIT0pj0DIgO9FgvdX/MTcd8L+o4P9Vs2c3vtc5IijvaZN9x1yxb/nNjxw8TkPi9QnIZx6b2O23Lk0zNpJ/Xu0qUcyx/MHZySvay3xics99Xq29egey3bk/L/Gd/3u2+il32ZV1kb0mpzqc6NNq/SOJDz/d1O8rN7O3N9kLZRW7t0XQNg1M9G30ijq9dp2T74fzz+jc9atAQw1G/4XU72vNo97JfJzY/bjlR0m9K55trd9y2RzP7h+17Obv+Iz4zti9+Ky3v9PuH7VYcmm1Ae7sOAAAAsD1Wnvjvic5l0hn1Ooi3iU5VjkdaNCQNN9wslT10dg/SmmQFPWyyZyrRSLbXyi5tH+vYN9tMlJKQE5UE9JSkVGw8pXPht0LHUp1Hdc2Z+u0Rv3DsXyZ8qCzVxxDOuCzxt31iylan7WMJbgMt/lg65rjtZHdHB1HaVzk+bFe8xnHOmd+O28Xyp+pviLI/XNwGtFwPAAAAgI2y/sQ/6VxGh7Q94elISyd132k+JP2Pb74Hfnjb+VGX/Xlttb+uTU6DHadviWf1H0tKBp3/qEOpXgd9zx6pOK14KCURGaV6JBQToolzqvvHzsuTvIQWm19k75w4pmjrdFuNxIeiPnvRNbn1yZbk+dbvxqo75AKfMK5TXIOb8gsrLcY4nTuqzHn8Hc5L7VU7pmKnkn5FnW9tV7w2cY6Z+J/Oa/GnYr1uOY/DC653QOIPAAAAUGUDif+erKPaknB1Z6qTGvvz5dvpCoCmDu7dbXJ4YdfxN3PJ61Ds6BcSiaL+cdyEXCHxL+o7cU51/9h5Rz2Ldq3Y/O72PudsFrVo/xoVHzoSekxfl9vr2x57F/iEeZ1uXliXlKUVDC21O+lt2T70GdrycEzER/mYEyU9irpFOVdO/Pc0+1PtWhw5j4ELrndg+TQAAADAtthG4r8nnVmqJVzn3KETOsVoJ3Wq4x161jvmt9zNJrdJ3f78ZLbXnYHOyz9LHG6YTjiamUg4Ut1PTJxT3T923vE6l3ytZPNr2fuMzN/K9q8xnvif6lDbn3DSr+2H91zgE5dcpz2y8e1jNdO65DatMvCBoy2zc4a+cDym1q6U9CjqNmG7OOeCxL/ZnyZsfh6Hd2gDWq8HAAAAwAbZTOJ/u2/foXyadsTH0WxgvO27JqOfpKox2kmdSLSszvFdbDLyO7UOfbWjn9ajXicvIR1hNOEIvbLfmUhSfJ33DJK+IeeJ/zXtnVOwf/OAVf163RB1qO1POR3b4rsHbJ+4o62afy9ieMqO8bs6ruYPLccEJT0quo3qkv7mcdOBlval0Z8q9TpQjsNL24DSQBoAAAAAHNhQ4n/bMQx50A5iU+I/0WFvSbTuZJN6AnB6I3dewZGO/qlD/6Se2Jzq4/b6c042KvxOzX6jScqe2v6x80aSOCfxv8TeOfF7Y/YvM+ZDt29ab6mDOB2fP8YS3DzOcvvlCtsnLrlOCSc7Tf1clDeV+CfX9cmN7qWEuuWYIyU9KrqdbFdN7kv7klgdsUGTP0W9SvtP+4Z+ZV/vI5cOGAAAAABsgU0l/oPO7l7aE5/roBdTxSqBJ/Gt7P2/p21Pb2t96vwqEbh5yZWWeycvt2qu/91sMkzStOx8+JJBK7mK5PVGaolNmpBoNcVe5/3v6sVe8TnDpo59knBIHkdZY/Ybq7uo7W/QuXSt4hqn+65q75yBTUYSyzPCh26/qR5yW17Nv0oosY/zDtfmVOZpe1o/0year9NBr5tPZSq+VObJP1r0iXpN2/I2nvdSGShoOeaGkn5VP4hrpzKzGIjv6Rd+61SX4zmy89kgTYs/DY45XOvJOHSv9w3t1wIAAABgi2ws8d+TdERLyVg/ks5sTbIO+M1L3krH7Tu3egN5G3e1yb7eaeIpUWdcs7L6/2RylZImISOJzX7Ps/w3j/J4f15Vj5SkHud21GBK4ddH676ntn/sPDPx32+9or1z0oRqzP45yXXLRQNXT1u/MJGSJtlDKX8e0PAJ4zoVy9zbuzW8mmeZ47cltYOTgbHRtqmk35gf3KygOP52lH/zAsOjPxR9IW+vSgl1gz8l9WqOwxvcNuDoo5ZfAwAAAGyHlSX+a+UwG3kjxy0PwYP8fujt/nAxObqgnAekh73nuRz6eI2Pf01ycx2vfC2jzOOfzUSyPi+DVrhEx8M5NSb96RpxeHP8xDkjA2wAAAAAQOIPa2VsBnSzxMx9yzJ2aCNmvbdo0wZ/uqc4PAxAsMwfAAAAoAaJP6wTEv8zTs9tY5OrEnbdmlmb/Ok+4pBYBwAAAJiExB/WCclAxu3z2Jjk2jzb21YvPrzkXQdLpdGf7iEO9cnVx3v7M9sPAAAAUIfEHwAAAAAAAGDFkPgDAAAAAAAArBgSfwAAAAAAAIAVQ+IPAAAAAAAAsGJI/AEAAAAAAABWDIk/AAAAAAAAwIoh8QcAAAAAAABYMST+AAAAAAAAACuGxB8AAAAAAABgxZD4AwAAAAAAAKwYEn8AAAAAAACAFUPiDwAAAAAAALBiSPwBAAAAAAAAVgyJPwAAAAAAAMCKIfEHAAAAAAAAWDEk/gAAAAAAAAArhsQfAAAAAAAAYMWQ+AMAAAAAAACsGBJ/AAAAAAAAgBVD4g8AAAAAAACwYkj8AQAAAAAAAFYMiT8AAAAAAADAiiHxBwAAAAAAAFgxJP4AAAAAAAAAK4bEHwAAAAAAAGDFkPgDAAAAAAAArBgSfwAAAAAAAIAVQ+IPAAAAAAAAsGJI/AEAAAAAAABWDIk/AAAAAAAAwIoh8QcAAAAAAABYMST+AAAAAAAAACuGxB8AAAAAAABgxZD4AwAAAAAAAKyW3e7/AyVZ/HYUl6BfAAAAAElFTkSuQmCC;" parent="TdoV821Zneaegla7UpCI-50" vertex="1">
          <mxGeometry x="10.12" y="50" width="1212.36" height="830" as="geometry" />
        </mxCell>
        <mxCell id="TdoV821Zneaegla7UpCI-71" style="edgeStyle=orthogonalEdgeStyle;rounded=1;sketch=0;jumpStyle=arc;jumpSize=6;orthogonalLoop=1;jettySize=auto;html=1;entryX=0.5;entryY=0;entryDx=0;entryDy=0;entryPerimeter=0;shadow=0;fontSize=16;fontColor=#FFFFFF;startArrow=none;startFill=0;strokeWidth=3;exitX=0.5;exitY=1;exitDx=0;exitDy=0;" parent="1" source="TdoV821Zneaegla7UpCI-229" target="TdoV821Zneaegla7UpCI-70" edge="1">
          <mxGeometry relative="1" as="geometry">
            <mxPoint x="2047.5" y="1330" as="sourcePoint" />
          </mxGeometry>
        </mxCell>
        <mxCell id="GacyLn4TmJQCc22O2fjG-2" style="edgeStyle=orthogonalEdgeStyle;orthogonalLoop=1;jettySize=auto;html=1;entryX=0.5;entryY=0;entryDx=0;entryDy=0;fontSize=30;strokeWidth=3;rounded=1;shadow=0;" parent="1" source="TdoV821Zneaegla7UpCI-70" target="TdoV821Zneaegla7UpCI-50" edge="1">
          <mxGeometry relative="1" as="geometry" />
        </mxCell>
        <mxCell id="TdoV821Zneaegla7UpCI-70" value="&lt;font style=&quot;font-size: 14px&quot;&gt;Condition_ measurement&lt;br&gt;.csv&lt;/font&gt;" style="shape=note;whiteSpace=wrap;html=1;backgroundOutline=1;darkOpacity=0.05;rounded=1;shadow=1;glass=0;sketch=1;fontSize=17;strokeColor=#82b366;fillColor=#d5e8d4;gradientColor=#ffffff;" parent="1" vertex="1">
          <mxGeometry x="1776.38" y="1120" width="97.25" height="130" as="geometry" />
        </mxCell>
        <mxCell id="TdoV821Zneaegla7UpCI-233" style="edgeStyle=orthogonalEdgeStyle;rounded=1;sketch=0;jumpStyle=arc;jumpSize=6;orthogonalLoop=1;jettySize=auto;html=1;exitX=0;exitY=0.5;exitDx=0;exitDy=0;exitPerimeter=0;entryX=1;entryY=0.5;entryDx=0;entryDy=0;shadow=0;fontSize=10;fontColor=#FFFFFF;startArrow=none;startFill=0;strokeWidth=2;" parent="1" source="TdoV821Zneaegla7UpCI-225" target="TdoV821Zneaegla7UpCI-229" edge="1">
          <mxGeometry relative="1" as="geometry" />
        </mxCell>
        <mxCell id="TdoV821Zneaegla7UpCI-225" value="&lt;font style=&quot;font-size: 14px&quot;&gt;Data filter and synchroniser script.R&lt;/font&gt;" style="shape=note;whiteSpace=wrap;html=1;backgroundOutline=1;darkOpacity=0.05;rounded=1;shadow=1;glass=0;sketch=1;fontSize=17;strokeColor=#6c8ebf;gradientColor=#FFFFFF;fillColor=#C9D6E8;" parent="1" vertex="1">
          <mxGeometry x="2070" y="780" width="122.5" height="160" as="geometry" />
        </mxCell>
        <mxCell id="TdoV821Zneaegla7UpCI-230" style="edgeStyle=orthogonalEdgeStyle;sketch=0;jumpStyle=arc;jumpSize=6;orthogonalLoop=1;jettySize=auto;html=1;entryX=0.5;entryY=0;entryDx=0;entryDy=0;entryPerimeter=0;shadow=0;fontSize=10;fontColor=#FFFFFF;startArrow=none;startFill=0;strokeWidth=3;rounded=1;" parent="1" source="TdoV821Zneaegla7UpCI-227" target="TdoV821Zneaegla7UpCI-48" edge="1">
          <mxGeometry relative="1" as="geometry" />
        </mxCell>
        <mxCell id="TdoV821Zneaegla7UpCI-227" value="&lt;p style=&quot;line-height: 150% ; font-size: 19px&quot;&gt;&lt;span&gt;&lt;b&gt;IRM data reversal and synchronisation&lt;/b&gt;&lt;/span&gt;&lt;br&gt;&lt;span&gt;using Calcium data&lt;/span&gt;&lt;/p&gt;" style="rhombus;whiteSpace=wrap;html=1;shadow=1;fillColor=#fff2cc;strokeColor=#994C00;" parent="1" vertex="1">
          <mxGeometry x="1280" y="820" width="275" height="270" as="geometry" />
        </mxCell>
        <mxCell id="TdoV821Zneaegla7UpCI-229" value="&lt;p style=&quot;line-height: 150% ; font-size: 20px&quot;&gt;&lt;span&gt;&lt;b&gt;Data filtering and synchronisation&lt;/b&gt;&lt;/span&gt;&lt;br&gt;&lt;span&gt;using R script&lt;/span&gt;&lt;/p&gt;" style="rhombus;whiteSpace=wrap;html=1;shadow=1;fillColor=#fff2cc;strokeColor=#994C00;" parent="1" vertex="1">
          <mxGeometry x="1688.5300000000002" y="820" width="272.94" height="270" as="geometry" />
        </mxCell>
        <mxCell id="XDgYf-VAlbCM_VDDUhfT-3" style="edgeStyle=orthogonalEdgeStyle;rounded=0;orthogonalLoop=1;jettySize=auto;html=1;entryX=1;entryY=0.5;entryDx=0;entryDy=0;strokeWidth=2;shadow=0;" parent="1" source="XDgYf-VAlbCM_VDDUhfT-2" target="TdoV821Zneaegla7UpCI-38" edge="1">
          <mxGeometry relative="1" as="geometry" />
        </mxCell>
        <mxCell id="XDgYf-VAlbCM_VDDUhfT-2" value="&lt;font style=&quot;font-size: 14px&quot;&gt;Convert ICY data to R readable.py&lt;/font&gt;" style="shape=note;whiteSpace=wrap;html=1;backgroundOutline=1;darkOpacity=0.05;rounded=1;shadow=1;glass=0;sketch=1;fontSize=16;strokeColor=#6c8ebf;gradientColor=#FFFFFF;fillColor=#C9D6E8;align=center;verticalAlign=middle;" parent="1" vertex="1">
          <mxGeometry x="2070" y="415" width="122.5" height="160" as="geometry" />
        </mxCell>
        <mxCell id="3hBX2z78ImlHnici2h0N-2" style="edgeStyle=orthogonalEdgeStyle;rounded=1;orthogonalLoop=1;jettySize=auto;html=1;entryX=0.5;entryY=0;entryDx=0;entryDy=0;shadow=0;strokeWidth=3;" parent="1" source="3hBX2z78ImlHnici2h0N-1" target="TdoV821Zneaegla7UpCI-38" edge="1">
          <mxGeometry relative="1" as="geometry" />
        </mxCell>
        <mxCell id="jxMsPqHITxnM18n-LVxt-5" style="edgeStyle=orthogonalEdgeStyle;rounded=1;orthogonalLoop=1;jettySize=auto;html=1;entryX=0.5;entryY=0;entryDx=0;entryDy=0;shadow=0;fontSize=14;strokeWidth=3;" parent="1" source="3hBX2z78ImlHnici2h0N-1" target="TdoV821Zneaegla7UpCI-227" edge="1">
          <mxGeometry relative="1" as="geometry" />
        </mxCell>
        <mxCell id="3hBX2z78ImlHnici2h0N-1" value="&lt;font style=&quot;font-size: 14px&quot;&gt;Condition_ measurement&lt;br&gt;.xlsx&lt;/font&gt;" style="shape=note;whiteSpace=wrap;html=1;backgroundOutline=1;darkOpacity=0.05;rounded=1;shadow=1;glass=0;sketch=1;fontSize=17;strokeColor=#82b366;fillColor=#d5e8d4;gradientColor=#ffffff;" parent="1" vertex="1">
          <mxGeometry x="1695.01" y="180" width="97.25" height="130" as="geometry" />
        </mxCell>
        <mxCell id="jxMsPqHITxnM18n-LVxt-2" style="edgeStyle=orthogonalEdgeStyle;rounded=1;orthogonalLoop=1;jettySize=auto;html=1;entryX=0.5;entryY=0;entryDx=0;entryDy=0;strokeWidth=3;" parent="1" source="jxMsPqHITxnM18n-LVxt-1" target="TdoV821Zneaegla7UpCI-38" edge="1">
          <mxGeometry relative="1" as="geometry" />
        </mxCell>
        <mxCell id="jxMsPqHITxnM18n-LVxt-1" value="&lt;font style=&quot;font-size: 14px&quot;&gt;Condition_ measurement&lt;br&gt;.csv&lt;/font&gt;" style="shape=note;whiteSpace=wrap;html=1;backgroundOutline=1;darkOpacity=0.05;rounded=1;shadow=1;glass=0;sketch=1;fontSize=17;strokeColor=#82b366;fillColor=#d5e8d4;gradientColor=#ffffff;" parent="1" vertex="1">
          <mxGeometry x="1857.76" y="180" width="97.25" height="130" as="geometry" />
        </mxCell>
        <mxCell id="jxMsPqHITxnM18n-LVxt-4" style="edgeStyle=orthogonalEdgeStyle;rounded=1;orthogonalLoop=1;jettySize=auto;html=1;entryX=1;entryY=0.5;entryDx=0;entryDy=0;shadow=0;fontSize=16;strokeWidth=2;" parent="1" source="jxMsPqHITxnM18n-LVxt-3" target="TdoV821Zneaegla7UpCI-229" edge="1">
          <mxGeometry relative="1" as="geometry" />
        </mxCell>
        <mxCell id="jxMsPqHITxnM18n-LVxt-3" value="&lt;font style=&quot;font-size: 14px&quot;&gt;Data synchroniser script.R&lt;/font&gt;" style="shape=note;whiteSpace=wrap;html=1;backgroundOutline=1;darkOpacity=0.05;rounded=1;shadow=1;glass=0;sketch=1;fontSize=17;strokeColor=#6c8ebf;gradientColor=#FFFFFF;fillColor=#C9D6E8;align=center;" parent="1" vertex="1">
          <mxGeometry x="2070" y="970" width="122.5" height="160" as="geometry" />
        </mxCell>
      </root>
    </mxGraphModel>
  </diagram>
</mxfile>
